<?xml version="1.0" encoding="utf-8"?>
<!-- Generator: Adobe Illustrator 15.1.0, SVG Export Plug-In . SVG Version: 6.00 Build 0)  -->
<!DOCTYPE svg PUBLIC "-//W3C//DTD SVG 1.1//EN" "http://www.w3.org/Graphics/SVG/1.1/DTD/svg11.dtd">
<svg version="1.1" id="Layer_1" xmlns="http://www.w3.org/2000/svg" xmlns:xlink="http://www.w3.org/1999/xlink" x="0px" y="0px"
	 width="417.472px" height="81.969px" viewBox="0 0 417.472 81.969" enable-background="new 0 0 417.472 81.969"
	 xml:space="preserve">
<g>
	<path fill="#8F316D" d="M357.238,0h-34.68c-5.402,0-7.77,3.04-7.77,7.994v42.896c0,4.955,2.367,7.993,7.77,7.993h34.68
		c5.402,0,7.768-3.038,7.768-7.993V7.994C365.005,3.04,362.64,0,357.238,0z M341.363,39.069c0,0.901-0.451,1.576-1.465,1.576
		s-1.465-0.675-1.465-1.576V19.816c0-1.014,0.451-1.576,1.465-1.576s1.465,0.563,1.465,1.576V39.069z"/>
	<path fill="#8F316D" d="M155.146,50.893V7.994c0-4.954-2.364-7.994-7.769-7.994H104.93v81.969h23.645V58.886h18.802
		C152.782,58.886,155.146,55.846,155.146,50.893z M131.501,39.52c0,0.901-0.675,1.126-1.576,1.126h-1.351V20.717h1.689
		c0.9,0,1.238,0.563,1.238,1.576V39.52z"/>
	<path fill="#8F316D" d="M409.701,40.983c5.406,0,7.771-3.04,7.771-7.994V7.318c0-4.278-2.703-7.318-7.771-7.318h-42.445v81.969
		H390.9v-34.68h1.35c1.127,0,1.576,0.338,1.576,1.576v25.107c0,4.953,2.365,7.994,7.77,7.994h15.875V50.555
		c0-4.955-2.361-7.994-7.77-7.994h-0.113v-1.577L409.701,40.983L409.701,40.983z M393.828,36.705c0,0.9-0.676,1.126-1.576,1.126
		H390.9V20.717h2.928V36.705L393.828,36.705z"/>
	<path fill="#8F316D" d="M78.811,0l0.225,39.069c0,1.126-0.562,1.576-1.463,1.576c-1.013,0-1.464-0.45-1.464-1.576L75.884,0H52.465
		v50.893c0,4.953,2.364,7.993,7.769,7.993h34.678c5.405,0,7.769-3.04,7.769-7.993c0-9.458-0.225-50.893-0.225-50.893H78.811z"/>
	<path fill="#8F316D" d="M252.307,0H209.86v81.969h23.644V20.718h1.69c0.788,0.111,1.126,0.337,1.238,1.126v52.129
		c0,4.955,2.364,7.996,7.769,7.996h15.875V7.994C260.076,3.04,257.712,0,252.307,0z"/>
	<path fill="#8F316D" d="M287.095,61.25c-0.788,0-1.127-0.45-1.127-1.576V43.573h26.572V20.491h-26.572V0h-23.643v73.973
		c0,4.955,2.363,7.996,7.768,7.996h37.377h5.07h52.465V61.361h-52.465L287.095,61.25z"/>
	<path fill="#8F316D" d="M50.217,50.555c0-4.955-2.365-7.994-7.77-7.994h-0.112v-1.577h0.112c5.405,0,7.77-3.04,7.77-7.994V7.318
		C50.217,3.04,47.514,0,42.447,0H0v81.969h23.644v-34.68h1.351c1.126,0,1.577,0.338,1.577,1.576v25.107
		c0,4.953,2.364,7.994,7.769,7.994h10.805h5.071h52.464V61.361H50.217V50.555z M26.571,36.705c-0.112,0.9-0.675,1.126-1.576,1.126
		h-1.351V20.717h2.927V36.705z"/>
	<path fill="#8F316D" d="M199.73,0h-34.567c-5.403,0-7.768,3.04-7.768,7.994v53.367h-26.118v20.605h26.118h0.003h23.641V52.018
		h2.928v29.95h23.645V7.994C207.612,3.04,205.246,0,199.73,0z M183.967,39.407h-2.928V22.293c0-0.9,0.451-1.576,1.464-1.576
		c1.014,0,1.464,0.676,1.464,1.576V39.407L183.967,39.407z"/>
</g>
</svg>
