<?xml version="1.0" encoding="utf-8"?>
<!-- Generator: Adobe Illustrator 15.1.0, SVG Export Plug-In . SVG Version: 6.00 Build 0)  -->
<!DOCTYPE svg PUBLIC "-//W3C//DTD SVG 1.1//EN" "http://www.w3.org/Graphics/SVG/1.1/DTD/svg11.dtd">
<svg version="1.1" id="Layer_1" xmlns="http://www.w3.org/2000/svg" xmlns:xlink="http://www.w3.org/1999/xlink" x="0px" y="0px"
	 width="436.569px" height="130.958px" viewBox="0 0 436.569 130.958" enable-background="new 0 0 436.569 130.958"
	 xml:space="preserve">
<path fill-rule="evenodd" clip-rule="evenodd" fill="#FF0000" d="M7.563-205.688c0.797,0.5,1.648,0.386,2.492,0.372
	c0.454-0.007,0.602,0.186,0.625,0.583c0.093,1.69,0.211,3.38,0.277,5.071c0.067,1.711,0.039,3.425,0.133,5.132
	c0.105,1.913,0.271,3.823,0.469,5.728c0.201,1.937,0.69,3.804,1.543,5.569c0.588,1.218,1.387,2.258,2.509,3.02
	c1.458,0.993,3.138,1.218,4.801,0.978c1.72-0.251,3.004-1.36,4.002-2.768c0.966-1.363,1.405-2.962,1.961-4.5
	c0.358-0.99,0.619-2.023,0.818-3.056c0.423-2.191,0.803-4.393,1.151-6.598c0.237-1.492,0.405-2.996,0.58-4.499
	c0.21-1.788,0.398-3.582,0.59-5.375c0.193-1.809,0.377-3.618,0.568-5.427c0.195-1.857,0.389-3.715,0.592-5.571
	c0.153-1.393,0.289-2.79,0.485-4.178c0.222-1.573,0.488-3.141,0.764-4.708c0.168-0.951,0.39-1.893,0.587-2.84
	c0.167,0.319,0.264,0.625,0.313,0.939c0.168,1.065,0.323,2.131,0.472,3.198c0.141,1.004,0.296,2.006,0.393,3.013
	c0.169,1.749,0.3,3.502,0.444,5.255c0.149,1.814,0.3,3.628,0.44,5.444c0.063,0.822,0.09,1.646,0.155,2.468
	c0.134,1.701,0.285,3.401,0.424,5.104c0.146,1.8,0.246,3.606,0.441,5.402c0.21,1.932,0.5,3.857,0.768,5.783
	c0.109,0.779,0.195,1.568,0.39,2.329c0.408,1.594,0.838,3.187,1.342,4.753c0.446,1.387,1.144,2.653,2.088,3.789
	c1.722,2.069,4.445,2.622,6.817,1.722c1.944-0.737,3.018-2.345,3.875-4.127c0.811-1.685,1.291-3.482,1.682-5.295
	c0.369-1.709,0.638-3.443,0.884-5.175c0.225-1.576,0.38-3.163,0.533-4.749c0.21-2.182,0.394-4.364,0.576-6.549
	c0.204-2.425,0.382-4.853,0.596-7.277c0.174-1.989,0.363-3.977,0.589-5.962c0.215-1.886,0.447-3.772,0.744-5.647
	c0.225-1.408,0.543-2.802,0.865-4.193c0.15-0.651,0.397-1.281,0.623-1.912c0.053-0.148,0.2-0.263,0.304-0.392
	c0.091,0.131,0.194,0.256,0.273,0.396c0.077,0.137,0.158,0.283,0.191,0.435c0.396,1.817,0.834,3.627,1.16,5.457
	c0.231,1.297,0.315,2.623,0.453,3.936c0.152,1.44,0.305,2.88,0.432,4.322c0.116,1.332,0.206,2.668,0.288,4.004
	c0.111,1.803,0.205,3.608,0.298,5.413c0.056,1.098,0.079,2.198,0.153,3.294c0.129,1.929,0.28,3.856,0.431,5.783
	c0.101,1.284,0.181,2.573,0.33,3.852c0.215,1.842,0.371,3.694,0.91,5.486c0.241,0.805,0.309,1.659,0.514,2.478
	c0.41,1.635,1.058,3.172,2.072,4.536c1.601,2.149,4.141,2.762,6.539,1.958c1.304-0.437,2.27-1.336,3.038-2.446
	c1.533-2.215,2.233-4.768,2.859-7.338c0.273-1.12,0.441-2.268,0.645-3.405c0.182-1.012,0.369-2.023,0.511-3.041
	c0.136-0.987,0.215-1.985,0.327-2.975c0.041-0.367,0.139-0.73,0.146-1.097c0.023-1.048,0.422-2.038,0.423-3.095
	c0.002-1.011,0.13-2.021,0.219-3.03c0.187-2.118,0.382-4.234,0.583-6.35c0.186-1.971,0.376-3.942,0.578-5.912
	c0.142-1.377,0.297-2.752,0.465-4.125c0.154-1.245,0.311-2.49,0.511-3.727c0.159-0.98,0.385-1.949,0.583-2.922
	c0.115,0.077,0.153,0.148,0.163,0.223c0.143,1.099,0.319,2.196,0.416,3.299c0.132,1.493,0.207,2.992,0.299,4.488
	c0.1,1.643,0.207,3.284,0.288,4.928c0.097,1.967,0.365,3.909,0.9,5.805c0.361,1.282,0.865,2.494,1.877,3.435
	c0.826,0.769,1.736,1.349,2.894,1.396c1.113,0.047,2.23,0.023,3.343,0.078c0.714,0.035,1.279-0.149,1.839-0.63
	c1.266-1.084,1.723-2.996,0.999-4.592c-0.705-1.553-1.908-2.122-3.772-1.783c-0.464,0.083-0.657-0.04-0.715-0.529
	c-0.202-1.741-0.428-3.481-0.571-5.226c-0.146-1.783-0.185-3.575-0.306-5.362c-0.105-1.556-0.245-3.111-0.395-4.664
	c-0.201-2.065-0.612-4.082-1.429-6.003c-0.643-1.511-1.533-2.787-3.019-3.594c-0.937-0.51-1.929-0.801-2.979-0.793
	c-1.364,0.012-2.581,0.471-3.56,1.458c-1.412,1.425-2.104,3.233-2.652,5.101c-0.326,1.113-0.588,2.248-0.803,3.389
	c-0.304,1.608-0.565,3.227-0.792,4.849c-0.225,1.625-0.402,3.258-0.572,4.89c-0.208,2.002-0.393,4.007-0.582,6.011
	c-0.197,2.101-0.38,4.203-0.585,6.302c-0.186,1.908-0.442,3.808-0.576,5.718c-0.109,1.544-0.595,3.041-0.481,4.603
	c0.008,0.124-0.043,0.254-0.066,0.38c-0.208,1.074-0.409,2.149-0.626,3.221c-0.236,1.167-0.471,2.333-0.738,3.493
	c-0.114,0.494-0.306,0.972-0.463,1.456c-0.07-0.008-0.14-0.017-0.209-0.026c-0.188-0.958-0.384-1.915-0.564-2.873
	c-0.165-0.883-0.35-1.765-0.455-2.657c-0.09-0.776-0.066-1.563-0.121-2.343c-0.02-0.279-0.156-0.551-0.181-0.83
	c-0.095-1.119-0.171-2.239-0.249-3.359c-0.112-1.626-0.23-3.249-0.331-4.875c-0.106-1.707-0.193-3.415-0.293-5.123
	c-0.093-1.611-0.174-3.223-0.293-4.831c-0.179-2.428-0.36-4.856-0.592-7.278c-0.14-1.457-0.376-2.903-0.567-4.354
	c-0.239-1.817-0.652-3.595-1.198-5.343c-0.487-1.562-1.13-3.046-2.112-4.369c-1.223-1.645-2.87-2.532-4.903-2.608
	c-1.538-0.058-2.925,0.434-4.115,1.45c-1.279,1.093-2.144,2.467-2.777,3.997c-0.79,1.912-1.321,3.909-1.716,5.932
	c-0.36,1.844-0.635,3.705-0.888,5.568c-0.22,1.626-0.373,3.261-0.525,4.895c-0.21,2.263-0.395,4.528-0.584,6.793
	c-0.201,2.409-0.376,4.82-0.597,7.228c-0.186,2.036-0.413,4.07-0.636,6.103c-0.117,1.072-0.241,2.143-0.401,3.211
	c-0.163,1.079-0.342,2.159-0.575,3.225c-0.215,0.987-0.51,1.957-0.77,2.936c-0.208-0.131-0.31-0.244-0.341-0.373
	c-0.396-1.649-0.838-3.291-1.153-4.956c-0.291-1.548-0.463-3.119-0.65-4.683c-0.199-1.662-0.381-3.327-0.525-4.994
	c-0.173-2.009-0.291-4.023-0.444-6.034c-0.138-1.797-0.294-3.595-0.435-5.392c-0.125-1.608-0.225-3.218-0.365-4.824
	c-0.152-1.748-0.326-3.494-0.513-5.239c-0.129-1.201-0.223-2.412-0.462-3.591c-0.384-1.897-0.821-3.787-1.341-5.651
	c-0.396-1.422-1.051-2.751-2.077-3.851c-1.545-1.655-3.434-2.117-5.57-1.469c-1.533,0.466-2.54,1.597-3.33,2.936
	c-1.184,2.007-1.766,4.237-2.303,6.473c-0.278,1.153-0.444,2.334-0.629,3.508c-0.292,1.841-0.583,3.683-0.827,5.531
	c-0.21,1.594-0.362,3.197-0.527,4.798c-0.195,1.883-0.373,3.768-0.57,5.65c-0.033,0.319-0.19,0.637-0.173,0.947
	c0.086,1.605-0.244,3.167-0.425,4.744c-0.198,1.726-0.402,3.452-0.63,5.173c-0.218,1.64-0.44,3.281-0.718,4.911
	c-0.237,1.392-0.527,2.774-0.848,4.149c-0.202,0.866-0.502,1.71-0.758,2.563c-0.08-0.006-0.159-0.01-0.238-0.014
	c-0.141-0.553-0.342-1.097-0.41-1.656c-0.222-1.804-0.442-3.611-0.571-5.424c-0.112-1.58-0.116-3.167-0.139-4.753
	c-0.035-2.403-0.069-4.809-0.423-7.189c-0.146-0.983-0.383-1.963-0.69-2.908c-0.731-2.242-2.375-3.604-4.899-3.544
	c-0.865,0.02-1.733-0.11-2.601-0.156c-0.271-0.015-0.553-0.018-0.818,0.038c-1.408,0.294-2.356,1.396-2.617,3.01
	C5.634-207.983,6.389-206.421,7.563-205.688"/>
<path fill-rule="evenodd" clip-rule="evenodd" fill="#FF0000" d="M5.618-107.842c-2.767,0-4.892,0.768-6.375,2.301
	c-1.484,1.534-2.326,3.355-2.528,5.469h17.954c-0.201-2.062-1.043-3.874-2.526-5.432C10.659-107.063,8.483-107.842,5.618-107.842"/>
<path fill-rule="evenodd" clip-rule="evenodd" fill="#FF0000" d="M-27.51-117.385c-1.408-1.232-3.194-1.848-5.356-1.848h-11.315
	v13.579h11.315c2.162,0,3.948-0.616,5.356-1.848c1.408-1.234,2.112-2.904,2.112-5.018C-25.398-114.53-26.102-116.152-27.51-117.385"
	/>
<path fill-rule="evenodd" clip-rule="evenodd" fill="#FF0000" d="M-90.95-26.781h284.286v-284.286H-90.95V-26.781z M51.193-274.286
	c36.164,0,65.48,29.316,65.48,65.479s-29.316,65.479-65.48,65.479c-36.163,0-65.479-29.316-65.479-65.479
	S15.03-274.286,51.193-274.286 M-26.454-78.347l-9.882-17.879h-7.845v17.879h-10.712v-50.316h23.536
	c5.179,0,9.303,1.508,12.372,4.527c3.066,3.017,4.6,6.915,4.6,11.691c0,4.125-1.092,7.47-3.28,10.035
	c-2.188,2.564-4.79,4.198-7.808,4.902l11.39,19.161H-26.454z M23.873-93.434H-3.209c0.351,2.363,1.445,4.313,3.282,5.846
	c1.835,1.535,4.236,2.301,7.204,2.301c1.659,0,3.406-0.313,5.243-0.942c1.835-0.63,3.306-1.498,4.413-2.604l4.3,6.337
	c-3.672,3.37-8.676,5.054-15.013,5.054c-5.632,0-10.284-1.759-13.956-5.279c-3.671-3.521-5.506-8.148-5.506-13.882
	c0-5.33,1.785-9.844,5.356-13.541c3.57-3.695,8.072-5.544,13.504-5.544c5.431,0,9.83,1.849,13.2,5.544
	c3.369,3.697,5.055,8.513,5.055,14.447V-93.434z M82.618-78.347h-9.655v-23.008c0-3.873-1.811-5.808-5.432-5.808
	c-1.559,0-3.006,0.428-4.337,1.282c-1.333,0.856-2.402,1.837-3.206,2.942v24.592h-9.656v-23.008c0-3.873-1.81-5.808-5.432-5.808
	c-2.968,0-5.481,1.409-7.543,4.224v24.592h-9.58v-36.436h9.58v4.678c0.955-1.307,2.552-2.564,4.79-3.772
	c2.237-1.207,4.614-1.811,7.129-1.811c5.38,0,8.751,2.188,10.108,6.564c1.156-1.76,2.879-3.295,5.168-4.603
	c2.287-1.307,4.739-1.961,7.355-1.961c3.419,0,6.06,0.917,7.921,2.754c1.86,1.837,2.79,4.589,2.79,8.261V-78.347z M146.567-78.347
	l-8.299-12.296l-8.372,12.296h-10.637l12.975-18.707l-10.032-14.554L106.36-72.387c-1.257,3.218-3.017,5.469-5.28,6.751
	c-2.263,1.282-5.105,1.973-8.524,2.075c-1.912,0-3.47-0.203-4.678-0.603l1.358-8.526c0.906,0.404,1.912,0.605,3.018,0.605
	c2.565,0,4.249-0.88,5.054-2.64l1.358-3.169L83.88-114.783h10.261l9.504,25.346l9.58-25.346h6.789h3.47h7.242l7.542,11.165
	l7.469-11.165h10.711l-12.145,17.729l12.977,18.707H146.567z"/>
<g>
	<path d="M65.48,0C29.316,0,0,29.317,0,65.48c0,36.162,29.316,65.479,65.48,65.479c36.163,0,65.479-29.316,65.479-65.479
		C130.959,29.317,101.643,0,65.48,0z M109.506,68.361c-0.561,0.48-1.125,0.665-1.839,0.629c-1.113-0.055-2.23-0.03-3.344-0.076
		c-1.157-0.048-2.067-0.628-2.893-1.396c-1.012-0.941-1.516-2.154-1.877-3.436c-0.535-1.896-0.803-3.838-0.901-5.805
		c-0.081-1.645-0.187-3.286-0.288-4.928c-0.091-1.496-0.167-2.995-0.298-4.488c-0.097-1.104-0.273-2.2-0.416-3.299
		c-0.01-0.075-0.048-0.146-0.164-0.223c-0.197,0.973-0.423,1.942-0.583,2.92c-0.2,1.238-0.356,2.482-0.51,3.728
		c-0.168,1.374-0.324,2.749-0.465,4.125c-0.202,1.972-0.393,3.94-0.578,5.913c-0.201,2.115-0.396,4.232-0.583,6.35
		c-0.089,1.01-0.217,2.02-0.219,3.03c-0.001,1.058-0.4,2.046-0.423,3.095c-0.008,0.367-0.105,0.73-0.146,1.097
		c-0.113,0.991-0.191,1.988-0.327,2.976c-0.142,1.019-0.33,2.029-0.511,3.041c-0.204,1.137-0.372,2.285-0.645,3.405
		c-0.627,2.569-1.326,5.122-2.859,7.338c-0.769,1.11-1.735,2.009-3.038,2.445c-2.399,0.805-4.939,0.19-6.539-1.958
		c-1.014-1.363-1.662-2.9-2.072-4.535c-0.206-0.819-0.273-1.674-0.515-2.479c-0.538-1.792-0.694-3.645-0.909-5.486
		c-0.149-1.278-0.229-2.568-0.33-3.852c-0.151-1.928-0.303-3.854-0.431-5.783c-0.074-1.096-0.097-2.195-0.153-3.294
		c-0.094-1.805-0.187-3.61-0.298-5.413c-0.082-1.336-0.173-2.672-0.288-4.004c-0.127-1.441-0.28-2.883-0.432-4.322
		c-0.138-1.313-0.223-2.639-0.454-3.936c-0.325-1.83-0.763-3.64-1.159-5.457c-0.034-0.152-0.115-0.298-0.192-0.436
		c-0.078-0.139-0.181-0.264-0.273-0.396c-0.104,0.13-0.251,0.244-0.303,0.393c-0.226,0.631-0.474,1.261-0.623,1.912
		c-0.323,1.391-0.64,2.785-0.865,4.192c-0.298,1.875-0.529,3.763-0.744,5.647c-0.226,1.986-0.415,3.974-0.59,5.963
		c-0.214,2.424-0.391,4.852-0.595,7.277c-0.182,2.184-0.367,4.367-0.576,6.548c-0.153,1.586-0.309,3.173-0.533,4.749
		c-0.246,1.732-0.515,3.467-0.884,5.176c-0.391,1.813-0.872,3.609-1.682,5.295c-0.858,1.781-1.931,3.39-3.875,4.127
		c-2.373,0.901-5.095,0.348-6.817-1.723c-0.944-1.136-1.642-2.401-2.088-3.789c-0.504-1.566-0.934-3.158-1.343-4.753
		c-0.194-0.761-0.28-1.55-0.389-2.329c-0.268-1.926-0.558-3.851-0.768-5.783c-0.195-1.795-0.295-3.602-0.441-5.402
		c-0.139-1.701-0.29-3.401-0.425-5.104c-0.064-0.821-0.091-1.646-0.154-2.467c-0.14-1.816-0.291-3.631-0.44-5.444
		c-0.144-1.753-0.275-3.507-0.444-5.257c-0.097-1.006-0.252-2.008-0.393-3.012c-0.149-1.066-0.305-2.133-0.472-3.198
		c-0.049-0.314-0.146-0.62-0.313-0.939c-0.198,0.947-0.419,1.889-0.587,2.84c-0.276,1.567-0.542,3.135-0.764,4.709
		c-0.196,1.387-0.332,2.783-0.485,4.178c-0.203,1.855-0.397,3.713-0.593,5.57c-0.191,1.809-0.374,3.618-0.567,5.429
		c-0.192,1.792-0.38,3.585-0.59,5.375c-0.176,1.501-0.344,3.005-0.58,4.497c-0.349,2.205-0.729,4.406-1.151,6.598
		c-0.2,1.033-0.46,2.066-0.818,3.057c-0.556,1.537-0.995,3.137-1.961,4.5c-0.999,1.408-2.282,2.517-4.003,2.768
		c-1.663,0.24-3.342,0.016-4.8-0.978c-1.122-0.763-1.921-1.802-2.51-3.021c-0.853-1.764-1.341-3.631-1.543-5.568
		c-0.197-1.905-0.363-3.814-0.468-5.728c-0.095-1.707-0.066-3.422-0.133-5.132c-0.066-1.691-0.184-3.382-0.278-5.072
		c-0.022-0.396-0.17-0.59-0.625-0.582c-0.843,0.014-1.694,0.127-2.491-0.373c-1.176-0.732-1.929-2.295-1.699-3.713
		c0.261-1.613,1.209-2.716,2.617-3.01c0.264-0.056,0.547-0.053,0.818-0.037c0.868,0.045,1.736,0.176,2.601,0.154
		c2.524-0.059,4.168,1.303,4.899,3.545c0.307,0.945,0.544,1.926,0.69,2.908c0.354,2.38,0.388,4.786,0.422,7.189
		c0.023,1.586,0.028,3.173,0.14,4.752c0.129,1.813,0.349,3.621,0.571,5.425c0.068,0.56,0.269,1.103,0.409,1.655
		c0.08,0.004,0.159,0.009,0.238,0.014c0.257-0.852,0.556-1.696,0.759-2.563c0.32-1.375,0.611-2.758,0.848-4.148
		c0.278-1.631,0.499-3.271,0.718-4.912c0.228-1.721,0.432-3.446,0.63-5.172c0.181-1.577,0.511-3.139,0.425-4.744
		c-0.017-0.31,0.14-0.628,0.173-0.947c0.197-1.883,0.375-3.768,0.569-5.65c0.166-1.602,0.317-3.203,0.528-4.797
		c0.243-1.85,0.535-3.69,0.826-5.533c0.186-1.172,0.352-2.354,0.629-3.506c0.538-2.236,1.12-4.466,2.304-6.474
		c0.79-1.339,1.797-2.469,3.33-2.935c2.136-0.649,4.025-0.186,5.569,1.469c1.027,1.1,1.682,2.429,2.078,3.851
		c0.52,1.864,0.957,3.754,1.341,5.651c0.239,1.179,0.332,2.39,0.461,3.591c0.187,1.745,0.362,3.491,0.514,5.239
		c0.14,1.606,0.24,3.215,0.365,4.823c0.141,1.797,0.297,3.596,0.434,5.393c0.154,2.011,0.272,4.025,0.445,6.033
		c0.144,1.668,0.325,3.332,0.525,4.995c0.187,1.563,0.359,3.134,0.65,4.683c0.314,1.664,0.757,3.307,1.153,4.955
		c0.031,0.13,0.133,0.242,0.341,0.374c0.259-0.979,0.555-1.949,0.77-2.937c0.232-1.066,0.412-2.146,0.574-3.225
		c0.161-1.068,0.284-2.139,0.402-3.211c0.222-2.033,0.45-4.067,0.636-6.104c0.221-2.408,0.396-4.818,0.597-7.229
		c0.189-2.264,0.374-4.529,0.584-6.792c0.151-1.634,0.305-3.271,0.525-4.896c0.252-1.862,0.527-3.723,0.888-5.568
		c0.395-2.022,0.925-4.019,1.715-5.931c0.633-1.53,1.499-2.904,2.778-3.997c1.19-1.016,2.576-1.508,4.115-1.45
		c2.033,0.076,3.68,0.962,4.902,2.608c0.982,1.323,1.625,2.807,2.113,4.369c0.546,1.748,0.959,3.526,1.197,5.342
		c0.191,1.451,0.428,2.897,0.567,4.354c0.232,2.424,0.414,4.852,0.593,7.279c0.118,1.607,0.199,3.22,0.293,4.83
		c0.1,1.709,0.187,3.417,0.293,5.124c0.101,1.626,0.219,3.249,0.331,4.874c0.078,1.12,0.153,2.24,0.249,3.359
		c0.025,0.279,0.161,0.551,0.181,0.83c0.054,0.779,0.031,1.567,0.121,2.345c0.104,0.891,0.29,1.772,0.455,2.655
		c0.18,0.959,0.376,1.915,0.563,2.873c0.07,0.009,0.14,0.018,0.209,0.025c0.158-0.484,0.35-0.961,0.463-1.455
		c0.268-1.16,0.503-2.326,0.739-3.493c0.216-1.072,0.418-2.146,0.626-3.222c0.023-0.125,0.074-0.256,0.066-0.38
		c-0.114-1.562,0.372-3.06,0.48-4.603c0.135-1.91,0.391-3.81,0.577-5.718c0.205-2.1,0.387-4.201,0.585-6.302
		c0.189-2.006,0.374-4.01,0.582-6.012c0.17-1.632,0.346-3.266,0.572-4.89c0.226-1.623,0.488-3.241,0.792-4.85
		c0.215-1.14,0.476-2.276,0.803-3.388c0.547-1.868,1.24-3.677,2.652-5.101c0.978-0.987,2.196-1.447,3.559-1.458
		c1.05-0.008,2.042,0.282,2.98,0.793c1.485,0.807,2.376,2.083,3.019,3.593c0.817,1.922,1.228,3.939,1.428,6.004
		c0.151,1.553,0.29,3.108,0.396,4.664c0.121,1.787,0.16,3.579,0.305,5.362c0.144,1.745,0.37,3.483,0.572,5.226
		c0.057,0.488,0.251,0.612,0.715,0.529c1.864-0.34,3.067,0.229,3.772,1.783C111.229,65.365,110.772,67.277,109.506,68.361z"/>
	<path d="M207.242,63.147c2.868-3.361,4.299-7.747,4.299-13.155c0-6.259-2.012-11.37-6.03-15.325
		c-4.021-3.956-9.429-5.935-16.218-5.935H158.44V94.69h14.042V71.253h10.284l12.956,23.437h16.216l-14.931-25.116
		C200.962,68.649,204.374,66.509,207.242,63.147z M194.336,56.473c-1.846,1.615-4.187,2.421-7.021,2.421h-14.833V41.095h14.833
		c2.834,0,5.176,0.807,7.021,2.424c1.846,1.614,2.768,3.742,2.768,6.376C197.104,52.666,196.182,54.855,194.336,56.473z"/>
	<path d="M237.762,45.743c-7.121,0-13.022,2.422-17.703,7.266c-4.68,4.848-7.02,10.765-7.02,17.751
		c0,7.517,2.405,13.582,7.218,18.197c4.813,4.614,10.911,6.921,18.294,6.921c8.307,0,14.867-2.209,19.68-6.625l-5.637-8.309
		c-1.451,1.452-3.379,2.588-5.785,3.416c-2.408,0.823-4.698,1.233-6.874,1.233c-3.89,0-7.038-1.004-9.443-3.016
		c-2.408-2.011-3.841-4.565-4.302-7.663h35.5v-2.968c0-7.777-2.21-14.091-6.627-18.938
		C250.647,48.165,244.881,45.743,237.762,45.743z M226.092,66.211c0.265-2.77,1.368-5.158,3.313-7.169
		c1.945-2.01,4.731-3.016,8.358-3.016c3.756,0,6.607,1.021,8.553,3.065c1.945,2.042,3.047,4.417,3.312,7.119H226.092z"/>
	<path d="M324.658,45.743c-3.429,0-6.643,0.858-9.641,2.57c-3.001,1.713-5.261,3.726-6.775,6.032
		c-1.778-5.736-6.197-8.603-13.25-8.603c-3.297,0-6.413,0.791-9.346,2.374c-2.934,1.581-5.027,3.23-6.279,4.943v-6.132H266.81V94.69
		h12.558V62.453c2.701-3.688,5.997-5.537,9.888-5.537c4.746,0,7.119,2.537,7.119,7.614v30.16h12.659V62.453
		c1.053-1.449,2.455-2.734,4.202-3.855c1.746-1.119,3.643-1.682,5.687-1.682c4.746,0,7.12,2.537,7.12,7.614v30.16h12.656V60.18
		c0-4.814-1.221-8.421-3.657-10.827C332.603,46.942,329.141,45.743,324.658,45.743z"/>
	<path d="M419.559,70.167l15.92-23.24h-14.041l-9.79,14.637l-9.886-14.637h-9.493h-4.549h-8.899l-12.559,33.225l-12.458-33.225
		h-13.451l19.384,48.356l-1.78,4.156c-1.056,2.306-3.265,3.458-6.626,3.458c-1.449,0-2.769-0.264-3.956-0.79l-1.78,11.175
		c1.583,0.524,3.626,0.791,6.132,0.791c4.482-0.136,8.206-1.039,11.175-2.722c2.966-1.679,5.273-4.631,6.921-8.849l20.766-51.414
		l13.152,19.078L386.73,94.69h13.942l10.975-16.117l10.878,16.117h14.044L419.559,70.167z"/>
</g>
<path fill-rule="evenodd" clip-rule="evenodd" fill="#FF0000" d="M229.328,287.174c-1.014,0-1.464,0.563-1.464,1.576v19.253
	c0,0.901,0.45,1.576,1.464,1.576s1.464-0.675,1.464-1.576V288.75C230.792,287.737,230.342,287.174,229.328,287.174"/>
<path fill-rule="evenodd" clip-rule="evenodd" fill="#FF0000" d="M19.693,289.651h-1.689v19.929h1.351
	c0.901,0,1.576-0.225,1.576-1.126v-17.227C20.931,290.214,20.593,289.651,19.693,289.651"/>
<path fill-rule="evenodd" clip-rule="evenodd" fill="#FF0000" d="M280.329,306.765h1.352c0.9,0,1.576-0.226,1.576-1.126v-15.988
	h-2.928V306.765z"/>
<path fill-rule="evenodd" clip-rule="evenodd" fill="#FF0000" d="M-118.185,359.758h432.702v-99.681h-432.702V359.758z
	 M-7.889,350.903h-52.464h-5.071h-10.805c-5.405,0-7.769-3.041-7.769-7.996v-25.107c0-1.238-0.451-1.576-1.577-1.576h-1.351v34.68
	h-23.644v-81.969h42.447c5.067,0,7.77,3.04,7.77,7.318v25.671c0,4.954-2.365,7.994-7.77,7.994h-0.112v1.576h0.112
	c5.405,0,7.77,3.04,7.77,7.994v10.809h52.464V350.903z M-15.658,327.82h-34.678c-5.405,0-7.769-3.04-7.769-7.994v-50.892h23.419
	l0.225,39.069c0,1.126,0.451,1.576,1.464,1.576c0.901,0,1.463-0.45,1.463-1.576l-0.225-39.069h23.645c0,0,0.225,41.434,0.225,50.892
	C-7.889,324.78-10.253,327.82-15.658,327.82 M18.005,350.903H-5.64v-81.969h42.447c5.405,0,7.769,3.04,7.769,7.994v42.897
	c0,4.954-2.364,7.994-7.769,7.994H18.005V350.903z M97.042,350.903H73.397v-29.951h-2.928v29.951H46.828h-0.003H20.707v-20.606
	h26.118v-53.368c0-4.954,2.365-7.994,7.768-7.994H89.16c5.516,0,7.882,3.04,7.882,7.994V350.903z M149.506,350.903H133.63
	c-5.404,0-7.768-3.041-7.768-7.996v-52.129c-0.112-0.789-0.45-1.015-1.238-1.126h-1.69v61.251H99.29v-81.969h42.447
	c5.405,0,7.769,3.04,7.769,7.994V350.903z M254.436,350.903h-52.465h-5.07h-37.378c-5.403,0-7.768-3.041-7.768-7.996v-73.973h23.644
	v20.491h26.572v23.082h-26.572v16.101c0,1.126,0.338,1.576,1.126,1.576l25.446,0.112h52.465V350.903z M254.436,319.826
	c0,4.954-2.365,7.994-7.769,7.994h-34.679c-5.403,0-7.769-3.04-7.769-7.994v-42.897c0-4.954,2.366-7.994,7.769-7.994h34.679
	c5.404,0,7.769,3.04,7.769,7.994V319.826z M306.901,301.923c0,4.954-2.364,7.994-7.771,7.994h-0.112v1.576h0.112
	c5.406,0,7.771,3.04,7.771,7.994v31.415h-15.875c-5.405,0-7.77-3.041-7.77-7.996v-25.107c0-1.238-0.45-1.576-1.576-1.576h-1.351
	v34.68h-23.644v-81.969h42.446c5.068,0,7.771,3.04,7.771,7.318V301.923z"/>
<path fill-rule="evenodd" clip-rule="evenodd" fill="#FF0000" d="M-86.926,306.765h1.351c0.901,0,1.464-0.226,1.576-1.126v-15.988
	h-2.927V306.765z"/>
<path fill-rule="evenodd" clip-rule="evenodd" fill="#FF0000" d="M71.933,289.651c-1.013,0-1.464,0.676-1.464,1.576v17.114h2.928
	v-17.114C73.396,290.327,72.947,289.651,71.933,289.651"/>
<g>
	<path fill-rule="evenodd" clip-rule="evenodd" d="M582.312-241.185c-0.156-4.784-0.767-9.515-1.828-14.184
		c-2.633-11.599-7.651-22.061-15.121-31.307c-10.219-12.653-23.144-21.32-38.75-25.953c-3.873-1.15-7.819-1.968-11.83-2.443
		c-2.133-0.252-4.281-0.359-6.424-0.533c-0.203-0.017-0.403-0.05-0.604-0.075h-5.264c-0.693,0.051-1.388,0.112-2.083,0.151
		c-3.01,0.169-5.992,0.542-8.959,1.076c-7.01,1.261-13.711,3.468-20.1,6.613c-9.026,4.444-16.902,10.415-23.607,17.915
		c-8.616,9.638-14.482,20.737-17.579,33.291c-0.835,3.389-1.44,6.821-1.757,10.299c-0.143,1.553-0.227,3.112-0.342,4.668
		c-0.01,0.135-0.046,0.268-0.068,0.401v5.674c0.052,0.681,0.114,1.361,0.152,2.042c0.188,3.339,0.621,6.646,1.267,9.924
		c1.681,8.551,4.657,16.631,9.146,24.101c10.921,18.173,26.59,30.156,47.06,35.799c3.402,0.939,6.866,1.604,10.38,1.969
		c2.136,0.221,4.281,0.341,6.424,0.509c0.161,0.012,0.318,0.046,0.479,0.069h4.605c0.774-0.053,1.549-0.117,2.326-0.157
		c2.777-0.143,5.536-0.469,8.274-0.937c5.583-0.953,10.997-2.499,16.236-4.66c8.16-3.367,15.544-7.976,22.111-13.874
		c11.11-9.98,18.779-22.133,22.946-36.481c1.043-3.588,1.777-7.242,2.281-10.945C582.267-232.535,582.454-236.854,582.312-241.185z
		 M505.194-169.784c-37.86,0.012-68.639-30.761-68.639-68.628c0.001-37.894,30.813-68.727,68.641-68.687
		c37.866,0.04,68.586,30.787,68.586,68.646C573.782-200.542,543.071-169.793,505.194-169.784z"/>
	<path fill-rule="evenodd" clip-rule="evenodd" d="M543.077-242.584c-17.719-10.265-35.446-20.516-53.177-30.763
		c-0.411-0.238-0.85-0.444-1.301-0.594c-1.932-0.64-3.866-0.164-5.025,1.226c-0.753,0.901-1.056,1.975-1.056,3.124
		c0.001,3.07,0.047,6.138,0.047,9.208c-0.001,6.508-0.029,13.016-0.033,19.525c-0.006,11.003-0.004,22.006,0.005,33.009
		c0.001,0.544,0.054,1.096,0.15,1.632c0.394,2.195,2.075,3.668,4.295,3.671c1.006-0.018,2.046-0.398,3.033-0.969
		c4.832-2.793,9.668-5.579,14.501-8.372c12.874-7.44,25.749-14.879,38.613-22.335c0.666-0.387,1.31-0.867,1.847-1.418
		c1.665-1.704,1.636-3.916-0.063-5.577C544.371-241.747,543.734-242.204,543.077-242.584z M491.413-214.304v-48.246
		c13.908,8.04,27.787,16.064,41.715,24.115C519.204-230.381,505.331-222.355,491.413-214.304z"/>
</g>
<g>
	<path fill-rule="evenodd" clip-rule="evenodd" d="M369.859-260.607c-1.646-8.159-8.265-13.471-16.81-13.486
		c-12.354-0.023-24.712-0.04-37.066,0.03c-1.852,0.011-3.78,0.268-5.538,0.83c-7.245,2.317-11.566,8.485-11.579,16.327
		c-0.019,12.317-0.014,24.635,0.01,36.952c0.002,1.222,0.096,2.464,0.331,3.66c1.589,8.075,8.236,13.503,16.53,13.528
		c6.254,0.019,12.508,0.004,18.764,0.004c6.216,0,12.435,0.062,18.649-0.038c1.852-0.03,3.781-0.26,5.533-0.831
		c7.267-2.37,11.504-8.457,11.519-16.365c0.026-12.279,0.018-24.558-0.006-36.838C370.193-258.093,370.107-259.375,369.859-260.607z
		 M356.636-213.021c-1.145,0.509-2.515,0.69-3.784,0.705c-6.101,0.069-12.2,0.031-18.301,0.031c-6.139,0-12.275,0.011-18.415-0.004
		c-3.977-0.009-6.586-1.854-7.479-5.318c-0.208-0.805-0.261-1.668-0.261-2.504c-0.016-12.2-0.02-24.4-0.008-36.6
		c0.006-4.075,1.832-6.68,5.336-7.591c0.804-0.209,1.666-0.262,2.502-0.263c12.199-0.017,24.398-0.02,36.599-0.007
		c4.062,0.005,6.718,1.862,7.595,5.331c0.224,0.88,0.276,1.821,0.278,2.735c0.016,12.046,0.001,24.092,0.017,36.138
		C360.718-217.138,359.763-214.414,356.636-213.021z"/>
	<path fill-rule="evenodd" clip-rule="evenodd" d="M411.673-241.185c-0.156-4.784-0.769-9.514-1.829-14.183
		c-2.632-11.599-7.651-22.061-15.121-31.308c-10.219-12.653-23.145-21.32-38.751-25.953c-3.871-1.149-7.818-1.967-11.828-2.442
		c-2.133-0.253-4.282-0.359-6.424-0.534c-0.202-0.016-0.403-0.049-0.605-0.074h-5.263c-0.694,0.051-1.389,0.112-2.083,0.15
		c-3.01,0.169-5.993,0.542-8.958,1.076c-7.013,1.262-13.712,3.469-20.101,6.614c-9.027,4.443-16.903,10.414-23.609,17.914
		c-8.616,9.638-14.483,20.738-17.578,33.292c-0.836,3.388-1.44,6.821-1.757,10.298c-0.142,1.554-0.228,3.113-0.343,4.669
		c-0.01,0.134-0.045,0.267-0.068,0.401v5.673c0.053,0.681,0.115,1.361,0.153,2.043c0.187,3.338,0.62,6.646,1.265,9.924
		c1.681,8.551,4.659,16.63,9.148,24.101c10.92,18.173,26.59,30.156,47.059,35.799c3.402,0.938,6.866,1.604,10.38,1.968
		c2.135,0.222,4.282,0.341,6.424,0.509c0.16,0.013,0.32,0.047,0.479,0.07h4.605c0.775-0.053,1.55-0.118,2.326-0.158
		c2.776-0.142,5.536-0.468,8.274-0.936c5.582-0.953,10.998-2.5,16.234-4.66c8.161-3.367,15.545-7.976,22.114-13.875
		c11.108-9.979,18.778-22.132,22.946-36.48c1.042-3.589,1.777-7.242,2.281-10.946C411.628-232.534,411.814-236.853,411.673-241.185z
		 M334.556-169.783c-37.86,0.011-68.639-30.762-68.639-68.629c0-37.893,30.813-68.726,68.64-68.686
		c37.866,0.04,68.587,30.786,68.587,68.646C403.144-200.542,372.433-169.794,334.556-169.783z"/>
</g>
<g>
	<path fill-rule="evenodd" clip-rule="evenodd" d="M752.862-243.144c-0.289-2.664-0.508-5.339-0.916-7.985
		c-0.903-5.872-2.582-11.535-4.887-17.009c-4.473-10.622-10.982-19.809-19.53-27.538c-9.351-8.457-20.134-14.294-32.327-17.51
		c-3.61-0.953-7.275-1.65-10.996-2.003c-1.935-0.184-3.876-0.282-5.814-0.422c-0.201-0.015-0.402-0.048-0.603-0.073h-4.029
		c-0.201,0.025-0.401,0.066-0.603,0.073c-7.083,0.222-14,1.417-20.739,3.592c-12.757,4.117-23.72,11.088-32.871,20.863
		c-9.21,9.837-15.437,21.323-18.692,34.405c-0.829,3.332-1.458,6.707-1.75,10.131c-0.209,2.454-0.302,4.917-0.45,7.376
		c-0.009,0.146-0.031,0.294-0.049,0.441v0.74c0.023,0.407,0.06,0.814,0.068,1.222c0.297,13.745,3.918,26.558,11.117,38.262
		c10.875,17.679,26.37,29.313,46.401,34.849c3.485,0.963,7.034,1.61,10.622,2.031c4.104,0.482,8.219,0.635,12.349,0.447
		c15.102-0.687,28.863-5.359,41.156-14.138c14.631-10.446,24.519-24.345,29.659-41.591c1.154-3.872,1.967-7.821,2.439-11.831
		c0.254-2.173,0.358-4.364,0.534-6.547c0.017-0.189,0.049-0.377,0.072-0.566v-4.933
		C752.973-241.621,752.944-242.385,752.862-243.144z M676.597-169.765c-37.939,0.383-68.551-29.864-69.352-67.07
		c-0.831-38.766,30.245-69.933,67.873-70.23c37.854-0.41,68.937,30.031,69.316,67.932
		C744.816-201.203,714.432-170.147,676.597-169.765z"/>
	<path fill-rule="evenodd" clip-rule="evenodd" d="M711.459-273.612c-0.009-0.571-0.048-1.157-0.186-1.708
		c-0.616-2.482-2.8-3.756-5.434-3.254c-6.322,1.205-12.647,2.394-18.971,3.585c-5.022,0.946-10.046,1.884-15.067,2.829
		c-4.472,0.841-8.943,1.685-13.415,2.53c-1.084,0.205-2.138,0.479-2.955,1.298c-0.928,0.931-1.36,2.085-1.392,3.368
		c-0.045,1.767-0.023,3.535-0.025,5.303c-0.004,10.771-0.008,21.541-0.012,32.312v0.547c-0.327-0.184-0.564-0.313-0.797-0.45
		c-2.971-1.74-6.167-2.427-9.581-1.99c-3.909,0.499-7.182,2.239-9.763,5.217c-3.125,3.605-4.394,7.79-3.737,12.525
		c0.44,3.186,1.806,5.946,4,8.293c3.697,3.957,8.28,5.548,13.613,4.903c3.419-0.414,6.291-2.07,8.771-4.396
		c3.048-2.86,4.479-6.475,4.568-10.599c0.092-4.328,0.057-8.66,0.061-12.989c0.008-6.605,0.004-13.21,0.002-19.815
		c-0.002-5.454-0.006-10.908-0.011-16.362c0-0.229-0.048-0.452,0.298-0.514c1.923-0.347,3.843-0.712,5.763-1.074
		c3.706-0.698,7.412-1.397,11.118-2.097c3.84-0.725,7.681-1.449,11.521-2.174c4.015-0.757,8.028-1.515,12.044-2.271
		c0.813-0.153,1.628-0.301,2.465-0.457v36.136c-0.345-0.189-0.652-0.357-0.959-0.525c-3.52-1.926-7.225-2.504-11.144-1.545
		c-7.818,1.915-12.956,9.416-11.792,17.286c0.638,4.3,2.668,7.818,6.19,10.401c3.402,2.496,7.223,3.54,11.42,2.946
		c3.171-0.448,5.964-1.786,8.312-3.973c3.128-2.912,4.841-6.517,5.043-10.791c0.086-1.819,0.041-3.645,0.041-5.467
		c0.003-14.333,0-28.666,0.003-43C711.453-270.927,711.479-272.27,711.459-273.612z M645.448-205.216
		c-4.726-0.06-8.5-3.916-8.444-8.626c0.055-4.735,3.92-8.534,8.607-8.462c4.732,0.073,8.521,3.888,8.462,8.521
		C654.012-208.915,650.225-205.155,645.448-205.216z M695.847-213.262c-4.66,0.016-8.513-3.84-8.519-8.525
		c-0.006-4.739,3.781-8.56,8.497-8.575c4.759-0.015,8.558,3.765,8.576,8.532C704.422-217.098,700.605-213.277,695.847-213.262z"/>
</g>
<rect x="-169.905" y="-367.164" fill="none" width="979.166" height="853.228"/>
</svg>
