<?xml version="1.0" standalone="no"?>
<!DOCTYPE svg PUBLIC "-//W3C//DTD SVG 1.1//EN" "http://www.w3.org/Graphics/SVG/1.1/DTD/svg11.dtd" >
<svg xmlns="http://www.w3.org/2000/svg" xmlns:xlink="http://www.w3.org/1999/xlink" version="1.1">
<metadata>
Created by FontForge 20161003 at Fri Aug 31 12:00:01 2018
 By www-data
Copyright 2010 by (URW)++ Design &#38; Development GmbH
</metadata>
<defs>
<font id="FuturaBoo" horiz-adv-x="513" >
  <font-face 
    font-family="FuturaBoo"
    font-weight="400"
    font-stretch="normal"
    units-per-em="1000"
    panose-1="0 0 5 0 0 0 0 0 0 0"
    ascent="729"
    descent="-271"
    x-height="415"
    cap-height="667"
    bbox="-149 -250 1122 1021"
    underline-thickness="69"
    underline-position="-167"
    unicode-range="U+000D-FB04"
  />
<missing-glyph horiz-adv-x="250" 
 />
    <glyph glyph-name="ff" unicode="ff" horiz-adv-x="481" 
d="M141 0h-71v349h-39v66h39v177q0 74 24 105q35 44 99 44q14 0 25 -2t28 -7v-72q-17 6 -27 8t-21 2q-34 0 -45.5 -19.5t-11.5 -75.5v-160h91v-66h-91v-349zM381 0h-71v349h-40v66h40v177q0 74 24 105q35 44 99 44q14 0 24.5 -2t27.5 -7v-72q-16 6 -26 8t-21 2
q-34 0 -45.5 -19.5t-11.5 -75.5v-160h104v-66h-104v-349z" />
    <glyph glyph-name="fi" unicode="fi" horiz-adv-x="445" 
d="M141 0h-71v349h-39v66h39v177q0 74 24 105q33 44 100 44q14 0 24.5 -2t27.5 -7v-72q-16 6 -26 8t-22 2q-34 0 -45.5 -19.5t-11.5 -75.5v-160h105v-66h-105v-349zM381 0h-71v415h71v-415zM345 623q21 0 36 -15t15 -36t-15 -36t-36 -15t-36 15t-15 37q0 20 15 35t36 15z
" />
    <glyph glyph-name="fl" unicode="fl" horiz-adv-x="443" 
d="M141 0h-71v349h-39v66h39v177q0 74 24 105q33 44 100 44q14 0 24.5 -2t27.5 -7v-72q-16 6 -26 8t-22 2q-34 0 -45.5 -19.5t-11.5 -75.5v-160h105v-66h-105v-349zM381 0h-71v729h71v-729z" />
    <glyph glyph-name="ffi" unicode="ffi" horiz-adv-x="684" 
d="M141 0h-71v349h-39v66h39v177q0 74 24 105q35 44 99 44q14 0 25 -2t28 -7v-72q-17 6 -27 8t-21 2q-34 0 -45.5 -19.5t-11.5 -75.5v-160h91v-66h-91v-349zM381 0h-71v349h-40v66h40v177q0 74 24 105q35 44 99 44q14 0 24.5 -2t27.5 -7v-72q-16 6 -26 8t-21 2
q-34 0 -45.5 -19.5t-11.5 -75.5v-160h104v-66h-104v-349zM620 0h-71v415h71v-415zM585 623q21 0 36 -15t15 -36t-15 -36t-36 -15t-36 15t-15 37q0 20 15 35t36 15z" />
    <glyph glyph-name=".notdef" horiz-adv-x="250" 
 />
    <glyph glyph-name=".null" horiz-adv-x="0" 
 />
    <glyph glyph-name=".null" horiz-adv-x="0" 
 />
    <glyph glyph-name="nonmarkingreturn" unicode="&#xd;" horiz-adv-x="250" 
 />
    <glyph glyph-name="space" unicode=" " horiz-adv-x="250" 
 />
    <glyph glyph-name="exclam" unicode="!" horiz-adv-x="279" 
d="M140 89q20 0 34.5 -14.5t14.5 -34.5q0 -21 -14.5 -35.5t-34.5 -14.5q-21 0 -35.5 14.5t-14.5 35.5q0 20 15 34.5t35 14.5zM103 667h73v-532h-73v532z" />
    <glyph glyph-name="quotedbl" unicode="&#x22;" horiz-adv-x="305" 
d="M54 399l-13 268h81l-14 -268h-54zM197 399l-13 268h80l-13 -268h-54z" />
    <glyph glyph-name="numbersign" unicode="#" horiz-adv-x="576" 
d="M547 411h-110l-18 -139h103v-60h-110l-27 -215l-62 9l25 206h-141l-27 -215l-62 9l25 206h-106v60h114l17 139h-106v60h114l24 201l63 -8l-24 -193h141l25 201l62 -8l-24 -193h104v-60zM232 411l-17 -139h140l17 139h-140z" />
    <glyph glyph-name="dollar" unicode="$" horiz-adv-x="553" 
d="M320 672q44 -5 81 -32t59 -69l-59 -38q-19 32 -37 47.5t-44 21.5v-219q32 -14 50.5 -24t38.5 -23q36 -24 55.5 -60t19.5 -81q0 -75 -44.5 -128.5t-119.5 -70.5v-97h-59v93q-36 1 -67.5 14t-57 35.5t-42.5 53.5t-24 67l71 20q9 -52 41 -84t79 -36v269q-85 35 -121 75
t-36 98q0 66 42.5 112t114.5 57v90h59v-91zM320 67q42 17 65.5 49t23.5 75q0 38 -20.5 64t-68.5 49v-237zM261 603q-38 -10 -60 -36.5t-22 -63.5q0 -29 19.5 -51.5t62.5 -42.5v194z" />
    <glyph glyph-name="percent" unicode="%" horiz-adv-x="705" 
d="M176 674q31 0 58 -11.5t47.5 -31t32 -46.5t11.5 -57t-11.5 -56.5t-32 -46t-47.5 -31t-59 -11.5q-31 0 -57.5 11.5t-46.5 31.5t-31.5 47t-11.5 58q0 29 12 55t32 45.5t47 31t57 11.5zM176 619q-37 0 -63 -26t-26 -63q0 -38 26 -64.5t64 -26.5q37 0 63 26t26 64t-26 64
t-64 26zM565 658l-388 -671l-38 23l388 670zM528 284q31 0 58 -11.5t47.5 -31t32 -46.5t11.5 -57t-11.5 -56.5t-32 -46t-47.5 -31t-59 -11.5q-31 0 -57.5 11.5t-46.5 31.5t-31.5 47t-11.5 58q0 29 11.5 55t32 45.5t47.5 31t57 11.5zM528 229q-36 0 -62.5 -26t-26.5 -63
q0 -38 26 -64.5t64 -26.5q37 0 63 26t26 64t-26 64t-64 26z" />
    <glyph glyph-name="ampersand" unicode="&#x26;" horiz-adv-x="612" 
d="M456 201q17 17 38 42t38 46l53 -45q-14 -20 -38 -48t-47 -51l114 -145h-93l-73 93q-61 -56 -111.5 -81t-102.5 -25q-40 0 -75.5 14.5t-61.5 39.5t-41 59t-15 73q0 92 90 164q14 11 29.5 22.5t52.5 34.5q-19 26 -32 45.5t-21 36t-11 31t-3 30.5q0 30 11 56t30.5 45
t46.5 29.5t58 10.5q30 0 56 -10t45 -28t30 -42.5t11 -53.5q0 -58 -51 -109q-11 -11 -25 -22.5t-42 -32.5zM247 333q-23 -16 -36 -24.5t-21.5 -14.5t-14 -11t-14.5 -13q-47 -42 -47 -94q0 -24 9.5 -46t26 -38.5t38 -26.5t45.5 -10q36 0 76.5 22t94.5 71l-148 192zM273 434
q30 22 48 36.5t27 26.5t12 22.5t3 25.5q0 30 -20.5 49.5t-52.5 19.5q-31 0 -52 -21t-21 -52t26 -66q10 -13 15 -20.5t8 -11t4.5 -5.5t2.5 -4z" />
    <glyph glyph-name="quotesingle" unicode="'" horiz-adv-x="163" 
d="M54 399l-13 268h81l-14 -268h-54z" />
    <glyph glyph-name="parenleft" unicode="(" horiz-adv-x="294" 
d="M230 704q-38 -98 -56.5 -202.5t-18.5 -224.5t18.5 -224.5t56.5 -203.5l-64 -29q-19 41 -34.5 93.5t-26 112t-16.5 123.5t-6 128t6 128t16.5 123t26 111.5t34.5 93.5z" />
    <glyph glyph-name="parenright" unicode=")" horiz-adv-x="294" 
d="M63 -151q38 99 56.5 203t18.5 225q0 120 -18.5 224t-56.5 203l63 29q20 -41 35.5 -93.5t26 -111.5t16.5 -123t6 -128t-6 -128t-16.5 -123.5t-26 -112t-35.5 -93.5z" />
    <glyph glyph-name="asterisk" unicode="*" horiz-adv-x="543" 
d="M238 729h67l-5 -124l116 43l21 -63l-120 -34l77 -97l-54 -40l-69 104l-68 -104l-54 40l77 97l-120 34l21 63l116 -43z" />
    <glyph glyph-name="plus" unicode="+" horiz-adv-x="556" 
d="M43 371h205v201h61v-201h205v-61h-205v-202h-61v202h-205v61z" />
    <glyph glyph-name="comma" unicode="," horiz-adv-x="227" 
d="M172 74l-100 -226l-48 19l83 231z" />
    <glyph glyph-name="hyphen" unicode="-" horiz-adv-x="181" 
d="M181 245v-64h-181v64h181z" />
    <glyph glyph-name="period" unicode="." horiz-adv-x="227" 
d="M113 89q21 0 35.5 -14.5t14.5 -34.5q0 -21 -14.5 -35.5t-34.5 -14.5q-21 0 -35.5 14.5t-14.5 35.5q0 20 14.5 34.5t34.5 14.5z" />
    <glyph glyph-name="slash" unicode="/" horiz-adv-x="485" 
d="M480 707l-436 -887l-58 27l436 886z" />
    <glyph glyph-name="zero" unicode="0" horiz-adv-x="553" 
d="M277 677q51 0 94.5 -26t75.5 -72t50 -108.5t18 -135.5q0 -144 -66 -244q-32 -47 -78 -74.5t-94 -27.5q-50 0 -97 28.5t-79 78.5q-63 96 -63 240q0 72 18.5 134t51 108t76 72.5t93.5 26.5zM276 609q-35 0 -65 -21t-52.5 -58t-35 -87t-12.5 -108q0 -60 12.5 -111
t34.5 -87.5t52.5 -57.5t66.5 -21q35 0 65 21.5t52 58.5t35 87.5t13 107.5q0 59 -12.5 109.5t-35 87.5t-53 58t-65.5 21z" />
    <glyph glyph-name="one" unicode="1" horiz-adv-x="553" 
d="M148 598l39 69h146v-667h-75v598h-110z" />
    <glyph glyph-name="two" unicode="2" horiz-adv-x="553" 
d="M474 69v-69h-430l242 281q33 39 55.5 67.5t36 52t19 42.5t5.5 38q0 27 -10.5 50.5t-28.5 40.5t-42.5 27t-52.5 10q-35 0 -64.5 -15.5t-46.5 -42.5q-10 -15 -15 -32t-7 -47h-75q5 43 11.5 67.5t22.5 47.5q28 42 73.5 66t99.5 24q44 0 82 -15.5t66 -42t44 -62.5t16 -78
q0 -27 -6 -51.5t-22 -52.5t-44 -63.5t-72 -86.5l-136 -156h279z" />
    <glyph glyph-name="three" unicode="3" horiz-adv-x="553" 
d="M247 382q30 1 46.5 4.5t32.5 12.5q24 14 38.5 39.5t14.5 57.5q0 50 -32 81.5t-82 31.5q-29 0 -53.5 -11.5t-38.5 -31.5q-8 -11 -12 -24.5t-9 -39.5h-73q5 36 11.5 57t19.5 41q23 37 63 57t91 20q41 0 75.5 -13.5t59.5 -37.5t39 -56.5t14 -71.5q0 -49 -21.5 -87t-63.5 -61
q45 -21 70 -63.5t25 -97.5q0 -43 -15.5 -79.5t-43 -63.5t-65.5 -42t-83 -15q-56 0 -102.5 25t-70.5 69q-11 20 -16.5 39t-7.5 51h72q4 -25 8.5 -38.5t14.5 -26.5q17 -23 46 -36.5t59 -13.5q28 0 52 10.5t41.5 28.5t27.5 42.5t10 52.5q0 38 -18 67.5t-48 43.5
q-16 8 -31.5 10.5t-44.5 3.5v65z" />
    <glyph glyph-name="four" unicode="4" horiz-adv-x="553" 
d="M511 176v-67h-82v-109h-74v109h-342l416 594v-527h82zM355 477l-212 -301h212v301z" />
    <glyph glyph-name="five" unicode="5" horiz-adv-x="553" 
d="M258 598l-44 -143q12 2 19.5 3t17.5 1q49 0 90 -17.5t71 -48t47 -73t17 -92.5q0 -51 -18.5 -95t-51.5 -76t-77.5 -50t-97.5 -18q-130 0 -204 119l59 42q30 -48 66.5 -70t84.5 -22q35 0 65 13t52.5 36t35.5 53.5t13 66.5q0 35 -12.5 65.5t-35 53t-52.5 35t-65 12.5
q-32 0 -60 -9.5t-69 -35.5l97 319h265v-69h-213z" />
    <glyph glyph-name="six" unicode="6" horiz-adv-x="553" 
d="M385 642l-154 -214q20 6 32.5 8t29.5 2q44 0 83 -17t68 -47t45.5 -70t16.5 -86q0 -47 -18 -89t-49 -73t-73 -49t-89 -18t-89 18t-73.5 48.5t-49.5 71.5t-18 87q0 79 55 154l227 316zM277 372q-33 0 -61.5 -12.5t-49.5 -33.5t-33.5 -49.5t-12.5 -61.5t12.5 -61.5
t33.5 -49.5t49.5 -33.5t61.5 -12.5q32 0 60.5 12.5t49.5 33.5t33.5 49.5t12.5 59.5q0 33 -12 62t-33 50.5t-49.5 34t-61.5 12.5z" />
    <glyph glyph-name="seven" unicode="7" horiz-adv-x="553" 
d="M67 598v69h491l-447 -683l-58 39l378 575h-364z" />
    <glyph glyph-name="eight" unicode="8" horiz-adv-x="553" 
d="M178 347q-39 23 -60.5 61.5t-21.5 85.5q0 39 14.5 72.5t39.5 58t59 38.5t74 14t74.5 -14t59.5 -38.5t39 -58t14 -72.5q0 -45 -23 -85t-61 -62q46 -23 71.5 -65t25.5 -96q0 -42 -15 -78.5t-42 -62.5t-63.5 -41t-79.5 -15q-44 0 -81.5 14.5t-64.5 41t-42.5 62t-15.5 77.5
q0 112 99 163zM283 609q-24 0 -45 -9t-36.5 -24.5t-25 -36.5t-9.5 -44q0 -25 9 -46.5t24.5 -37.5t37 -25t45.5 -9t45 9t37 25t25 37t9 45t-9 45t-25 37t-37 25t-45 9zM281 314q-27 0 -50.5 -10t-41 -27t-27.5 -40t-10 -49q0 -27 10 -51t27.5 -41.5t41 -27.5t50.5 -10
t50.5 10t41 27.5t27.5 40.5t10 50t-10 50t-27.5 40.5t-41 27.5t-50.5 10z" />
    <glyph glyph-name="nine" unicode="9" horiz-adv-x="553" 
d="M169 25l153 214q-19 -5 -31.5 -7t-29.5 -2q-45 0 -84 17t-68 46.5t-45.5 69.5t-16.5 86q0 47 18 88.5t49 72.5t73 49t89 18q48 0 90 -17.5t73.5 -48t49.5 -71.5t18 -87q0 -76 -55 -154l-228 -315zM277 609q-32 0 -60.5 -12.5t-50 -33.5t-34 -49t-12.5 -60q0 -33 12 -62
t33.5 -50t50 -33.5t61.5 -12.5t61.5 12.5t49.5 33.5t33.5 49.5t12.5 61.5q0 32 -12.5 60.5t-33.5 49.5t-49.5 33.5t-61.5 12.5z" />
    <glyph glyph-name="colon" unicode=":" horiz-adv-x="227" 
d="M113 89q21 0 35.5 -14.5t14.5 -34.5q0 -21 -14.5 -35.5t-34.5 -14.5q-21 0 -35.5 14.5t-14.5 35.5q0 20 14.5 34.5t34.5 14.5zM113 424q21 0 35.5 -14.5t14.5 -34.5t-14.5 -34.5t-34.5 -14.5q-21 0 -35.5 14.5t-14.5 35.5q0 20 14.5 34t34.5 14z" />
    <glyph glyph-name="semicolon" unicode=";" horiz-adv-x="227" 
d="M172 74l-100 -226l-48 19l83 231zM130 424q20 0 34.5 -14.5t14.5 -34.5t-14.5 -34.5t-34.5 -14.5q-21 0 -35.5 14.5t-14.5 35.5q0 20 15 34t35 14z" />
    <glyph glyph-name="less" unicode="&#x3c;" horiz-adv-x="500" 
d="M466 498l-353 -161l353 -162v-74l-433 203v65l433 204v-75z" />
    <glyph glyph-name="equal" unicode="=" horiz-adv-x="556" 
d="M43 431h471v-58h-471v58zM43 307h471v-58h-471v58z" />
    <glyph glyph-name="greater" unicode="&#x3e;" horiz-adv-x="500" 
d="M34 175l353 162l-353 161v75l433 -204v-65l-433 -203v74z" />
    <glyph glyph-name="question" unicode="?" horiz-adv-x="436" 
d="M361 286q-1 -29 -5 -47t-14 -36q-19 -32 -52 -51t-73 -19q-30 0 -56.5 11t-45.5 30.5t-30 45.5t-11 57q0 51 29 83t92 52l37.5 12.5t21.5 8t13 6.5t11 8q29 23 29 67q0 41 -25.5 66.5t-65.5 25.5q-38 0 -63 -24.5t-25 -62.5q0 -9 1 -17.5t5 -24.5h-73q-2 17 -3 26t-1 20
q0 32 12 60t34 48.5t51.5 32t63.5 11.5q35 0 64.5 -12t51.5 -33.5t34 -50.5t12 -64q0 -40 -17 -74.5t-46 -54.5q-9 -6 -16.5 -10.5t-18.5 -8.5t-27 -9t-41 -13q-68 -19 -68 -73q0 -30 20.5 -51t50.5 -21q20 0 37 10t25 27q5 10 7 20t3 29h72zM219 89q20 0 34.5 -14.5
t14.5 -34.5q0 -21 -14.5 -35.5t-34.5 -14.5q-21 0 -35.5 14.5t-14.5 35.5q0 20 15 34.5t35 14.5z" />
    <glyph glyph-name="at" unicode="@" horiz-adv-x="698" 
d="M505 281q-2 -12 -2.5 -21.5t-0.5 -23.5q0 -32 27 -32q17 0 33.5 14.5t29.5 38.5t20.5 54.5t7.5 63.5q0 54 -19 98.5t-53.5 77t-81.5 50.5t-104 18q-60 0 -111.5 -22t-89.5 -60.5t-59.5 -90.5t-21.5 -112q0 -79 36.5 -144.5t101.5 -103.5q66 -37 158 -37q55 0 101 10.5
t97 35.5q5 2 8 3t13 6l21 -58q-64 -31 -118.5 -44.5t-120.5 -13.5q-113 0 -195 47q-78 45 -122.5 125t-44.5 174q0 73 27 136t73.5 109.5t110.5 73t137 26.5q68 0 126 -22.5t100.5 -62.5t66.5 -94.5t24 -118.5q0 -48 -13 -91.5t-35 -76.5t-51 -52.5t-62 -19.5q-53 0 -72 58
q-31 -33 -58 -46.5t-65 -13.5q-36 0 -67 13.5t-53.5 38t-35 57.5t-12.5 72q0 42 14 78t39 62t59.5 41t74.5 15q38 0 66 -13.5t52 -42.5l5 48h66zM349 451q-25 0 -46.5 -10t-37 -28t-24.5 -42t-9 -53q0 -50 27 -82t69 -32q24 0 45.5 11.5t38 31t26 45.5t9.5 54q0 47 -27.5 76
t-70.5 29z" />
    <glyph glyph-name="A" unicode="A" horiz-adv-x="607" 
d="M161 189l-80 -189h-81l307 699l300 -699h-82l-79 189h-285zM306 525l-114 -267h225z" />
    <glyph glyph-name="B" unicode="B" horiz-adv-x="516" 
d="M80 667h121q54 0 89 -9.5t62 -31.5q29 -24 45.5 -61t16.5 -78q0 -44 -15 -72.5t-51 -57.5q24 -8 39.5 -15.5t29.5 -20.5q26 -23 41.5 -59.5t15.5 -74.5q0 -87 -68 -141q-31 -26 -66.5 -36t-92.5 -10h-167v667zM211 373q38 0 58 5.5t37 20.5q35 32 35 86q0 56 -35 88
q-16 14 -37.5 19.5t-55.5 5.5h-58v-225h56zM240 69q45 0 70 6.5t46 23.5q43 34 43 90q0 32 -15 59t-40 41q-20 12 -45.5 16.5t-68.5 4.5h-75v-241h85z" />
    <glyph glyph-name="C" unicode="C" horiz-adv-x="631" 
d="M588 520q-49 46 -97 67t-105 21q-55 0 -104 -22t-85.5 -59.5t-58 -88.5t-21.5 -108q0 -56 21.5 -105.5t58 -86.5t86 -58.5t104.5 -21.5q56 0 104.5 21t96.5 66v-92q-49 -34 -97.5 -49.5t-103.5 -15.5q-71 0 -133.5 27t-109.5 74t-74.5 109.5t-27.5 132.5q0 72 27.5 135
t75 110t111 74.5t135.5 27.5q56 0 101 -15.5t96 -50.5v-92z" />
    <glyph glyph-name="D" unicode="D" horiz-adv-x="619" 
d="M80 667h137q81 0 139 -18t106 -59q57 -47 86 -112.5t29 -143.5q0 -79 -29.5 -144t-87.5 -113q-50 -42 -106.5 -59.5t-137.5 -17.5h-136v667zM220 69q62 0 107.5 14.5t83.5 46.5q45 37 68 89.5t23 113.5q0 62 -23.5 115t-66.5 89q-38 32 -84 46.5t-108 14.5h-65v-529h65z
" />
    <glyph glyph-name="E" unicode="E" horiz-adv-x="469" 
d="M155 598v-199h263v-69h-263v-261h270v-69h-345v667h345v-69h-270z" />
    <glyph glyph-name="F" unicode="F" horiz-adv-x="420" 
d="M155 598v-199h221v-69h-221v-330h-75v667h303v-69h-228z" />
    <glyph glyph-name="G" unicode="G" horiz-adv-x="742" 
d="M700 335v-17q0 -56 -8 -95.5t-27 -73.5q-20 -37 -50 -66.5t-67 -50.5t-78.5 -32.5t-85.5 -11.5q-70 0 -132.5 27.5t-109 74t-73.5 109.5t-27 133q0 72 27.5 135t74.5 110t110.5 74t135.5 27q57 0 109 -17.5t95 -50.5q20 -14 36.5 -31t40.5 -46l-55 -50q-50 66 -103 95.5
t-122 29.5q-57 0 -107 -22t-87 -59.5t-58.5 -88t-21.5 -107.5q0 -55 21.5 -105t58 -87t85.5 -59t103 -22q31 0 61.5 8.5t58 23.5t50.5 36t38 46q13 20 19 41.5t8 52.5h-198v69h278z" />
    <glyph glyph-name="H" unicode="H" horiz-adv-x="650" 
d="M495 395v272h75v-667h-75v326h-340v-326h-75v667h75v-272h340z" />
    <glyph glyph-name="I" unicode="I" horiz-adv-x="235" 
d="M155 0h-75v667h75v-667z" />
    <glyph glyph-name="J" unicode="J" horiz-adv-x="294" 
d="M214 128q0 -62 -10.5 -96.5t-36.5 -60.5q-20 -19 -45.5 -29.5t-54.5 -10.5q-32 0 -60.5 11.5t-59.5 37.5l41 58q25 -22 41 -29.5t36 -7.5q39 0 56.5 30.5t17.5 96.5v539h75v-539z" />
    <glyph glyph-name="K" unicode="K" horiz-adv-x="555" 
d="M439 667h100l-313 -311l323 -356h-102l-273 306l-19 -19v-287h-75v667h75v-286z" />
    <glyph glyph-name="L" unicode="L" horiz-adv-x="345" 
d="M155 69h183v-69h-258v667h75v-598z" />
    <glyph glyph-name="M" unicode="M" horiz-adv-x="849" 
d="M167 704l256 -563l262 564l103 -705h-76l-62 464l-227 -492l-224 492l-66 -464h-76z" />
    <glyph glyph-name="N" unicode="N" horiz-adv-x="754" 
d="M80 695l519 -545v517h75v-697l-519 544v-514h-75v695z" />
    <glyph glyph-name="O" unicode="O" horiz-adv-x="778" 
d="M390 678q71 0 134 -27.5t110 -74.5t74.5 -109.5t27.5 -133.5q0 -72 -27.5 -134.5t-75 -109.5t-111.5 -74t-136 -27t-140 31t-118 86q-42 48 -64 106t-22 126q0 69 28 131t75.5 108.5t111 74t133.5 27.5zM389 608q-56 0 -105.5 -21.5t-86.5 -58.5t-58.5 -86t-21.5 -105
q0 -123 85 -203q38 -36 86.5 -56t98.5 -20q57 0 107 21.5t87 58.5t58.5 87.5t21.5 107.5t-21.5 107t-58 87.5t-86 59t-106.5 21.5z" />
    <glyph glyph-name="P" unicode="P" horiz-adv-x="444" 
d="M155 0h-75v667h121q62 0 100.5 -10.5t67.5 -36.5q29 -25 45.5 -61.5t16.5 -78.5q0 -88 -56 -138t-155 -50h-65v-292zM215 360q69 0 106 31.5t37 88.5q0 27 -9.5 50t-27.5 38q-19 16 -44.5 23t-66.5 7h-55v-238h60z" />
    <glyph glyph-name="Q" unicode="Q" horiz-adv-x="779" 
d="M645 -7l-56 60q-91 -65 -202 -65q-71 0 -134 27t-110 73.5t-74 109t-27 133.5q0 72 27.5 135t74.5 110t110 74.5t135 27.5t135 -27.5t110 -74.5t74.5 -111t27.5 -136q0 -68 -22 -122t-74 -112l100 -102h-95zM588 148q39 44 56 86t17 97q0 58 -21 108.5t-58 88t-86.5 59
t-106.5 21.5t-107 -21.5t-86.5 -59t-57.5 -88t-21 -108.5q0 -119 83 -197q39 -36 87.5 -56t98.5 -20q84 0 151 48l-161 162h97z" />
    <glyph glyph-name="R" unicode="R" horiz-adv-x="489" 
d="M466 0h-91l-201 292h-19v-292h-75v667h108q57 0 94 -8t66 -28q35 -23 54.5 -63t19.5 -88q0 -76 -45.5 -125.5t-122.5 -56.5zM202 358q71 0 109 31.5t38 90.5q0 31 -13 56.5t-36 39.5q-18 11 -42 16.5t-59 5.5h-44v-240h47z" />
    <glyph glyph-name="S" unicode="S" horiz-adv-x="504" 
d="M377 536q-26 41 -51 56.5t-64 15.5q-47 0 -78.5 -29t-31.5 -74q0 -43 42 -72q9 -6 15.5 -10t17 -9t29.5 -13.5t53 -23.5q81 -35 116 -78t35 -106q0 -43 -16 -80.5t-44.5 -65t-67.5 -43.5t-84 -16q-79 0 -132.5 45t-72.5 127l72 20q6 -26 11.5 -40t15.5 -28q18 -26 47 -40
t62 -14q28 0 52.5 10t42.5 28t28.5 42t10.5 51q0 61 -55 95q-9 6 -15.5 10t-18 9.5t-30.5 14t-54 24.5q-72 32 -103.5 70.5t-31.5 93.5q0 37 14 68.5t39 54.5t59.5 36t74.5 13q112 0 172 -104z" />
    <glyph glyph-name="T" unicode="T" horiz-adv-x="411" 
d="M243 0h-75v598h-161v69h398v-69h-162v-598z" />
    <glyph glyph-name="U" unicode="U" horiz-adv-x="635" 
d="M155 258q0 -52 4.5 -79t17.5 -49q20 -32 58.5 -52t82.5 -20q43 0 81.5 20t58.5 52q13 22 17.5 49t4.5 79v409h75v-429q0 -54 -10 -90.5t-34 -67.5q-33 -43 -84.5 -67.5t-108.5 -24.5q-58 0 -110 24.5t-84 67.5q-24 31 -34 67t-10 91v429h75v-409z" />
    <glyph glyph-name="V" unicode="V" horiz-adv-x="541" 
d="M271 159l189 508h81l-271 -706l-270 706h82z" />
    <glyph glyph-name="W" unicode="W" horiz-adv-x="942" 
d="M259 167l209 534l197 -534l196 500h81l-279 -701l-197 533l-210 -533l-256 701h81z" />
    <glyph glyph-name="X" unicode="X" horiz-adv-x="489" 
d="M24 667h85l138 -251l141 251h85l-184 -322l193 -345h-83l-153 274l-155 -274h-84l197 345z" />
    <glyph glyph-name="Y" unicode="Y" horiz-adv-x="514" 
d="M0 667h86l170 -298l172 298h87l-222 -380v-287h-75v287z" />
    <glyph glyph-name="Z" unicode="Z" horiz-adv-x="521" 
d="M495 69v-69h-478l363 598h-316v69h440l-364 -598h355z" />
    <glyph glyph-name="bracketleft" unicode="[" horiz-adv-x="291" 
d="M153 -109h95v-67h-168v905h168v-67h-95v-771z" />
    <glyph glyph-name="backslash" unicode="\" horiz-adv-x="475" 
d="M494 -153l-58 -27l-436 887l58 26z" />
    <glyph glyph-name="bracketright" unicode="]" horiz-adv-x="291" 
d="M138 662h-95v67h168v-905h-168v67h95v771z" />
    <glyph glyph-name="asciicircum" unicode="^" horiz-adv-x="500" 
d="M24 364l176 305h99l176 -305h-81l-145 245l-144 -245h-81z" />
    <glyph glyph-name="underscore" unicode="_" horiz-adv-x="500" 
d="M500 -64v-69h-500v69h500z" />
    <glyph glyph-name="grave" unicode="`" horiz-adv-x="476" 
d="M176 656l105 -144l-44 -25l-135 136z" />
    <glyph glyph-name="a" unicode="a" 
d="M450 415v-415h-71v58q-30 -36 -64 -53t-79 -17q-43 0 -80 16.5t-63.5 46t-41.5 70t-15 88.5q0 47 15 86.5t41.5 68.5t62.5 45t79 16q45 0 79.5 -16.5t65.5 -52.5v59h71zM246 360q-29 0 -54 -11.5t-43.5 -31.5t-29 -47.5t-10.5 -59.5q0 -34 10 -63t28 -50t43 -32.5
t55 -11.5q31 0 56.5 11.5t44 32t28.5 49t10 62.5q0 68 -38.5 110t-99.5 42z" />
    <glyph glyph-name="b" unicode="b" 
d="M135 356q31 35 65.5 51.5t79.5 16.5q43 0 79 -16t62.5 -45t41.5 -68.5t15 -86.5q0 -48 -15 -88t-42 -69.5t-63.5 -46t-79.5 -16.5q-86 0 -143 69v-57h-71v729h71v-373zM269 359q-62 0 -100.5 -41.5t-38.5 -110.5q0 -34 10 -62t28.5 -48.5t44 -32t55.5 -11.5q29 0 54 11.5
t43.5 32t29 48t10.5 60.5t-10 61.5t-28 49t-43 32t-55 11.5z" />
    <glyph glyph-name="c" unicode="c" horiz-adv-x="423" 
d="M385 291q-35 38 -63.5 53t-66.5 15q-31 0 -58 -11.5t-47 -32t-31 -48.5t-11 -61t11 -61t30.5 -48.5t46 -32t57.5 -11.5q39 0 69.5 16t65.5 56v-94q-38 -24 -67.5 -33.5t-65.5 -9.5q-46 0 -86.5 17t-70 46t-46.5 68.5t-17 85.5q0 47 17 87t46.5 69t70 46t87.5 17
q37 0 67 -9t62 -30v-94z" />
    <glyph glyph-name="d" unicode="d" 
d="M450 729v-729h-72v57q-52 -69 -142 -69q-43 0 -79.5 16.5t-63.5 46t-42 69.5t-15 88q0 47 15 86.5t41.5 68.5t62.5 45t79 16q45 0 79.5 -16.5t65.5 -51.5v373h71zM246 359q-29 0 -54 -11.5t-43.5 -31.5t-29 -47t-10.5 -59q0 -34 10 -63t28 -50t43 -32.5t55 -11.5
q63 0 100.5 42.5t37.5 112.5q0 75 -42 113q-20 18 -44.5 28t-50.5 10z" />
    <glyph glyph-name="e" unicode="e" horiz-adv-x="468" 
d="M110 193q3 -64 39 -102t93 -38q42 0 70 19.5t58 67.5l60 -34q-35 -61 -81.5 -89.5t-109.5 -28.5q-45 0 -82.5 16t-64.5 44.5t-42 68.5t-15 88q0 49 14.5 89t41 69t63.5 45t82 16t81.5 -15.5t62.5 -44.5t40 -69t14 -90v-12h-324zM359 253q-10 49 -43 78t-79 29
q-45 0 -79.5 -30t-42.5 -77h244z" />
    <glyph glyph-name="f" unicode="f" horiz-adv-x="241" 
d="M141 0h-71v349h-39v66h39v177q0 74 24 105q33 44 100 44q14 0 24.5 -2t27.5 -7v-72q-16 6 -26 8t-22 2q-34 0 -45.5 -19.5t-11.5 -75.5v-160h105v-66h-105v-349z" />
    <glyph glyph-name="g" unicode="g" horiz-adv-x="514" 
d="M450 9q0 -62 -8.5 -97.5t-31.5 -65.5q-28 -37 -71 -57t-95 -20q-90 0 -144 51t-57 139h70q2 -26 6.5 -41t13.5 -29q16 -26 46.5 -40.5t66.5 -14.5q34 0 61.5 13.5t44.5 37.5q27 37 27 112v60q-62 -68 -146 -68q-42 0 -78.5 16.5t-63 45.5t-41.5 69t-15 86q0 47 15 87.5
t42 69.5t64 45.5t80 16.5q87 0 143 -69v59h71v-406zM244 361q-30 0 -55 -11.5t-43 -32t-28 -49t-10 -61.5q0 -34 10 -62.5t28 -48.5t42.5 -31.5t54.5 -11.5t55.5 11.5t44 31.5t29 48t10.5 62q0 78 -45 119q-41 36 -93 36z" />
    <glyph glyph-name="h" unicode="h" horiz-adv-x="461" 
d="M135 729v-363q26 32 53.5 45t65.5 13t70 -15.5t49 -41.5q13 -20 18.5 -44.5t5.5 -65.5v-257h-71v252q0 57 -20 82t-66 25q-64 0 -88 -49q-9 -18 -13 -42t-4 -61v-207h-71v729h71z" />
    <glyph glyph-name="i" unicode="i" horiz-adv-x="200" 
d="M135 0h-71v415h71v-415zM100 623q21 0 36 -15t15 -36t-15 -36t-36 -15t-36 15t-15 37q0 20 15 35t36 15z" />
    <glyph glyph-name="j" unicode="j" horiz-adv-x="200" 
d="M135 -234h-71v649h71v-649zM100 623q21 0 36 -15t15 -36t-15 -36t-36 -15t-36 15t-15 37q0 20 15 35t36 15z" />
    <glyph glyph-name="k" unicode="k" horiz-adv-x="411" 
d="M135 262l150 153h95l-177 -177l211 -238h-94l-167 189l-18 -18v-171h-71v729h71v-467z" />
    <glyph glyph-name="l" unicode="l" horiz-adv-x="199" 
d="M135 0h-71v729h71v-729z" />
    <glyph glyph-name="m" unicode="m" horiz-adv-x="672" 
d="M135 415v-45q22 29 46 42t57 13q38 0 67 -17.5t47 -49.5q38 67 121 67q36 0 65.5 -15t46.5 -41q12 -20 17.5 -44t5.5 -62v-263h-71v252q0 57 -17.5 82.5t-57.5 25.5q-89 0 -89 -130v-230h-71v246q0 114 -77 114q-23 0 -43.5 -12.5t-31.5 -32.5q-15 -30 -15 -89v-226h-71
v415h71z" />
    <glyph glyph-name="n" unicode="n" horiz-adv-x="461" 
d="M135 415v-50q27 33 54 46.5t66 13.5q38 0 70 -15.5t49 -41.5q12 -20 17.5 -45t5.5 -66v-257h-71v245q0 33 -3 50.5t-11 30.5q-21 35 -74 35q-54 0 -78.5 -36.5t-24.5 -117.5v-207h-71v415h71z" />
    <glyph glyph-name="o" unicode="o" horiz-adv-x="508" 
d="M255 424q46 0 86 -17t69.5 -46t46.5 -69t17 -86t-17 -86t-46.5 -69t-70 -46t-87.5 -17q-46 0 -86 17t-69 47t-46 70.5t-17 87.5q0 44 17.5 83t47.5 68t70 46t85 17zM254 359q-31 0 -58 -11.5t-46.5 -31.5t-30.5 -48t-11 -60q0 -34 10.5 -62.5t30 -49t46 -32t58.5 -11.5
t59.5 11.5t47 31.5t30.5 48t11 62q0 33 -11 61.5t-30.5 48.5t-46.5 31.5t-59 11.5z" />
    <glyph glyph-name="p" unicode="p" 
d="M64 -234v649h71l-1 -59q32 36 66 52.5t78 16.5t80.5 -16.5t63 -46t41.5 -69.5t15 -88q0 -47 -15 -86.5t-41.5 -68.5t-62.5 -45.5t-79 -16.5q-45 0 -79.5 16.5t-65.5 53.5v-292h-71zM269 360q-30 0 -55.5 -11.5t-44 -32t-29 -49t-10.5 -62.5q0 -33 10.5 -61t29 -48.5
t44 -31.5t55.5 -11q29 0 54 11.5t43 31.5t28.5 47.5t10.5 59.5q0 34 -10 63t-28 50t-43 32.5t-55 11.5z" />
    <glyph glyph-name="q" unicode="q" 
d="M379 58q-31 -36 -65.5 -53t-79.5 -17q-43 0 -79 16.5t-62.5 45.5t-41.5 68.5t-15 86.5q0 48 15 88t41.5 69.5t63.5 46t80 16.5q90 0 142 -69v59h72v-649h-71v292zM246 360q-29 0 -54 -11.5t-43.5 -32t-29 -48t-10.5 -60.5q0 -34 10 -62.5t28 -49t43 -32t55 -11.5
q31 0 59 13t48 36q15 17 23 44t8 59q0 69 -37.5 112t-99.5 43z" />
    <glyph glyph-name="r" unicode="r" horiz-adv-x="285" 
d="M135 415v-45q14 17 25 27.5t21.5 16.5t21.5 8.5t26 2.5q17 0 30.5 -3.5t32.5 -14.5l-33 -64q-14 8 -22.5 11t-19.5 3q-20 0 -38.5 -10.5t-27.5 -27.5q-8 -15 -12 -38.5t-4 -61.5v-219h-71v415h71z" />
    <glyph glyph-name="s" unicode="s" horiz-adv-x="351" 
d="M233 318q-22 41 -58 41q-20 0 -35 -13.5t-15 -32.5q0 -18 13.5 -30t53.5 -29q18 -7 30 -12.5t20.5 -10t15 -8.5t13.5 -9q46 -34 46 -91q0 -29 -11 -53.5t-30 -42.5t-45 -28.5t-56 -10.5q-104 0 -145 106l63 26q18 -38 36 -52.5t47 -14.5t48.5 18.5t19.5 46.5q0 24 -14 38
t-53 31q-36 16 -59 29t-36.5 26.5t-19 29t-5.5 36.5q0 25 9 46t25.5 36.5t38.5 24.5t48 9q76 0 114 -75z" />
    <glyph glyph-name="t" unicode="t" horiz-adv-x="218" 
d="M141 0h-71v349h-43v66h43v150h71v-150h74v-66h-74v-349z" />
    <glyph glyph-name="u" unicode="u" horiz-adv-x="457" 
d="M135 173q0 -29 3 -46.5t10 -31.5q11 -20 32.5 -31t48.5 -11q26 0 47.5 11t32.5 31q7 14 10 31.5t3 46.5v242h71v-250q0 -46 -8.5 -74t-29.5 -51q-23 -26 -55.5 -39t-70.5 -13q-39 0 -71.5 13t-55.5 39q-21 23 -29.5 51t-8.5 74v250h71v-242z" />
    <glyph glyph-name="v" unicode="v" horiz-adv-x="409" 
d="M205 136l123 279h80l-203 -443l-204 443h80z" />
    <glyph glyph-name="w" unicode="w" horiz-adv-x="668" 
d="M204 134l130 313l129 -313l124 281h80l-206 -444l-128 309l-128 -309l-204 444h80z" />
    <glyph glyph-name="x" unicode="x" horiz-adv-x="445" 
d="M28 415h87l108 -141l109 141h88l-152 -194l172 -221h-86l-131 169l-132 -169h-89l177 221z" />
    <glyph glyph-name="y" unicode="y" horiz-adv-x="445" 
d="M1 415h82l147 -297l134 297h81l-307 -649h-80l134 273z" />
    <glyph glyph-name="z" unicode="z" horiz-adv-x="450" 
d="M431 66v-66h-430l300 349h-244v66h387l-299 -349h286z" />
    <glyph glyph-name="braceleft" unicode="{" horiz-adv-x="281" 
d="M176 393q-1 -26 -4 -44t-10 -31.5t-18.5 -23t-28.5 -18.5q33 -17 47 -43.5t14 -74.5v-181q0 -29 3 -47t11.5 -27.5t24 -13t40.5 -2.5v-62q-11 -1 -18 -1h-9q-68 0 -96.5 33.5t-28.5 114.5v184q0 44 -12.5 64t-44.5 29v59q31 9 43.5 28.5t13.5 60.5v195q0 74 29.5 106
t96.5 32h10.5t15.5 -1v-62h-9q-21 0 -35 -3.5t-21.5 -13.5t-10.5 -26.5t-3 -43.5v-187z" />
    <glyph glyph-name="bar" unicode="|" horiz-adv-x="500" 
d="M288 667v-834h-75v834h75z" />
    <glyph glyph-name="braceright" unicode="}" horiz-adv-x="281" 
d="M105 161q2 51 14.5 75.5t46.5 40.5q-33 17 -47 43.5t-14 74.5v181q0 29 -3 47.5t-11.5 28t-24 12.5t-40.5 2v63h19q72 2 102.5 -32t30.5 -115v-184q0 -44 12.5 -64.5t44.5 -29.5v-59q-31 -8 -43.5 -27.5t-13.5 -60.5v-196q0 -73 -29.5 -105t-96.5 -32h-26v63h9
q21 0 35 3.5t21.5 13.5t10.5 26.5t3 43.5v187z" />
    <glyph glyph-name="asciitilde" unicode="~" horiz-adv-x="667" 
d="M93 611q32 64 62.5 89.5t74.5 25.5q20 0 45.5 -7.5t66.5 -26.5q22 -10 36.5 -16.5t25 -10t18.5 -4.5t17 -1q29 0 48 15t42 53l45 -26q-29 -60 -63.5 -86.5t-80.5 -26.5q-10 0 -21 2t-26 7t-37.5 14.5t-55.5 24.5q-39 18 -65 18t-47 -17t-42 -56z" />
    <glyph glyph-name="uni00A0" unicode="&#xa0;" horiz-adv-x="250" 
 />
    <glyph glyph-name="exclamdown" unicode="&#xa1;" horiz-adv-x="277" 
d="M139 521q20 0 34 -14.5t14 -35.5q0 -20 -14 -34.5t-34 -14.5t-34.5 14.5t-14.5 35.5q0 20 14.5 34.5t34.5 14.5zM175 -156h-72v531h72v-531z" />
    <glyph glyph-name="cent" unicode="&#xa2;" horiz-adv-x="553" 
d="M335 557q57 -4 106 -38v-94q-26 31 -51 46.5t-55 20.5v-304q57 9 109 71v-94q-28 -19 -57 -30t-52 -12v-99h-58v100q-40 5 -74 24t-59 47.5t-39 65.5t-14 78q0 42 14 79t39 66t59 48t74 24v94h58v-93zM277 490q-25 -5 -45.5 -18.5t-35.5 -33.5t-23.5 -45t-8.5 -53
q0 -57 31 -98.5t82 -52.5v301z" />
    <glyph glyph-name="sterling" unicode="&#xa3;" horiz-adv-x="553" 
d="M380 293v-57h-106q4 -13 5 -21t1 -18q0 -44 -29 -96q22 -8 34.5 -12t23.5 -8q33 -12 47.5 -16t27.5 -4q23 0 41 14.5t39 52.5l60 -36q-27 -54 -60 -78.5t-77 -24.5q-20 0 -45.5 6t-64.5 20q-21 8 -35.5 13t-25 7.5t-18 3.5t-15.5 1q-24 0 -42 -12t-38 -41l-57 39
q25 40 58 62t71 23q16 24 22.5 43t6.5 41q0 10 -1.5 18.5t-5.5 22.5h-112v57h88q-10 19 -17 33.5t-12 23.5q-13 26 -22 44.5t-13.5 34t-6.5 30t-2 31.5q0 39 15.5 73t42 59t62.5 39.5t78 14.5q85 0 137 -53.5t56 -144.5l-73 -20q-2 29 -4 43t-7 29q-11 35 -40.5 54.5
t-68.5 19.5q-26 0 -48.5 -9t-39 -25t-26 -37.5t-9.5 -47.5q0 -13 2.5 -26.5t8.5 -30t16.5 -37.5t26.5 -50q8 -14 13 -24t7 -12q1 -2 5 -12h126z" />
    <glyph glyph-name="currency" unicode="&#xa4;" horiz-adv-x="643" 
d="M138 217q-29 42 -40.5 73.5t-11.5 69.5q0 39 11 69.5t39 71.5l-95 95l41 42l96 -95q23 15 40.5 25t34 16t33 8.5t36.5 2.5t36.5 -2.5t33 -8t34 -15.5t39.5 -25l95 94l41 -42l-94 -94q29 -43 39.5 -73.5t10.5 -68.5q0 -19 -2.5 -35.5t-8 -32.5t-15 -33.5t-24.5 -39.5
l95 -96l-40 -41l-96 95q-41 -29 -72.5 -40t-70.5 -11q-37 0 -68 11t-76 39l-95 -94l-41 41zM324 529q-36 0 -67 -13t-54 -36t-36 -54t-13 -66q0 -34 13.5 -65t36 -53.5t53.5 -36t65 -13.5q35 0 65.5 13t53.5 36t36 53.5t13 65.5t-13 65.5t-35.5 53.5t-53 36.5t-64.5 13.5z
" />
    <glyph glyph-name="yen" unicode="&#xa5;" horiz-adv-x="553" 
d="M317 296h193v-57h-198v-239h-75v239h-194v57h188l-50 87h-138v57h106l-130 227h86l169 -298l173 298h86l-132 -227h109v-57h-142z" />
    <glyph glyph-name="brokenbar" unicode="&#xa6;" horiz-adv-x="500" 
d="M288 667v-334h-75v334h75zM288 153v-320h-75v320h75z" />
    <glyph glyph-name="section" unicode="&#xa7;" horiz-adv-x="543" 
d="M163 2q2 -31 6 -47.5t13 -29.5q25 -40 82 -40q47 0 73.5 26.5t26.5 73.5q0 55 -43 83q-7 5 -12.5 8t-13.5 7t-22.5 9.5t-40.5 15.5q-37 14 -57.5 25t-36.5 25q-23 22 -36 52.5t-13 67.5q0 113 100 157q-45 26 -64.5 57.5t-19.5 78.5q0 35 13.5 65.5t37 53t55.5 35
t69 12.5q46 0 84.5 -20t58.5 -55q13 -22 19.5 -49t8.5 -65h-71q-1 27 -4.5 45t-11.5 32q-11 20 -33.5 32t-49.5 12q-47 0 -75.5 -28.5t-28.5 -75.5q0 -45 34 -70q8 -6 13.5 -9.5t14 -7t22.5 -8.5t38 -13q37 -14 61 -26t41 -26q25 -20 39 -53.5t14 -72.5q0 -53 -23 -89
t-77 -68q19 -11 28.5 -18t17.5 -16q17 -17 27 -45t10 -60q0 -75 -48 -121t-127 -46q-49 0 -88 20.5t-59 56.5q-21 35 -24 109h72zM271 389q-22 0 -41.5 -8.5t-34.5 -23.5t-23.5 -34.5t-8.5 -41.5q0 -23 8.5 -43t23 -35t34.5 -23.5t42 -8.5q23 0 42.5 8.5t34 23.5t23 35
t8.5 42q0 23 -8.5 42.5t-23 34.5t-34 23.5t-42.5 8.5z" />
    <glyph glyph-name="dieresis" unicode="&#xa8;" horiz-adv-x="476" 
d="M151 610q21 0 35.5 -14.5t14.5 -35.5q0 -20 -15 -35t-35 -15q-21 0 -35.5 14.5t-14.5 36.5q0 20 15 34.5t35 14.5zM324 610q21 0 35.5 -14.5t14.5 -35.5t-14.5 -35.5t-35.5 -14.5t-35.5 15t-14.5 36q0 20 15 34.5t35 14.5z" />
    <glyph glyph-name="copyright" unicode="&#xa9;" horiz-adv-x="740" 
d="M523 393q-12 14 -18.5 22t-11 12.5t-7 7.5t-6.5 6q-19 17 -45 27.5t-52 10.5q-30 0 -57 -12t-47.5 -33t-32.5 -48.5t-12 -58.5q0 -30 12 -56.5t32.5 -47t47.5 -32.5t57 -12q24 0 51 10t46 27q3 3 6 5t7 6.5t11 12.5t19 22v-84q-37 -29 -68.5 -41.5t-69.5 -12.5
q-43 0 -81 16.5t-66.5 44.5t-45 65t-16.5 79t16.5 79.5t44.5 65.5t66 44.5t80 16.5q41 0 72 -12.5t68 -44.5v-85zM375 678q69 0 131 -27.5t108 -74.5t73 -109.5t27 -132.5q0 -72 -27 -134.5t-73.5 -109.5t-109.5 -74t-134 -27q-72 0 -135 27t-109.5 74t-73.5 110.5
t-27 135.5q0 71 27.5 133.5t75 109t111 73t136.5 26.5zM374 622q-132 0 -219 -96q-35 -39 -54.5 -88.5t-19.5 -101.5q0 -61 22.5 -114t61.5 -92.5t92 -62t113 -22.5t112.5 22.5t91.5 62t61.5 92t22.5 112.5q0 59 -22.5 111t-61.5 91.5t-90.5 62.5t-109.5 23z" />
    <glyph glyph-name="ordfeminine" unicode="&#xaa;" horiz-adv-x="347" 
d="M295 664v-250h-48v31q-35 -38 -86 -38q-27 0 -50.5 10t-40 27.5t-26 42t-9.5 52.5t9.5 52t26 41.5t39 27.5t49.5 10q53 0 88 -38v32h48zM166 628q-35 0 -59 -25t-24 -62q0 -41 23.5 -66.5t59.5 -25.5q37 0 60.5 25t23.5 65t-23 64.5t-61 24.5z" />
    <glyph glyph-name="guillemotleft" unicode="&#xab;" horiz-adv-x="431" 
d="M381 66l-46 -37l-149 184l149 187l46 -36l-119 -151zM233 66l-47 -37l-149 184l149 187l47 -36l-119 -151z" />
    <glyph glyph-name="logicalnot" unicode="&#xac;" horiz-adv-x="500" 
d="M391 197h-358v70h433v-267h-75v197z" />
    <glyph glyph-name="uni00AD" unicode="&#xad;" horiz-adv-x="181" 
d="M181 245v-64h-181v64h181z" />
    <glyph glyph-name="registered" unicode="&#xae;" horiz-adv-x="740" 
d="M512 130h-70l-103 151v-151h-57v400h68q65 0 98.5 -29t33.5 -85q0 -45 -24 -73.5t-68 -36.5zM357 359q67 0 67 58q0 30 -17 44t-55 14h-13v-116h18zM375 678q69 0 131 -27.5t108 -74.5t73 -109.5t27 -132.5q0 -72 -27 -134.5t-73.5 -109.5t-109.5 -74t-134 -27
q-72 0 -135 27t-109.5 74t-73.5 110.5t-27 135.5q0 71 27.5 133.5t75 109t111 73t136.5 26.5zM374 622q-132 0 -219 -96q-35 -39 -54.5 -88.5t-19.5 -101.5q0 -61 22.5 -114t61.5 -92.5t92 -62t113 -22.5t112.5 22.5t91.5 62t61.5 92t22.5 112.5q0 59 -22.5 111t-61.5 91.5
t-90.5 62.5t-109.5 23z" />
    <glyph glyph-name="macron" unicode="&#xaf;" horiz-adv-x="476" 
d="M373 587v-60h-269v60h269z" />
    <glyph glyph-name="degree" unicode="&#xb0;" horiz-adv-x="543" 
d="M273 677q27 0 51 -10.5t42 -28.5t28.5 -42.5t10.5 -51.5q0 -28 -10.5 -52.5t-28.5 -42.5t-42.5 -28.5t-51.5 -10.5q-28 0 -52.5 10.5t-42.5 28.5t-28.5 42.5t-10.5 51.5q0 28 10.5 52.5t29 42.5t43 28.5t52.5 10.5zM273 624q-35 0 -58.5 -23.5t-23.5 -56.5
q0 -34 23.5 -57.5t57.5 -23.5q33 0 56.5 23.5t23.5 57.5q0 32 -23.5 56t-55.5 24z" />
    <glyph glyph-name="plusminus" unicode="&#xb1;" horiz-adv-x="556" 
d="M43 371h205v201h61v-201h205v-61h-205v-195h-61v195h-205v61zM43 61h471v-61h-471v61z" />
    <glyph glyph-name="twosuperior" unicode="&#xb2;" horiz-adv-x="387" 
d="M319 314v-47h-278l155 171q41 45 56.5 69.5t15.5 45.5q0 31 -23 52t-57 21q-20 0 -38 -9t-29 -24q-6 -9 -8.5 -19t-4.5 -29h-53q3 29 7 44t15 29q18 26 47 40.5t64 14.5q28 0 52 -9.5t42 -25.5t28 -38t10 -48q0 -16 -3.5 -30.5t-13.5 -31.5t-28 -38.5t-46 -51.5l-79 -86
h169z" />
    <glyph glyph-name="threesuperior" unicode="&#xb3;" horiz-adv-x="387" 
d="M172 499q20 0 30 2t20 7q14 8 23 22.5t9 32.5q0 28 -19 45.5t-49 17.5q-31 0 -46 -14t-21 -49h-52q4 24 8 37t12 26q14 23 40 35t59 12q52 0 86 -30.5t34 -78.5q0 -28 -11.5 -47.5t-37.5 -39.5q29 -19 42 -41.5t13 -54.5q0 -26 -10 -48.5t-27.5 -38.5t-41.5 -25t-53 -9
q-35 0 -64.5 15.5t-45.5 41.5q-8 12 -11 24.5t-5 33.5h51q2 -16 5.5 -24t8.5 -16q11 -13 28 -20.5t35 -7.5q33 0 55.5 22t22.5 54q0 21 -10.5 38t-28.5 25q-10 5 -20 6t-29 2v45z" />
    <glyph glyph-name="acute" unicode="&#xb4;" horiz-adv-x="476" 
d="M239 487l-44 25l105 144l74 -33z" />
    <glyph glyph-name="mu" unicode="&#xb5;" horiz-adv-x="465" 
d="M68 -234v649h71v-253q0 -109 93 -109q27 0 48.5 11t32.5 31q7 14 10 31.5t3 46.5v242h71v-250q0 -46 -8.5 -74t-29.5 -51q-22 -25 -54.5 -38.5t-69.5 -13.5q-29 0 -52.5 7t-46.5 24l3 -253h-71z" />
    <glyph glyph-name="paragraph" unicode="&#xb6;" horiz-adv-x="543" 
d="M200 328h-15q-34 0 -63 12.5t-49.5 34.5t-32 52.5t-11.5 67.5q0 48 19 86.5t54 59.5q20 12 52 19t68 7h287l-33 -58h-44v-708h-63v708h-106v-708h-63v427z" />
    <glyph glyph-name="periodcentered" unicode="&#xb7;" horiz-adv-x="225" 
d="M112 263q21 0 35.5 -14.5t14.5 -34.5q0 -21 -14.5 -35.5t-34.5 -14.5q-21 0 -35.5 14.5t-14.5 35.5q0 20 14.5 34.5t34.5 14.5z" />
    <glyph glyph-name="cedilla" unicode="&#xb8;" horiz-adv-x="476" 
d="M219 -202l-49 25l84 130l66 -27z" />
    <glyph glyph-name="onesuperior" unicode="&#xb9;" horiz-adv-x="387" 
d="M108 620l28 47h96v-400h-53v353h-71z" />
    <glyph glyph-name="ordmasculine" unicode="&#xba;" horiz-adv-x="348" 
d="M174 670q29 0 54 -10t43.5 -28t29 -42t10.5 -52t-10.5 -52t-29.5 -42t-44 -28t-55 -10q-28 0 -53 10.5t-43.5 28.5t-29 42.5t-10.5 52.5q0 27 11 50.5t29.5 41.5t44 28t53.5 10zM173 629q-38 0 -63.5 -25.5t-25.5 -63.5q0 -41 25 -66.5t63 -25.5q41 0 66 25t25 65
t-25 65.5t-65 25.5z" />
    <glyph glyph-name="guillemotright" unicode="&#xbb;" horiz-adv-x="431" 
d="M50 364l47 36l149 -187l-149 -184l-47 37l119 147zM199 364l46 36l149 -187l-149 -184l-46 37l119 147z" />
    <glyph glyph-name="onequarter" unicode="&#xbc;" horiz-adv-x="836" 
d="M82 620l28 47h96v-400h-53v353h-71zM621 659l-388 -672l-39 23l388 670zM756 112v-47h-50v-65h-53v65h-215l268 364v-317h50zM653 276l-121 -164h121v164z" />
    <glyph glyph-name="onehalf" unicode="&#xbd;" horiz-adv-x="836" 
d="M64 620l28 47h96v-400h-53v353h-71zM580 659l-388 -672l-38 23l388 670zM747 47v-47h-278l155 171q41 45 56.5 70t15.5 47q0 30 -23 51t-57 21q-20 0 -38 -9t-28 -24q-6 -9 -9 -19t-5 -29h-53q3 29 7.5 43.5t14.5 29.5q18 26 47 40t64 14q28 0 52 -9t42 -25t28 -38
t10 -47q0 -17 -4 -31.5t-14 -31.5t-27.5 -38.5t-45.5 -51.5l-79 -87h169z" />
    <glyph glyph-name="threequarters" unicode="&#xbe;" horiz-adv-x="836" 
d="M185 499q20 0 30 2t20 7q14 8 23 22.5t9 32.5q0 28 -19 45.5t-49 17.5q-31 0 -46 -14t-21 -49h-52q4 24 8 37t12 26q14 23 40 35t59 12q52 0 86 -30.5t34 -78.5q0 -28 -11.5 -47.5t-37.5 -39.5q29 -19 42 -41.5t13 -54.5q0 -26 -10 -48.5t-27.5 -38.5t-41.5 -25t-53 -9
q-35 0 -64.5 15.5t-45.5 41.5q-8 12 -11 24.5t-5 33.5h51q2 -16 5.5 -24t8.5 -16q11 -13 28 -20.5t35 -7.5q33 0 55.5 22t22.5 54q0 21 -10.5 38t-28.5 25q-10 5 -20 6t-29 2v45zM666 659l-388 -672l-39 23l388 670zM770 112v-47h-50v-65h-53v65h-215l268 364v-317h50z
M667 276l-122 -164h122v164z" />
    <glyph glyph-name="questiondown" unicode="&#xbf;" horiz-adv-x="436" 
d="M75 223q1 29 5 47t15 36q18 32 51.5 51t73.5 19q30 0 56.5 -11t45.5 -30.5t30 -45.5t11 -57q0 -51 -28.5 -83t-92.5 -52q-23 -7 -36.5 -11.5t-22 -8t-13.5 -6.5t-11 -8q-29 -24 -29 -68q0 -40 25.5 -66t65.5 -26q38 0 62.5 24.5t24.5 62.5q0 10 -1 18.5t-5 24.5h73
q3 -17 4 -26.5t1 -20.5q0 -32 -12.5 -60t-34 -48.5t-51 -32t-63.5 -11.5q-35 0 -64.5 12t-51.5 33.5t-34 51t-12 64.5q0 40 16.5 74.5t45.5 54.5q9 6 16.5 10t18.5 8t27.5 9.5t41.5 12.5q67 19 67 73q0 30 -20.5 51t-50.5 21q-20 0 -37 -10t-25 -27q-5 -10 -6.5 -20
t-3.5 -29h-72zM219 519q20 0 34.5 -14.5t14.5 -35.5q0 -20 -14.5 -34.5t-35.5 -14.5q-20 0 -34.5 14.5t-14.5 34.5q0 21 14.5 35.5t35.5 14.5z" />
    <glyph glyph-name="Agrave" unicode="&#xc0;" horiz-adv-x="607" 
d="M161 189l-80 -189h-81l307 699l300 -699h-82l-79 189h-285zM306 525l-114 -267h225zM242 882l120 -130l-43 -32l-144 117z" />
    <glyph glyph-name="Aacute" unicode="&#xc1;" horiz-adv-x="607" 
d="M161 189l-80 -189h-81l307 699l300 -699h-82l-79 189h-285zM306 525l-114 -267h225zM295 720l-43 32l119 130l67 -45z" />
    <glyph glyph-name="Acircumflex" unicode="&#xc2;" horiz-adv-x="607" 
d="M161 189l-80 -189h-81l307 699l300 -699h-82l-79 189h-285zM306 525l-114 -267h225zM309 881l141 -119l-53 -41l-88 76l-87 -76l-52 41z" />
    <glyph glyph-name="Atilde" unicode="&#xc3;" horiz-adv-x="607" 
d="M161 189l-80 -189h-81l307 699l300 -699h-82l-79 189h-285zM306 525l-114 -267h225zM162 780q36 71 89 71q14 0 26.5 -4t37.5 -17q39 -20 54 -20q14 0 24.5 9.5t21.5 33.5l43 -33q-35 -72 -92 -72q-13 0 -27 4.5t-37 16.5q-24 12 -35.5 16t-20.5 4q-13 0 -20.5 -8.5
t-20.5 -34.5z" />
    <glyph glyph-name="Adieresis" unicode="&#xc4;" horiz-adv-x="607" 
d="M161 189l-80 -189h-81l307 699l300 -699h-82l-79 189h-285zM306 525l-114 -267h225zM213 849q21 0 36 -15t15 -36t-15 -36t-36 -15t-36 15t-15 37q0 20 15 35t36 15zM403 849q21 0 36 -15t15 -36t-15 -36t-36 -15t-36 15t-15 37q0 20 15 35t36 15z" />
    <glyph glyph-name="Aring" unicode="&#xc5;" horiz-adv-x="607" 
d="M161 189l-80 -189h-81l307 699l300 -699h-82l-79 189h-285zM306 525l-114 -267h225zM306 896q38 0 64.5 -26t26.5 -64t-26.5 -64.5t-63.5 -26.5q-38 0 -64.5 27t-26.5 65q0 36 26.5 62.5t63.5 26.5zM307 847q-17 0 -29.5 -12t-12.5 -29t12 -29.5t30 -12.5q17 0 29 12.5
t12 29.5t-12 29t-29 12z" />
    <glyph glyph-name="AE" unicode="&#xc6;" horiz-adv-x="872" 
d="M161 187l-79 -187h-82l297 667h293l29 -69h-269l83 -200h263l30 -69h-263l108 -260h271l30 -69h-349l-78 187h-284zM305 519l-112 -263h223z" />
    <glyph glyph-name="Ccedilla" unicode="&#xc7;" horiz-adv-x="631" 
d="M588 520q-49 46 -97 67t-105 21q-55 0 -104 -22t-85.5 -59.5t-58 -88.5t-21.5 -108q0 -56 21.5 -105.5t58 -86.5t86 -58.5t104.5 -21.5q56 0 104 21t97 66v-92q-50 -34 -98 -49.5t-103 -15.5q-71 0 -133.5 27t-109.5 74t-74.5 109.5t-27.5 132.5q0 72 27.5 135t75 110
t111 74.5t135.5 27.5q56 0 101 -15.5t96 -50.5v-92zM315 -209l-51 26l90 136l71 -32z" />
    <glyph glyph-name="Egrave" unicode="&#xc8;" horiz-adv-x="469" 
d="M155 598v-199h263v-69h-263v-261h270v-69h-345v667h345v-69h-270zM190 882l119 -130l-43 -32l-143 117z" />
    <glyph glyph-name="Eacute" unicode="&#xc9;" horiz-adv-x="469" 
d="M155 598v-199h263v-69h-263v-261h270v-69h-345v667h345v-69h-270zM236 720l-43 32l119 130l67 -45z" />
    <glyph glyph-name="Ecircumflex" unicode="&#xca;" horiz-adv-x="469" 
d="M155 598v-199h263v-69h-263v-261h270v-69h-345v667h345v-69h-270zM252 881l141 -119l-53 -41l-88 76l-88 -76l-51 41z" />
    <glyph glyph-name="Edieresis" unicode="&#xcb;" horiz-adv-x="469" 
d="M155 598v-199h263v-69h-263v-261h270v-69h-345v667h345v-69h-270zM158 849q21 0 36 -15t15 -36t-15 -36t-36 -15t-36 15t-15 37q0 20 15 35t36 15zM348 849q21 0 36 -15t15 -36t-15 -36t-36 -15t-36 15t-15 37q0 20 15 35t36 15z" />
    <glyph glyph-name="Igrave" unicode="&#xcc;" horiz-adv-x="235" 
d="M155 0h-75v667h75v-667zM69 882l96 -133l-43 -29l-120 117z" />
    <glyph glyph-name="Iacute" unicode="&#xcd;" horiz-adv-x="235" 
d="M155 0h-75v667h75v-667zM112 720l-43 29l96 133l67 -45z" />
    <glyph glyph-name="Icircumflex" unicode="&#xce;" horiz-adv-x="235" 
d="M155 0h-75v667h75v-667zM117 881l123 -119l-49 -41l-74 76l-75 -76l-48 41z" />
    <glyph glyph-name="Idieresis" unicode="&#xcf;" horiz-adv-x="235" 
d="M155 0h-75v667h75v-667zM50 849q21 0 36 -15t15 -36t-15 -36t-36 -15t-36 15t-15 37q0 20 15 35t36 15zM185 849q21 0 36 -15t15 -36t-15 -36t-36 -15t-36 15t-15 37q0 20 15 35t36 15z" />
    <glyph glyph-name="Eth" unicode="&#xd0;" horiz-adv-x="619" 
d="M81 326h-67v67h67v274h136q81 0 138.5 -18t105.5 -59q57 -47 86 -112.5t29 -144.5q0 -78 -29.5 -143t-87.5 -113q-49 -41 -105.5 -59t-137.5 -18h-135v326zM220 69q61 0 106.5 14.5t83.5 46.5q45 37 68 89.5t23 113.5q0 62 -23.5 115t-66.5 89q-38 32 -84 46.5t-107 14.5
h-64v-205h159v-67h-159v-257h64z" />
    <glyph glyph-name="Ntilde" unicode="&#xd1;" horiz-adv-x="754" 
d="M80 695l519 -545v517h75v-697l-519 544v-514h-75v695zM236 780q36 71 88 71q14 0 27 -4t37 -17q40 -20 55 -20q14 0 24 9.5t22 33.5l43 -33q-35 -72 -92 -72q-13 0 -27.5 4.5t-37.5 16.5t-34.5 16t-21.5 4q-12 0 -20 -8.5t-21 -34.5z" />
    <glyph glyph-name="Ograve" unicode="&#xd2;" horiz-adv-x="778" 
d="M390 678q71 0 134 -27.5t110 -74.5t74.5 -109.5t27.5 -133.5q0 -72 -27.5 -134.5t-75 -109.5t-111.5 -74t-136 -27t-140 31t-118 86q-42 48 -64 106t-22 126q0 69 28 131t75.5 108.5t111 74t133.5 27.5zM389 608q-56 0 -105.5 -21.5t-86.5 -58.5t-58.5 -86t-21.5 -105
q0 -123 85 -203q38 -36 86.5 -56t98.5 -20q57 0 107 21.5t87 58.5t58.5 87.5t21.5 107.5t-21.5 107t-58 87.5t-86 59t-106.5 21.5zM324 882l120 -130l-43 -32l-144 117z" />
    <glyph glyph-name="Oacute" unicode="&#xd3;" horiz-adv-x="778" 
d="M390 678q71 0 134 -27.5t110 -74.5t74.5 -109.5t27.5 -133.5q0 -72 -27.5 -134.5t-75 -109.5t-111.5 -74t-136 -27t-140 31t-118 86q-42 48 -64 106t-22 126q0 69 28 131t75.5 108.5t111 74t133.5 27.5zM389 608q-56 0 -105.5 -21.5t-86.5 -58.5t-58.5 -86t-21.5 -105
q0 -123 85 -203q38 -36 86.5 -56t98.5 -20q57 0 107 21.5t87 58.5t58.5 87.5t21.5 107.5t-21.5 107t-58 87.5t-86 59t-106.5 21.5zM380 720l-43 32l120 130l67 -45z" />
    <glyph glyph-name="Ocircumflex" unicode="&#xd4;" horiz-adv-x="778" 
d="M390 678q71 0 134 -27.5t110 -74.5t74.5 -109.5t27.5 -133.5q0 -72 -27.5 -134.5t-75 -109.5t-111.5 -74t-136 -27t-140 31t-118 86q-42 48 -64 106t-22 126q0 69 28 131t75.5 108.5t111 74t133.5 27.5zM389 608q-56 0 -105.5 -21.5t-86.5 -58.5t-58.5 -86t-21.5 -105
q0 -123 85 -203q38 -36 86.5 -56t98.5 -20q57 0 107 21.5t87 58.5t58.5 87.5t21.5 107.5t-21.5 107t-58 87.5t-86 59t-106.5 21.5zM388 881l141 -119l-53 -41l-88 76l-87 -76l-52 41z" />
    <glyph glyph-name="Otilde" unicode="&#xd5;" horiz-adv-x="778" 
d="M390 678q71 0 134 -27.5t110 -74.5t74.5 -109.5t27.5 -133.5q0 -72 -27.5 -134.5t-75 -109.5t-111.5 -74t-136 -27t-140 31t-118 86q-42 48 -64 106t-22 126q0 69 28 131t75.5 108.5t111 74t133.5 27.5zM389 608q-56 0 -105.5 -21.5t-86.5 -58.5t-58.5 -86t-21.5 -105
q0 -123 85 -203q38 -36 86.5 -56t98.5 -20q57 0 107 21.5t87 58.5t58.5 87.5t21.5 107.5t-21.5 107t-58 87.5t-86 59t-106.5 21.5zM251 780q36 71 89 71q14 0 26.5 -4t37.5 -17q39 -20 54 -20q14 0 24.5 9.5t21.5 33.5l43 -33q-35 -72 -91 -72q-14 0 -28 4.5t-37 16.5
q-24 12 -35.5 16t-20.5 4q-13 0 -20.5 -8.5t-20.5 -34.5z" />
    <glyph glyph-name="Odieresis" unicode="&#xd6;" horiz-adv-x="778" 
d="M390 678q71 0 134 -27.5t110 -74.5t74.5 -109.5t27.5 -133.5q0 -72 -27.5 -134.5t-75 -109.5t-111.5 -74t-136 -27t-140 31t-118 86q-42 48 -64 106t-22 126q0 69 28 131t75.5 108.5t111 74t133.5 27.5zM389 608q-56 0 -105.5 -21.5t-86.5 -58.5t-58.5 -86t-21.5 -105
q0 -123 85 -203q38 -36 86.5 -56t98.5 -20q57 0 107 21.5t87 58.5t58.5 87.5t21.5 107.5t-21.5 107t-58 87.5t-86 59t-106.5 21.5zM294 849q21 0 36 -15t15 -36t-15 -36t-36 -15t-36 15t-15 37q0 20 15 35t36 15zM484 849q21 0 36 -15t15 -36t-15 -36t-36 -15t-36 15t-15 37
q0 20 15 35t36 15z" />
    <glyph glyph-name="multiply" unicode="&#xd7;" horiz-adv-x="556" 
d="M123 537l155 -155l155 155l42 -42l-155 -155l155 -155l-42 -42l-155 155l-155 -155l-42 42l155 155l-155 155z" />
    <glyph glyph-name="Oslash" unicode="&#xd8;" horiz-adv-x="781" 
d="M120 114q-42 58 -59.5 107.5t-17.5 110.5q0 71 27.5 134t75 110t110.5 74.5t135 27.5q101 0 189 -57q6 -4 11.5 -8t17.5 -12l77 77l43 -44l-75 -76q23 -30 39 -57t25.5 -54t14 -54.5t4.5 -59.5q0 -71 -27.5 -133.5t-74.5 -109.5t-110.5 -74.5t-134.5 -27.5q-31 0 -58.5 4
t-54.5 14t-54 25.5t-59 38.5l-77 -77l-45 44zM556 551q-38 29 -78 43t-88 14q-57 0 -106.5 -21.5t-86 -59t-58 -88t-21.5 -107.5q0 -47 12 -83.5t43 -82.5zM217 123q32 -29 79.5 -47t95.5 -18q56 0 105 21.5t85.5 59t58 87.5t21.5 106q0 50 -14 90.5t-46 84.5z" />
    <glyph glyph-name="Ugrave" unicode="&#xd9;" horiz-adv-x="635" 
d="M155 258q0 -52 4.5 -79t17.5 -49q20 -32 58.5 -52t82.5 -20q43 0 81.5 20t58.5 52q13 22 17.5 49t4.5 79v409h75v-429q0 -54 -10 -90.5t-34 -67.5q-33 -43 -84.5 -67.5t-108.5 -24.5q-58 0 -110 24.5t-84 67.5q-24 31 -34 67t-10 91v429h75v-409zM256 882l120 -130
l-43 -32l-144 117z" />
    <glyph glyph-name="Uacute" unicode="&#xda;" horiz-adv-x="635" 
d="M155 258q0 -52 4.5 -79t17.5 -49q20 -32 58.5 -52t82.5 -20q43 0 81.5 20t58.5 52q13 22 17.5 49t4.5 79v409h75v-429q0 -54 -10 -90.5t-34 -67.5q-33 -43 -84.5 -67.5t-108.5 -24.5q-58 0 -110 24.5t-84 67.5q-24 31 -34 67t-10 91v429h75v-409zM306 720l-43 32l119 130
l67 -45z" />
    <glyph glyph-name="Ucircumflex" unicode="&#xdb;" horiz-adv-x="635" 
d="M155 258q0 -52 4.5 -79t17.5 -49q20 -32 58.5 -52t82.5 -20q43 0 81.5 20t58.5 52q13 22 17.5 49t4.5 79v409h75v-429q0 -54 -10 -90.5t-34 -67.5q-33 -43 -84.5 -67.5t-108.5 -24.5q-58 0 -110 24.5t-84 67.5q-24 31 -34 67t-10 91v429h75v-409zM317 881l141 -119
l-53 -41l-88 76l-88 -76l-51 41z" />
    <glyph glyph-name="Udieresis" unicode="&#xdc;" horiz-adv-x="635" 
d="M155 258q0 -52 4.5 -79t17.5 -49q20 -32 58.5 -52t82.5 -20q43 0 81.5 20t58.5 52q13 22 17.5 49t4.5 79v409h75v-429q0 -54 -10 -90.5t-34 -67.5q-33 -43 -84.5 -67.5t-108.5 -24.5q-58 0 -110 24.5t-84 67.5q-24 31 -34 67t-10 91v429h75v-409zM223 849q21 0 36 -15
t15 -36t-15 -36t-36 -15t-36 15t-15 37q0 20 15 35t36 15zM413 849q21 0 36 -15t15 -36t-15 -36t-36 -15t-36 15t-15 37q0 20 15 35t36 15z" />
    <glyph glyph-name="Yacute" unicode="&#xdd;" horiz-adv-x="514" 
d="M0 667h86l170 -298l172 298h87l-222 -380v-287h-75v287zM245 720l-43 32l120 130l67 -45z" />
    <glyph glyph-name="Thorn" unicode="&#xde;" horiz-adv-x="444" 
d="M155 0h-75v667h75v-94h46q62 0 100.5 -10.5t67.5 -35.5t45.5 -62t16.5 -79q0 -88 -56.5 -137.5t-154.5 -49.5h-65v-199zM215 267q69 0 106 31t37 88q0 27 -10 50t-27 38q-19 16 -44.5 23t-66.5 7h-55v-237h60z" />
    <glyph glyph-name="germandbls" unicode="&#xdf;" horiz-adv-x="519" 
d="M70 349h-39v66h39v138q0 85 38 131q22 26 58.5 41.5t77.5 15.5q38 0 69.5 -12.5t54 -34.5t35.5 -53t13 -67q0 -43 -19 -76t-55 -53q66 -25 104 -82.5t38 -131.5q0 -61 -30 -113.5t-85 -87.5q-32 -21 -62.5 -30.5t-75.5 -11.5v70q37 2 61 10.5t48 25.5q34 25 52.5 61.5
t18.5 78.5q0 45 -20.5 83t-55.5 58q-22 13 -44 19.5t-60 11.5v64q27 2 42.5 6t29.5 15q18 14 29 37t11 49q0 44 -28 71.5t-73 27.5q-29 0 -53.5 -13.5t-34.5 -36.5q-8 -15 -10.5 -39t-2.5 -66v-521h-71v349z" />
    <glyph glyph-name="agrave" unicode="&#xe0;" 
d="M450 415v-415h-71v58q-30 -36 -64 -53t-79 -17q-43 0 -80 16.5t-63.5 46t-41.5 70t-15 88.5q0 47 15 86.5t41.5 68.5t62.5 45t79 16q45 0 79.5 -16.5t65.5 -52.5v59h71zM246 360q-29 0 -54 -11.5t-43.5 -31.5t-29 -47.5t-10.5 -59.5q0 -34 10 -63t28 -50t43 -32.5
t55 -11.5q31 0 56.5 11.5t44 32t28.5 49t10 62.5q0 68 -38.5 110t-99.5 42zM210 656l105 -144l-44 -25l-135 136z" />
    <glyph glyph-name="aacute" unicode="&#xe1;" 
d="M450 415v-415h-71v58q-30 -36 -64 -53t-79 -17q-43 0 -80 16.5t-63.5 46t-41.5 70t-15 88.5q0 47 15 86.5t41.5 68.5t62.5 45t79 16q45 0 79.5 -16.5t65.5 -52.5v59h71zM246 360q-29 0 -54 -11.5t-43.5 -31.5t-29 -47.5t-10.5 -59.5q0 -34 10 -63t28 -50t43 -32.5
t55 -11.5q31 0 56.5 11.5t44 32t28.5 49t10 62.5q0 68 -38.5 110t-99.5 42zM251 487l-45 25l105 144l74 -33z" />
    <glyph glyph-name="acircumflex" unicode="&#xe2;" 
d="M450 415v-415h-71v58q-30 -36 -64 -53t-79 -17q-43 0 -80 16.5t-63.5 46t-41.5 70t-15 88.5q0 47 15 86.5t41.5 68.5t62.5 45t79 16q45 0 79.5 -16.5t65.5 -52.5v59h71zM246 360q-29 0 -54 -11.5t-43.5 -31.5t-29 -47.5t-10.5 -59.5q0 -34 10 -63t28 -50t43 -32.5
t55 -11.5q31 0 56.5 11.5t44 32t28.5 49t10 62.5q0 68 -38.5 110t-99.5 42zM258 656l139 -130l-51 -39l-88 83l-87 -83l-50 39z" />
    <glyph glyph-name="atilde" unicode="&#xe3;" 
d="M450 415v-415h-71v58q-30 -36 -64 -53t-79 -17q-43 0 -80 16.5t-63.5 46t-41.5 70t-15 88.5q0 47 15 86.5t41.5 68.5t62.5 45t79 16q45 0 79.5 -16.5t65.5 -52.5v59h71zM246 360q-29 0 -54 -11.5t-43.5 -31.5t-29 -47.5t-10.5 -59.5q0 -34 10 -63t28 -50t43 -32.5
t55 -11.5q31 0 56.5 11.5t44 32t28.5 49t10 62.5q0 68 -38.5 110t-99.5 42zM118 540q12 34 34 52.5t51 18.5q15 0 29.5 -5t33.5 -16q20 -12 28.5 -16t17.5 -4q14 0 24.5 9.5t22.5 33.5l41 -32q-13 -34 -36.5 -53.5t-51.5 -19.5q-12 0 -24.5 4.5t-32.5 16.5q-20 11 -32 16
t-22 5q-28 0 -42 -44z" />
    <glyph glyph-name="adieresis" unicode="&#xe4;" 
d="M450 415v-415h-71v58q-30 -36 -64 -53t-79 -17q-43 0 -80 16.5t-63.5 46t-41.5 70t-15 88.5q0 47 15 86.5t41.5 68.5t62.5 45t79 16q45 0 79.5 -16.5t65.5 -52.5v59h71zM246 360q-29 0 -54 -11.5t-43.5 -31.5t-29 -47.5t-10.5 -59.5q0 -34 10 -63t28 -50t43 -32.5
t55 -11.5q31 0 56.5 11.5t44 32t28.5 49t10 62.5q0 68 -38.5 110t-99.5 42zM172 610q21 0 35.5 -14.5t14.5 -35.5q0 -20 -15 -35t-35 -15q-21 0 -35.5 14.5t-14.5 36.5q0 20 15 34.5t35 14.5zM346 610q21 0 35.5 -14.5t14.5 -35.5t-14.5 -35.5t-35.5 -14.5t-35.5 15
t-14.5 36q0 20 15 34.5t35 14.5z" />
    <glyph glyph-name="aring" unicode="&#xe5;" 
d="M450 415v-415h-71v58q-30 -36 -64 -53t-79 -17q-43 0 -80 16.5t-63.5 46t-41.5 70t-15 88.5q0 47 15 86.5t41.5 68.5t62.5 45t79 16q45 0 79.5 -16.5t65.5 -52.5v59h71zM246 360q-29 0 -54 -11.5t-43.5 -31.5t-29 -47.5t-10.5 -59.5q0 -34 10 -63t28 -50t43 -32.5
t55 -11.5q31 0 56.5 11.5t44 32t28.5 49t10 62.5q0 68 -38.5 110t-99.5 42zM259 665q38 0 64.5 -26t26.5 -64t-26.5 -64.5t-64.5 -26.5t-64.5 27t-26.5 65q0 36 26.5 62.5t64.5 26.5zM259 616q-17 0 -29.5 -12t-12.5 -29t12.5 -29.5t29.5 -12.5t29.5 12.5t12.5 29.5
t-12.5 29t-29.5 12z" />
    <glyph glyph-name="ae" unicode="&#xe6;" horiz-adv-x="758" 
d="M399 193q5 -63 40.5 -101.5t91.5 -38.5q42 0 71.5 20.5t56.5 66.5l60 -35q-37 -62 -81.5 -89.5t-106.5 -27.5q-52 0 -93.5 21t-68.5 62q-26 -44 -62.5 -63.5t-93.5 -19.5q-81 0 -129.5 37t-48.5 97q0 29 14 57t39 48q43 34 118 34q38 0 63 -7.5t57 -28.5
q-1 71 -29.5 103.5t-88.5 32.5q-29 0 -57.5 -5.5t-70.5 -19.5v66q24 7 42 11.5t33 7t29 3.5t29 1q54 0 94.5 -22t58.5 -62q23 39 66 61.5t94 22.5q59 0 106 -29t70 -80q13 -27 18 -54.5t4 -68.5h-325zM648 254q-9 51 -41 79t-80 28q-98 0 -122 -107h243zM214 196
q-48 0 -78.5 -19.5t-30.5 -51.5t29 -52t77 -20q49 0 80 21t31 53q0 30 -30.5 49.5t-77.5 19.5z" />
    <glyph glyph-name="ccedilla" unicode="&#xe7;" horiz-adv-x="423" 
d="M385 291q-35 38 -63.5 53t-66.5 15q-31 0 -58 -11.5t-47 -32t-31 -48.5t-11 -61t11 -61t30.5 -48.5t46 -32t57.5 -11.5q39 0 69.5 16t65.5 56v-94q-38 -24 -67.5 -33.5t-65.5 -9.5q-46 0 -86.5 17t-70 46t-46.5 68.5t-17 85.5q0 47 17 87t46.5 69t70 46t87.5 17
q37 0 67 -9t62 -30v-94zM192 -202l-49 25l84 130l66 -27z" />
    <glyph glyph-name="egrave" unicode="&#xe8;" horiz-adv-x="469" 
d="M110 193q3 -64 39 -102t93 -38q42 0 70 19.5t58 67.5l60 -34q-35 -61 -81.5 -89.5t-109.5 -28.5q-45 0 -82.5 16t-64.5 44.5t-42 68.5t-15 88q0 49 14.5 89t41 69t63.5 45t82 16t81.5 -15.5t62.5 -44.5t40 -69t14 -90v-12h-324zM359 253q-10 49 -43 78t-79 29
q-45 0 -79.5 -30t-42.5 -77h244zM192 656l105 -144l-44 -25l-135 136z" />
    <glyph glyph-name="eacute" unicode="&#xe9;" horiz-adv-x="469" 
d="M110 193q3 -64 39 -102t93 -38q42 0 70 19.5t58 67.5l60 -34q-35 -61 -81.5 -89.5t-109.5 -28.5q-45 0 -82.5 16t-64.5 44.5t-42 68.5t-15 88q0 49 14.5 89t41 69t63.5 45t82 16t81.5 -15.5t62.5 -44.5t40 -69t14 -90v-12h-324zM359 253q-10 49 -43 78t-79 29
q-45 0 -79.5 -30t-42.5 -77h244zM236 487l-45 25l106 144l74 -33z" />
    <glyph glyph-name="ecircumflex" unicode="&#xea;" horiz-adv-x="469" 
d="M110 193q3 -64 39 -102t93 -38q42 0 70 19.5t58 67.5l60 -34q-35 -61 -81.5 -89.5t-109.5 -28.5q-45 0 -82.5 16t-64.5 44.5t-42 68.5t-15 88q0 49 14.5 89t41 69t63.5 45t82 16t81.5 -15.5t62.5 -44.5t40 -69t14 -90v-12h-324zM359 253q-10 49 -43 78t-79 29
q-45 0 -79.5 -30t-42.5 -77h244zM244 656l139 -130l-51 -39l-88 83l-88 -83l-50 39z" />
    <glyph glyph-name="edieresis" unicode="&#xeb;" horiz-adv-x="469" 
d="M110 193q3 -64 39 -102t93 -38q42 0 70 19.5t58 67.5l60 -34q-35 -61 -81.5 -89.5t-109.5 -28.5q-45 0 -82.5 16t-64.5 44.5t-42 68.5t-15 88q0 49 14.5 89t41 69t63.5 45t82 16t81.5 -15.5t62.5 -44.5t40 -69t14 -90v-12h-324zM359 253q-10 49 -43 78t-79 29
q-45 0 -79.5 -30t-42.5 -77h244zM158 610q21 0 35.5 -14.5t14.5 -35.5q0 -20 -15 -35t-35 -15q-21 0 -35.5 14.5t-14.5 36.5q0 20 15 34.5t35 14.5zM331 610q21 0 35.5 -14.5t14.5 -35.5t-14.5 -35.5t-35.5 -14.5t-35.5 15t-14.5 36q0 20 15 34.5t35 14.5z" />
    <glyph glyph-name="igrave" unicode="&#xec;" horiz-adv-x="197" 
d="M134 0h-71v415h71v-415zM56 656l85 -144l-41 -25l-118 136z" />
    <glyph glyph-name="iacute" unicode="&#xed;" horiz-adv-x="197" 
d="M133 0h-71v415h71v-415zM96 487l-41 25l85 144l74 -33z" />
    <glyph glyph-name="icircumflex" unicode="&#xee;" horiz-adv-x="197" 
d="M134 0h-71v415h71v-415zM98 656l119 -130l-48 -39l-71 83l-71 -83l-47 39z" />
    <glyph glyph-name="idieresis" unicode="&#xef;" horiz-adv-x="197" 
d="M134 0h-71v415h71v-415zM34 608q20 0 34 -14t14 -34t-14 -34t-34 -14t-34 14.5t-14 34.5q0 19 14 33t34 14zM163 608q20 0 34 -14t14 -34t-14 -34t-34 -14t-34 14.5t-14 34.5q0 19 14 33t34 14z" />
    <glyph glyph-name="eth" unicode="&#xf0;" horiz-adv-x="511" 
d="M99 731q38 -10 82 -28.5t75 -37.5l110 55l42 -40l-103 -53q81 -74 125.5 -180.5t44.5 -225.5q0 -52 -16 -95t-44.5 -73.5t-69 -47.5t-88.5 -17q-47 0 -87.5 16.5t-70 46t-46.5 69.5t-17 86t17 86t47 69.5t70.5 46.5t87.5 17q45 0 73 -13.5t59 -49.5q-6 30 -20.5 63.5
t-33.5 65t-41.5 59.5t-46.5 47l-107 -56l-45 41l99 51q-22 14 -54.5 29t-70.5 26zM255 360q-31 0 -58 -11.5t-46.5 -31.5t-30.5 -48t-11 -60q0 -34 11 -62.5t30 -49.5t46 -32.5t58 -11.5q33 0 60 11.5t47 31.5t31 48.5t11 61.5q0 34 -11 62t-30.5 48.5t-47 32t-59.5 11.5z
" />
    <glyph glyph-name="ntilde" unicode="&#xf1;" horiz-adv-x="458" 
d="M134 415v-50q27 33 54 46.5t66 13.5q38 0 70 -15.5t49 -41.5q12 -20 17.5 -45t5.5 -66v-257h-71v245q0 33 -3 50.5t-11 30.5q-21 35 -74 35q-54 0 -78.5 -36.5t-24.5 -117.5v-207h-71v415h71zM81 540q13 34 35 52.5t51 18.5q14 0 29 -5t33 -16q20 -12 29 -16t18 -4
q14 0 24.5 9.5t21.5 33.5l42 -32q-13 -34 -36.5 -53.5t-51.5 -19.5q-12 0 -24.5 4.5t-32.5 16.5q-20 11 -32.5 16t-21.5 5q-29 0 -42 -44z" />
    <glyph glyph-name="ograve" unicode="&#xf2;" horiz-adv-x="509" 
d="M255 424q46 0 86 -17t69.5 -46t46.5 -69t17 -86t-17 -86t-46.5 -69t-70 -46t-87.5 -17q-46 0 -86 17t-69 47t-46 70.5t-17 87.5q0 44 17.5 83t47.5 68t70 46t85 17zM254 359q-31 0 -58 -11.5t-46.5 -31.5t-30.5 -48t-11 -60q0 -34 10.5 -62.5t30 -49t46 -32t58.5 -11.5
t59.5 11.5t47 31.5t30.5 48t11 62q0 33 -11 61.5t-30.5 48.5t-46.5 31.5t-59 11.5zM202 656l105 -144l-44 -25l-135 136z" />
    <glyph glyph-name="oacute" unicode="&#xf3;" horiz-adv-x="509" 
d="M255 424q46 0 86 -17t69.5 -46t46.5 -69t17 -86t-17 -86t-46.5 -69t-70 -46t-87.5 -17q-46 0 -86 17t-69 47t-46 70.5t-17 87.5q0 44 17.5 83t47.5 68t70 46t85 17zM254 359q-31 0 -58 -11.5t-46.5 -31.5t-30.5 -48t-11 -60q0 -34 10.5 -62.5t30 -49t46 -32t58.5 -11.5
t59.5 11.5t47 31.5t30.5 48t11 62q0 33 -11 61.5t-30.5 48.5t-46.5 31.5t-59 11.5zM249 487l-44 25l105 144l74 -33z" />
    <glyph glyph-name="ocircumflex" unicode="&#xf4;" horiz-adv-x="509" 
d="M255 424q46 0 86 -17t69.5 -46t46.5 -69t17 -86t-17 -86t-46.5 -69t-70 -46t-87.5 -17q-46 0 -86 17t-69 47t-46 70.5t-17 87.5q0 44 17.5 83t47.5 68t70 46t85 17zM254 359q-31 0 -58 -11.5t-46.5 -31.5t-30.5 -48t-11 -60q0 -34 10.5 -62.5t30 -49t46 -32t58.5 -11.5
t59.5 11.5t47 31.5t30.5 48t11 62q0 33 -11 61.5t-30.5 48.5t-46.5 31.5t-59 11.5zM257 656l139 -130l-51 -39l-88 83l-88 -83l-50 39z" />
    <glyph glyph-name="otilde" unicode="&#xf5;" horiz-adv-x="509" 
d="M255 424q46 0 86 -17t69.5 -46t46.5 -69t17 -86t-17 -86t-46.5 -69t-70 -46t-87.5 -17q-46 0 -86 17t-69 47t-46 70.5t-17 87.5q0 44 17.5 83t47.5 68t70 46t85 17zM254 359q-31 0 -58 -11.5t-46.5 -31.5t-30.5 -48t-11 -60q0 -34 10.5 -62.5t30 -49t46 -32t58.5 -11.5
t59.5 11.5t47 31.5t30.5 48t11 62q0 33 -11 61.5t-30.5 48.5t-46.5 31.5t-59 11.5zM121 540q13 34 35 52.5t51 18.5q14 0 29 -5t33 -16q20 -12 29 -16t18 -4q14 0 24.5 9.5t21.5 33.5l42 -32q-13 -34 -36.5 -53.5t-51.5 -19.5q-12 0 -24.5 4.5t-32.5 16.5q-20 11 -32.5 16
t-21.5 5q-29 0 -42 -44z" />
    <glyph glyph-name="odieresis" unicode="&#xf6;" horiz-adv-x="509" 
d="M255 424q46 0 86 -17t69.5 -46t46.5 -69t17 -86t-17 -86t-46.5 -69t-70 -46t-87.5 -17q-46 0 -86 17t-69 47t-46 70.5t-17 87.5q0 44 17.5 83t47.5 68t70 46t85 17zM254 359q-31 0 -58 -11.5t-46.5 -31.5t-30.5 -48t-11 -60q0 -34 10.5 -62.5t30 -49t46 -32t58.5 -11.5
t59.5 11.5t47 31.5t30.5 48t11 62q0 33 -11 61.5t-30.5 48.5t-46.5 31.5t-59 11.5zM168 610q21 0 35.5 -14.5t14.5 -35.5q0 -20 -15 -35t-35 -15q-21 0 -35.5 14.5t-14.5 36.5q0 20 15 34.5t35 14.5zM341 610q21 0 35.5 -14.5t14.5 -35.5t-14.5 -35.5t-35.5 -14.5t-35.5 15
t-14.5 36q0 20 15 34.5t35 14.5z" />
    <glyph glyph-name="divide" unicode="&#xf7;" horiz-adv-x="556" 
d="M43 371h471v-61h-471v61zM279 256q19 0 32.5 -13.5t13.5 -33.5t-13.5 -33.5t-32.5 -13.5q-20 0 -33.5 14t-13.5 34q0 19 13.5 32.5t33.5 13.5zM279 518q19 0 32.5 -13.5t13.5 -33.5t-13.5 -33.5t-32.5 -13.5q-20 0 -33.5 14t-13.5 34q0 19 13.5 32.5t33.5 13.5z" />
    <glyph glyph-name="oslash" unicode="&#xf8;" horiz-adv-x="509" 
d="M79 74q-44 59 -44 134q0 45 17 84.5t47 68.5t70 46t86 17q39 0 70 -10.5t62 -33.5l59 60l40 -40l-59 -59q20 -20 33.5 -58t13.5 -78q0 -45 -17 -85t-46.5 -69t-69.5 -46t-85 -17q-38 0 -70 11t-66 34l-60 -59l-40 41zM337 333q-33 26 -83 26q-32 0 -58.5 -11.5t-46 -32
t-30.5 -49t-11 -62.5q0 -24 5 -43t17 -38zM168 80q33 -27 86 -27q32 0 59 11.5t46.5 32t30.5 48.5t11 61q0 28 -5.5 48t-18.5 40z" />
    <glyph glyph-name="ugrave" unicode="&#xf9;" horiz-adv-x="455" 
d="M134 173q0 -29 3 -46.5t10 -31.5q11 -20 32.5 -31t48.5 -11q26 0 47.5 11t32.5 31q7 14 10 31.5t3 46.5v242h71v-250q0 -46 -8.5 -74t-29.5 -51q-23 -26 -55.5 -39t-70.5 -13q-39 0 -71.5 13t-55.5 39q-21 23 -29.5 51t-8.5 74v250h71v-242zM175 656l106 -144l-45 -25
l-135 136z" />
    <glyph glyph-name="uacute" unicode="&#xfa;" horiz-adv-x="455" 
d="M134 173q0 -29 3 -46.5t10 -31.5q11 -20 32.5 -31t48.5 -11q26 0 47.5 11t32.5 31q7 14 10 31.5t3 46.5v242h71v-250q0 -46 -8.5 -74t-29.5 -51q-23 -26 -55.5 -39t-70.5 -13q-39 0 -71.5 13t-55.5 39q-21 23 -29.5 51t-8.5 74v250h71v-242zM219 487l-44 25l105 144
l74 -33z" />
    <glyph glyph-name="ucircumflex" unicode="&#xfb;" horiz-adv-x="455" 
d="M134 173q0 -29 3 -46.5t10 -31.5q11 -20 32.5 -31t48.5 -11q26 0 47.5 11t32.5 31q7 14 10 31.5t3 46.5v242h71v-250q0 -46 -8.5 -74t-29.5 -51q-23 -26 -55.5 -39t-70.5 -13q-39 0 -71.5 13t-55.5 39q-21 23 -29.5 51t-8.5 74v250h71v-242zM227 656l139 -130l-51 -39
l-88 83l-88 -83l-50 39z" />
    <glyph glyph-name="udieresis" unicode="&#xfc;" horiz-adv-x="455" 
d="M134 173q0 -29 3 -46.5t10 -31.5q11 -20 32.5 -31t48.5 -11q26 0 47.5 11t32.5 31q7 14 10 31.5t3 46.5v242h71v-250q0 -46 -8.5 -74t-29.5 -51q-23 -26 -55.5 -39t-70.5 -13q-39 0 -71.5 13t-55.5 39q-21 23 -29.5 51t-8.5 74v250h71v-242zM141 610q21 0 35.5 -14.5
t14.5 -35.5q0 -20 -15 -35t-35 -15q-21 0 -35.5 14.5t-14.5 36.5q0 20 15 34.5t35 14.5zM314 610q21 0 35.5 -14.5t14.5 -35.5t-14.5 -35.5t-35.5 -14.5t-35.5 15t-14.5 36q0 20 15 34.5t35 14.5z" />
    <glyph glyph-name="yacute" unicode="&#xfd;" horiz-adv-x="449" 
d="M3 415h82l147 -297l134 297h81l-307 -649h-80l134 273zM216 487l-44 25l105 144l74 -33z" />
    <glyph glyph-name="thorn" unicode="&#xfe;" 
d="M63 -234v963h71v-373q58 68 143 68q44 0 80.5 -16.5t63 -46t41.5 -69.5t15 -88q0 -46 -15 -86t-41.5 -68.5t-62.5 -45t-79 -16.5q-45 0 -79.5 17t-65.5 53v-292h-71zM268 359q-30 0 -55.5 -11.5t-44 -31.5t-28.5 -48.5t-10 -62.5q0 -68 38.5 -110t99.5 -42q29 0 54 11.5
t43 31.5t28.5 47.5t10.5 58.5q0 35 -10 63.5t-28 49.5t-43 32.5t-55 11.5z" />
    <glyph glyph-name="ydieresis" unicode="&#xff;" horiz-adv-x="449" 
d="M3 415h82l147 -297l134 297h81l-307 -649h-80l134 273zM138 610q21 0 35.5 -14.5t14.5 -35.5q0 -20 -15 -35t-35 -15q-21 0 -35.5 14.5t-14.5 36.5q0 20 15 34.5t35 14.5zM312 610q21 0 35.5 -14.5t14.5 -35.5t-14.5 -35.5t-35.5 -14.5t-35.5 15t-14.5 36q0 20 15 34.5
t35 14.5z" />
    <glyph glyph-name="Amacron" unicode="&#x100;" horiz-adv-x="607" 
d="M161 189l-80 -189h-81l307 699l300 -699h-82l-79 189h-285zM306 525l-114 -267h225zM453 824v-62h-293v62h293z" />
    <glyph glyph-name="amacron" unicode="&#x101;" 
d="M450 415v-415h-71v58q-30 -36 -64 -53t-79 -17q-43 0 -80 16.5t-63.5 46t-41.5 70t-15 88.5q0 47 15 86.5t41.5 68.5t62.5 45t79 16q45 0 79.5 -16.5t65.5 -52.5v59h71zM246 360q-29 0 -54 -11.5t-43.5 -31.5t-29 -47.5t-10.5 -59.5q0 -34 10 -63t28 -50t43 -32.5
t55 -11.5q31 0 56.5 11.5t44 32t28.5 49t10 62.5q0 68 -38.5 110t-99.5 42zM393 587v-60h-268v60h268z" />
    <glyph glyph-name="Abreve" unicode="&#x102;" horiz-adv-x="607" 
d="M161 189l-80 -189h-81l307 699l300 -699h-82l-79 189h-285zM306 525l-114 -267h225zM232 861q9 -35 26.5 -51t47.5 -16q59 0 75 67h64q-7 -62 -43.5 -96t-95.5 -34q-34 0 -62.5 13t-47.5 36q-14 17 -19.5 34.5t-8.5 46.5h64z" />
    <glyph glyph-name="abreve" unicode="&#x103;" 
d="M450 415v-415h-71v58q-30 -36 -64 -53t-79 -17q-43 0 -80 16.5t-63.5 46t-41.5 70t-15 88.5q0 47 15 86.5t41.5 68.5t62.5 45t79 16q45 0 79.5 -16.5t65.5 -52.5v59h71zM246 360q-29 0 -54 -11.5t-43.5 -31.5t-29 -47.5t-10.5 -59.5q0 -34 10 -63t28 -50t43 -32.5
t55 -11.5q31 0 56.5 11.5t44 32t28.5 49t10 62.5q0 68 -38.5 110t-99.5 42zM190 633q3 -33 21 -51.5t47 -18.5q59 0 70 70h62q-7 -60 -42.5 -95t-89.5 -35q-57 0 -92.5 35.5t-37.5 94.5h62z" />
    <glyph glyph-name="Aogonek" unicode="&#x104;" horiz-adv-x="607" 
d="M607 0q-76 -49 -76 -89q0 -17 11.5 -28t28.5 -11q24 0 55 16l-8 -61q-14 -9 -26 -12.5t-32 -3.5q-41 0 -68.5 25t-27.5 62q0 30 17.5 53t59.5 49h-16l-79 189h-285l-80 -189h-81l307 699zM306 525l-114 -267h225z" />
    <glyph glyph-name="aogonek" unicode="&#x105;" 
d="M450 0q-37 -26 -54 -46.5t-17 -40.5q0 -16 10.5 -26.5t27.5 -10.5q13 0 24 2.5t27 10.5l-9 -55q-14 -8 -26 -10.5t-27 -2.5q-37 0 -62 23t-25 55q0 53 75 101h-15v58q-30 -36 -64 -53t-79 -17q-43 0 -80 16.5t-63.5 46t-41.5 70t-15 88.5q0 47 15 86.5t41.5 68.5t62.5 45
t79 16q45 0 79.5 -16.5t65.5 -52.5v59h71v-415zM246 360q-29 0 -54 -11.5t-43.5 -31.5t-29 -47.5t-10.5 -59.5q0 -34 10 -63t28 -50t43 -32.5t55 -11.5q31 0 56.5 11.5t44 32t28.5 49t10 62.5q0 68 -38.5 110t-99.5 42z" />
    <glyph glyph-name="Cacute" unicode="&#x106;" horiz-adv-x="631" 
d="M588 520q-49 46 -97 67t-105 21q-55 0 -104 -22t-85.5 -59.5t-58 -88.5t-21.5 -108q0 -56 21.5 -105.5t58 -86.5t86 -58.5t104.5 -21.5q56 0 104.5 21t96.5 66v-92q-49 -34 -97.5 -49.5t-103.5 -15.5q-71 0 -133.5 27t-109.5 74t-74.5 109.5t-27.5 132.5q0 72 27.5 135
t75 110t111 74.5t135.5 27.5q56 0 101 -15.5t96 -50.5v-92zM373 720l-43 32l120 130l67 -45z" />
    <glyph glyph-name="cacute" unicode="&#x107;" horiz-adv-x="424" 
d="M385 291q-35 38 -63.5 53t-66.5 15q-31 0 -58 -11.5t-47 -32t-31 -48.5t-11 -61t11 -61t30.5 -48.5t46 -32t57.5 -11.5q39 0 69.5 16t65.5 56v-94q-38 -24 -67.5 -33.5t-65.5 -9.5q-46 0 -86.5 17t-70 46t-46.5 68.5t-17 85.5q0 47 17 87t46.5 69t70 46t87.5 17
q37 0 67 -9t62 -30v-94zM246 487l-44 25l105 144l74 -33z" />
    <glyph glyph-name="Ccircumflex" unicode="&#x108;" horiz-adv-x="631" 
d="M588 520q-49 46 -97 67t-105 21q-55 0 -104 -22t-85.5 -59.5t-58 -88.5t-21.5 -108q0 -56 21.5 -105.5t58 -86.5t86 -58.5t104.5 -21.5q56 0 104.5 21t96.5 66v-92q-49 -34 -97.5 -49.5t-103.5 -15.5q-71 0 -133.5 27t-109.5 74t-74.5 109.5t-27.5 132.5q0 72 27.5 135
t75 110t111 74.5t135.5 27.5q56 0 101 -15.5t96 -50.5v-92zM386 881l141 -119l-53 -41l-88 76l-88 -76l-51 41z" />
    <glyph glyph-name="ccircumflex" unicode="&#x109;" horiz-adv-x="423" 
d="M385 291q-35 38 -63.5 53t-66.5 15q-31 0 -58 -11.5t-47 -32t-31 -48.5t-11 -61t11 -61t30.5 -48.5t46 -32t57.5 -11.5q39 0 69.5 16t65.5 56v-94q-38 -24 -67.5 -33.5t-65.5 -9.5q-46 0 -86.5 17t-70 46t-46.5 68.5t-17 85.5q0 47 17 87t46.5 69t70 46t87.5 17
q37 0 67 -9t62 -30v-94zM239 656l139 -130l-52 -39l-87 83l-88 -83l-50 39z" />
    <glyph glyph-name="Cdotaccent" unicode="&#x10a;" horiz-adv-x="631" 
d="M588 520q-49 46 -97 67t-105 21q-55 0 -104 -22t-85.5 -59.5t-58 -88.5t-21.5 -108q0 -56 21.5 -105.5t58 -86.5t86 -58.5t104.5 -21.5q56 0 104.5 21t96.5 66v-92q-49 -34 -97.5 -49.5t-103.5 -15.5q-71 0 -133.5 27t-109.5 74t-74.5 109.5t-27.5 132.5q0 72 27.5 135
t75 110t111 74.5t135.5 27.5q56 0 101 -15.5t96 -50.5v-92zM386 850q23 0 38.5 -15.5t15.5 -37.5q0 -23 -15.5 -38.5t-37.5 -15.5q-23 0 -38.5 15.5t-15.5 38.5q0 22 15.5 37.5t37.5 15.5z" />
    <glyph glyph-name="cdotaccent" unicode="&#x10b;" horiz-adv-x="423" 
d="M385 291q-35 38 -63.5 53t-66.5 15q-31 0 -58 -11.5t-47 -32t-31 -48.5t-11 -61t11 -61t30.5 -48.5t46 -32t57.5 -11.5q39 0 69.5 16t65.5 56v-94q-38 -24 -67.5 -33.5t-65.5 -9.5q-46 0 -86.5 17t-70 46t-46.5 68.5t-17 85.5q0 47 17 87t46.5 69t70 46t87.5 17
q37 0 67 -9t62 -30v-94zM251 610q21 0 36 -15t15 -36t-15 -36t-36 -15t-36 15t-15 37q0 20 15 35t36 15z" />
    <glyph glyph-name="Ccaron" unicode="&#x10c;" horiz-adv-x="631" 
d="M588 520q-49 46 -97 67t-105 21q-55 0 -104 -22t-85.5 -59.5t-58 -88.5t-21.5 -108q0 -56 21.5 -105.5t58 -86.5t86 -58.5t104.5 -21.5q56 0 104.5 21t96.5 66v-92q-49 -34 -97.5 -49.5t-103.5 -15.5q-71 0 -133.5 27t-109.5 74t-74.5 109.5t-27.5 132.5q0 72 27.5 135
t75 110t111 74.5t135.5 27.5q56 0 101 -15.5t96 -50.5v-92zM387 721l-140 119l53 41l87 -75l88 75l52 -41z" />
    <glyph glyph-name="ccaron" unicode="&#x10d;" horiz-adv-x="424" 
d="M385 291q-35 38 -63.5 53t-66.5 15q-31 0 -58 -11.5t-47 -32t-31 -48.5t-11 -61t11 -61t30.5 -48.5t46 -32t57.5 -11.5q39 0 69.5 16t65.5 56v-94q-38 -24 -67.5 -33.5t-65.5 -9.5q-46 0 -86.5 17t-70 46t-46.5 68.5t-17 85.5q0 47 17 87t46.5 69t70 46t87.5 17
q37 0 67 -9t62 -30v-94zM252 487l-139 130l51 39l88 -82l88 82l50 -39z" />
    <glyph glyph-name="Dcaron" unicode="&#x10e;" horiz-adv-x="619" 
d="M80 667h137q81 0 139 -18t106 -59q57 -47 86 -112.5t29 -143.5q0 -79 -29.5 -144t-87.5 -113q-50 -42 -106.5 -59.5t-137.5 -17.5h-136v667zM220 69q62 0 107.5 14.5t83.5 46.5q45 37 68 89.5t23 113.5q0 62 -23.5 115t-66.5 89q-38 32 -84 46.5t-108 14.5h-65v-529h65z
M277 721l-140 119l53 41l87 -75l88 75l52 -41z" />
    <glyph glyph-name="dcaron" unicode="&#x10f;" horiz-adv-x="607" 
d="M450 729v-729h-72v57q-52 -69 -142 -69q-43 0 -79.5 16.5t-63.5 46t-42 69.5t-15 88q0 47 15 86.5t41.5 68.5t62.5 45t79 16q45 0 79.5 -16.5t65.5 -51.5v373h71zM246 359q-29 0 -54 -11.5t-43.5 -31.5t-29 -47t-10.5 -59q0 -34 10 -63t28 -50t43 -32.5t55 -11.5
q63 0 100.5 42.5t37.5 112.5q0 75 -42 113q-20 18 -44.5 28t-50.5 10zM612 712l-65 -154l-51 16l47 159z" />
    <glyph glyph-name="Dcroat" unicode="&#x110;" horiz-adv-x="619" 
d="M81 326h-67v67h67v274h136q81 0 138.5 -18t105.5 -59q57 -47 86 -112.5t29 -144.5q0 -78 -29.5 -143t-87.5 -113q-49 -41 -105.5 -59t-137.5 -18h-135v326zM220 69q61 0 106.5 14.5t83.5 46.5q45 37 68 89.5t23 113.5q0 62 -23.5 115t-66.5 89q-38 32 -84 46.5t-107 14.5
h-64v-205h159v-67h-159v-257h64z" />
    <glyph glyph-name="dcroat" unicode="&#x111;" 
d="M450 729v-93h60v-63h-60v-573h-71v57q-57 -69 -144 -69q-43 0 -79.5 16.5t-63.5 46t-42 69.5t-15 88q0 47 15 86.5t41.5 68.5t62.5 45t79 16q45 0 80 -16.5t66 -51.5v217h-121v63h121v93h71zM245 359q-29 0 -54 -11.5t-43.5 -31.5t-29 -47t-10.5 -59q0 -34 10 -63t28 -50
t43 -32.5t55 -11.5q31 0 57 11.5t44.5 32t28.5 49t10 62.5q0 67 -38.5 109t-100.5 42z" />
    <glyph glyph-name="Emacron" unicode="&#x112;" horiz-adv-x="469" 
d="M155 598v-199h263v-69h-263v-261h270v-69h-345v667h345v-69h-270zM399 824v-62h-293v62h293z" />
    <glyph glyph-name="emacron" unicode="&#x113;" horiz-adv-x="469" 
d="M110 193q3 -64 39 -102t93 -38q42 0 70 19.5t58 67.5l60 -34q-35 -61 -81.5 -89.5t-109.5 -28.5q-45 0 -82.5 16t-64.5 44.5t-42 68.5t-15 88q0 49 14.5 89t41 69t63.5 45t82 16t81.5 -15.5t62.5 -44.5t40 -69t14 -90v-12h-324zM359 253q-10 49 -43 78t-79 29
q-45 0 -79.5 -30t-42.5 -77h244zM379 587v-60h-269v60h269z" />
    <glyph glyph-name="Ebreve" unicode="&#x114;" horiz-adv-x="469" 
d="M155 598v-199h263v-69h-263v-261h270v-69h-345v667h345v-69h-270zM178 861q9 -35 26.5 -51t47.5 -16q60 0 75 67h64q-7 -62 -43.5 -96t-95.5 -34q-34 0 -62 13t-48 36q-14 17 -19.5 34.5t-8.5 46.5h64z" />
    <glyph glyph-name="ebreve" unicode="&#x115;" horiz-adv-x="469" 
d="M110 193q3 -64 39 -102t93 -38q42 0 70 19.5t58 67.5l60 -34q-35 -61 -81.5 -89.5t-109.5 -28.5q-45 0 -82.5 16t-64.5 44.5t-42 68.5t-15 88q0 49 14.5 89t41 69t63.5 45t82 16t81.5 -15.5t62.5 -44.5t40 -69t14 -90v-12h-324zM359 253q-10 49 -43 78t-79 29
q-45 0 -79.5 -30t-42.5 -77h244zM177 633q3 -33 21 -51.5t47 -18.5q59 0 70 70h62q-7 -60 -42.5 -95t-89.5 -35q-57 0 -92.5 35.5t-37.5 94.5h62z" />
    <glyph glyph-name="Edotaccent" unicode="&#x116;" horiz-adv-x="469" 
d="M155 598v-199h263v-69h-263v-261h270v-69h-345v667h345v-69h-270zM252 850q23 0 38.5 -15.5t15.5 -37.5q0 -23 -15.5 -38.5t-37.5 -15.5q-23 0 -38.5 15.5t-15.5 38.5q0 22 15.5 37.5t37.5 15.5z" />
    <glyph glyph-name="edotaccent" unicode="&#x117;" horiz-adv-x="469" 
d="M110 193q3 -64 39 -102t93 -38q42 0 70 19.5t58 67.5l60 -34q-35 -61 -81.5 -89.5t-109.5 -28.5q-45 0 -82.5 16t-64.5 44.5t-42 68.5t-15 88q0 49 14.5 89t41 69t63.5 45t82 16t81.5 -15.5t62.5 -44.5t40 -69t14 -90v-12h-324zM359 253q-10 49 -43 78t-79 29
q-45 0 -79.5 -30t-42.5 -77h244zM244 610q21 0 36 -15t15 -36t-15 -36t-36 -15t-36 15t-15 37q0 20 15 35t36 15z" />
    <glyph glyph-name="Eogonek" unicode="&#x118;" horiz-adv-x="469" 
d="M425 0q-75 -48 -75 -89q0 -17 11.5 -28t28.5 -11q23 0 54 16l-7 -61q-14 -9 -26.5 -12.5t-31.5 -3.5q-41 0 -68.5 25t-27.5 62q0 30 17.5 53t59.5 49h-280v667h345v-69h-270v-199h263v-69h-263v-261h270v-69z" />
    <glyph glyph-name="eogonek" unicode="&#x119;" horiz-adv-x="469" 
d="M377 -166q-14 -7 -26 -10t-27 -3q-38 0 -63 23.5t-25 58.5q0 23 13 43.5t45 48.5q-18 -5 -29 -6t-23 -1q-46 0 -84 16t-65.5 44.5t-42.5 68.5t-15 88q0 49 14.5 89t41 69t63.5 45t82 16t81.5 -15.5t62.5 -44.5t40 -69t14 -90v-12h-324q3 -64 39 -102t93 -38q42 0 70 19.5
t58 67.5l60 -34q-12 -21 -26.5 -39t-44.5 -48l-19.5 -19.5t-12 -13t-7.5 -9.5t-6 -9q-8 -13 -13.5 -27.5t-5.5 -25.5q0 -17 11 -28t28 -11q14 0 25 2.5t27 10.5zM359 253q-10 49 -43 78t-79 29q-45 0 -79.5 -30t-42.5 -77h244z" />
    <glyph glyph-name="Ecaron" unicode="&#x11a;" horiz-adv-x="469" 
d="M155 598v-199h263v-69h-263v-261h270v-69h-345v667h345v-69h-270zM253 721l-140 119l53 41l87 -75l88 75l52 -41z" />
    <glyph glyph-name="ecaron" unicode="&#x11b;" horiz-adv-x="469" 
d="M110 193q3 -64 39 -102t93 -38q42 0 70 19.5t58 67.5l60 -34q-35 -61 -81.5 -89.5t-109.5 -28.5q-45 0 -82.5 16t-64.5 44.5t-42 68.5t-15 88q0 49 14.5 89t41 69t63.5 45t82 16t81.5 -15.5t62.5 -44.5t40 -69t14 -90v-12h-324zM359 253q-10 49 -43 78t-79 29
q-45 0 -79.5 -30t-42.5 -77h244zM245 487l-139 130l51 39l88 -82l88 82l50 -39z" />
    <glyph glyph-name="Gcircumflex" unicode="&#x11c;" horiz-adv-x="742" 
d="M700 335v-17q0 -56 -8 -95.5t-27 -73.5q-20 -37 -50 -66.5t-67 -50.5t-78.5 -32.5t-85.5 -11.5q-70 0 -132.5 27.5t-109 74t-73.5 109.5t-27 133q0 72 27.5 135t74.5 110t110.5 74t135.5 27q57 0 109 -17.5t95 -50.5q20 -14 36.5 -31t40.5 -46l-55 -50q-50 66 -103 95.5
t-122 29.5q-57 0 -107 -22t-87 -59.5t-58.5 -88t-21.5 -107.5q0 -55 21.5 -105t58 -87t85.5 -59t103 -22q31 0 61.5 8.5t58 23.5t50.5 36t38 46q13 20 19 41.5t8 52.5h-198v69h278zM394 881l140 -119l-53 -41l-87 76l-88 -76l-52 41z" />
    <glyph glyph-name="gcircumflex" unicode="&#x11d;" 
d="M450 9q0 -62 -8.5 -97t-31.5 -66q-27 -37 -70 -57t-95 -20q-91 0 -145 51t-57 139h70q2 -26 6.5 -41t13.5 -29q17 -26 47 -40.5t66 -14.5q133 0 133 163v61q-60 -69 -147 -69q-42 0 -78 16.5t-62.5 46t-41.5 69t-15 85.5q0 47 15 87.5t42 69.5t64 45.5t80 16.5
q84 0 143 -69v59h71v-406zM244 360q-30 0 -55 -11.5t-43 -31.5t-28 -48.5t-10 -61.5q0 -34 10 -62t28 -48t42.5 -31.5t54.5 -11.5t55.5 11t44 31.5t29 48.5t10.5 61q0 34 -10 62.5t-28.5 48.5t-44 31.5t-55.5 11.5zM259 656l139 -130l-52 -39l-87 83l-88 -83l-50 39z" />
    <glyph glyph-name="Gbreve" unicode="&#x11e;" horiz-adv-x="742" 
d="M700 335v-17q0 -56 -8 -95.5t-27 -73.5q-20 -37 -50 -66.5t-67 -50.5t-78.5 -32.5t-85.5 -11.5q-70 0 -132.5 27.5t-109 74t-73.5 109.5t-27 133q0 72 27.5 135t74.5 110t110.5 74t135.5 27q57 0 109 -17.5t95 -50.5q20 -14 36.5 -31t40.5 -46l-55 -50q-50 66 -103 95.5
t-122 29.5q-57 0 -107 -22t-87 -59.5t-58.5 -88t-21.5 -107.5q0 -55 21.5 -105t58 -87t85.5 -59t103 -22q31 0 61.5 8.5t58 23.5t50.5 36t38 46q13 20 19 41.5t8 52.5h-198v69h278zM320 861q8 -35 25.5 -51t48.5 -16q59 0 75 67h64q-8 -62 -44 -96t-95 -34q-34 0 -62.5 13
t-47.5 36q-14 17 -20 34.5t-8 46.5h64z" />
    <glyph glyph-name="gbreve" unicode="&#x11f;" 
d="M450 9q0 -62 -8.5 -97t-31.5 -66q-27 -37 -70 -57t-95 -20q-91 0 -145 51t-57 139h70q2 -26 6.5 -41t13.5 -29q17 -26 47 -40.5t66 -14.5q133 0 133 163v61q-60 -69 -147 -69q-42 0 -78 16.5t-62.5 46t-41.5 69t-15 85.5q0 47 15 87.5t42 69.5t64 45.5t80 16.5
q84 0 143 -69v59h71v-406zM244 360q-30 0 -55 -11.5t-43 -31.5t-28 -48.5t-10 -61.5q0 -34 10 -62t28 -48t42.5 -31.5t54.5 -11.5t55.5 11t44 31.5t29 48.5t10.5 61q0 34 -10 62.5t-28.5 48.5t-44 31.5t-55.5 11.5zM190 633q3 -33 21 -51.5t47 -18.5q59 0 71 70h62
q-8 -60 -43 -95t-90 -35q-57 0 -92.5 35.5t-37.5 94.5h62z" />
    <glyph glyph-name="Gdotaccent" unicode="&#x120;" horiz-adv-x="742" 
d="M700 335v-17q0 -56 -8 -95.5t-27 -73.5q-20 -37 -50 -66.5t-67 -50.5t-78.5 -32.5t-85.5 -11.5q-70 0 -132.5 27.5t-109 74t-73.5 109.5t-27 133q0 72 27.5 135t74.5 110t110.5 74t135.5 27q57 0 109 -17.5t95 -50.5q20 -14 36.5 -31t40.5 -46l-55 -50q-50 66 -103 95.5
t-122 29.5q-57 0 -107 -22t-87 -59.5t-58.5 -88t-21.5 -107.5q0 -55 21.5 -105t58 -87t85.5 -59t103 -22q31 0 61.5 8.5t58 23.5t50.5 36t38 46q13 20 19 41.5t8 52.5h-198v69h278zM394 850q23 0 38.5 -15.5t15.5 -37.5q0 -23 -15.5 -38.5t-37.5 -15.5q-23 0 -38.5 15.5
t-15.5 38.5q0 22 15.5 37.5t37.5 15.5z" />
    <glyph glyph-name="gdotaccent" unicode="&#x121;" 
d="M450 9q0 -62 -8.5 -97t-31.5 -66q-27 -37 -70 -57t-95 -20q-91 0 -145 51t-57 139h70q2 -26 6.5 -41t13.5 -29q17 -26 47 -40.5t66 -14.5q133 0 133 163v61q-60 -69 -147 -69q-42 0 -78 16.5t-62.5 46t-41.5 69t-15 85.5q0 47 15 87.5t42 69.5t64 45.5t80 16.5
q84 0 143 -69v59h71v-406zM244 360q-30 0 -55 -11.5t-43 -31.5t-28 -48.5t-10 -61.5q0 -34 10 -62t28 -48t42.5 -31.5t54.5 -11.5t55.5 11t44 31.5t29 48.5t10.5 61q0 34 -10 62.5t-28.5 48.5t-44 31.5t-55.5 11.5zM259 610q21 0 36 -15t15 -36t-15 -36t-36 -15t-36 15
t-15 37q0 20 15 35t36 15z" />
    <glyph glyph-name="Gcommaaccent" unicode="&#x122;" horiz-adv-x="742" 
d="M700 335v-17q0 -56 -8 -95.5t-27 -73.5q-20 -37 -50 -66.5t-67 -50.5t-78.5 -32.5t-85.5 -11.5q-70 0 -132.5 27.5t-109 74t-73.5 109.5t-27 133q0 72 27.5 135t74.5 110t110.5 74t135.5 27q57 0 109 -17.5t95 -50.5q20 -14 36.5 -31t40.5 -46l-55 -50q-50 66 -103 95.5
t-122 29.5q-57 0 -107 -22t-87 -59.5t-58.5 -88t-21.5 -107.5q0 -55 21.5 -105t58 -87t85.5 -59t103 -22q31 0 61.5 8.5t58 23.5t50.5 36t38 46q13 20 19 41.5t8 52.5h-198v69h278zM431 -77l-79 -152l-51 16l54 160z" />
    <glyph glyph-name="gcommaaccent" unicode="&#x123;" 
d="M450 9q0 -62 -8.5 -97t-31.5 -66q-27 -37 -70 -57t-95 -20q-91 0 -145 51t-57 139h70q2 -26 6.5 -41t13.5 -29q17 -26 47 -40.5t66 -14.5q133 0 133 163v61q-60 -69 -147 -69q-42 0 -78 16.5t-62.5 46t-41.5 69t-15 85.5q0 47 15 87.5t42 69.5t64 45.5t80 16.5
q84 0 143 -69v59h71v-406zM244 360q-30 0 -55 -11.5t-43 -31.5t-28 -48.5t-10 -61.5q0 -34 10 -62t28 -48t42.5 -31.5t54.5 -11.5t55.5 11t44 31.5t29 48.5t10.5 61q0 34 -10 62.5t-28.5 48.5t-44 31.5t-55.5 11.5zM215 510l65 153l51 -16l-47 -158z" />
    <glyph glyph-name="Hcircumflex" unicode="&#x124;" horiz-adv-x="650" 
d="M495 395v272h75v-667h-75v326h-340v-326h-75v667h75v-272h340zM324 881l141 -119l-53 -41l-88 76l-87 -76l-52 41z" />
    <glyph glyph-name="hcircumflex" unicode="&#x125;" horiz-adv-x="461" 
d="M135 729v-363q27 32 54.5 45t65.5 13t69.5 -15.5t49.5 -41.5q13 -20 18.5 -44.5t5.5 -65.5v-257h-71v252q0 57 -20 82t-66 25q-31 0 -54.5 -13t-34.5 -36q-9 -18 -13 -42t-4 -61v-207h-71v729h71zM129 908l141 -120l-53 -40l-88 75l-87 -75l-52 41z" />
    <glyph glyph-name="Hbar" unicode="&#x126;" horiz-adv-x="650" 
d="M570 667v-101h66v-67h-66v-499h-75v326h-340v-326h-75v499h-67v67h67v101h75v-101h340v101h75zM155 499v-104h340v104h-340z" />
    <glyph glyph-name="hbar" unicode="&#x127;" horiz-adv-x="459" 
d="M254 573h-120v-207q26 32 53.5 45t65.5 13t69.5 -15.5t49.5 -41.5q13 -20 18.5 -44.5t5.5 -65.5v-257h-71v252q0 57 -20 82t-66 25q-64 0 -88 -49q-9 -18 -13 -42t-4 -61v-207h-71v573h-60v63h60v93h71v-93h120v-63z" />
    <glyph glyph-name="Itilde" unicode="&#x128;" horiz-adv-x="235" 
d="M155 0h-75v667h75v-667zM-30 780q36 71 89 71q14 0 26.5 -4t37.5 -17q39 -20 54 -20q14 0 24.5 9.5t21.5 33.5l43 -33q-34 -72 -91 -72q-14 0 -28 4.5t-37 16.5q-24 12 -35.5 16t-20.5 4q-13 0 -20.5 -8.5t-20.5 -34.5z" />
    <glyph glyph-name="itilde" unicode="&#x129;" horiz-adv-x="200" 
d="M135 0h-71v415h71v-415zM-42 540q12 34 34.5 52.5t51.5 18.5q14 0 28.5 -5t33.5 -16q20 -12 29 -16t17 -4q15 0 25 9.5t22 33.5l42 -32q-13 -34 -36.5 -53.5t-51.5 -19.5q-13 0 -25 4.5t-32 16.5q-20 11 -32.5 16t-21.5 5q-29 0 -42 -44z" />
    <glyph glyph-name="Imacron" unicode="&#x12a;" horiz-adv-x="235" 
d="M155 0h-75v667h75v-667zM224 824v-62h-213v62h213z" />
    <glyph glyph-name="imacron" unicode="&#x12b;" horiz-adv-x="197" 
d="M134 0h-71v415h71v-415zM206 587v-60h-215v60h215z" />
    <glyph glyph-name="Ibreve" unicode="&#x12c;" horiz-adv-x="235" 
d="M155 0h-75v667h75v-667zM43 861q8 -35 26 -51t48 -16q59 0 75 67h64q-8 -62 -44 -96t-95 -34q-34 0 -62.5 13t-47.5 36q-14 17 -20 34.5t-8 46.5h64z" />
    <glyph glyph-name="ibreve" unicode="&#x12d;" horiz-adv-x="197" 
d="M134 0h-71v415h71v-415zM42 630q1 -32 15 -49t40 -17q25 0 40 17t18 49h60q-5 -57 -37 -91t-81 -34q-36 0 -67 22t-43 57q-3 11 -4 18.5t-1 27.5h60z" />
    <glyph glyph-name="Iogonek" unicode="&#x12e;" horiz-adv-x="235" 
d="M156 0q-21 -23 -34 -48t-13 -42q0 -15 10.5 -24.5t27.5 -9.5q11 0 19 2.5t21 10.5l-6 -60q-16 -8 -26.5 -11t-23.5 -3q-37 0 -61.5 24.5t-24.5 60.5q0 28 14 49.5t52 50.5h-30v667h75v-667z" />
    <glyph glyph-name="iogonek" unicode="&#x12f;" horiz-adv-x="197" 
d="M133 0q-40 -56 -40 -90q0 -15 8.5 -25.5t22.5 -10.5q17 0 36 12l-7 -52q-11 -8 -19 -11t-20 -3q-16 0 -30.5 6.5t-25.5 17t-17.5 25t-6.5 29.5q0 21 13 43.5t46 58.5h-31v415h71v-415zM98 623q21 0 36 -15t15 -36t-15 -36t-36 -15t-36 15t-15 37q0 20 15 35t36 15z" />
    <glyph glyph-name="Idotaccent" unicode="&#x130;" horiz-adv-x="235" 
d="M155 0h-75v667h75v-667zM117 850q23 0 38.5 -15.5t15.5 -37.5q0 -23 -15.5 -38.5t-37.5 -15.5q-23 0 -38.5 15.5t-15.5 38.5q0 22 15.5 37.5t37.5 15.5z" />
    <glyph glyph-name="dotlessi" unicode="&#x131;" horiz-adv-x="200" 
d="M135 0h-71v415h71v-415z" />
    <glyph glyph-name="IJ" unicode="&#x132;" horiz-adv-x="535" 
d="M155 0h-75v667h75v-667zM455 128q0 -62 -10.5 -96.5t-36.5 -60.5q-20 -19 -45.5 -29.5t-54.5 -10.5q-32 0 -60 11.5t-60 37.5l41 58q25 -22 41 -29.5t36 -7.5q39 0 56.5 30.5t17.5 96.5v539h75v-539z" />
    <glyph glyph-name="ij" unicode="&#x133;" horiz-adv-x="401" 
d="M135 0h-71v415h71v-415zM100 623q21 0 36 -15t15 -36t-15 -36t-36 -15t-36 15t-15 37q0 20 15 35t36 15zM337 -234h-71v649h71v-649zM301 623q21 0 36 -15t15 -36t-15 -36t-36 -15t-36 15t-15 37q0 20 15 35t36 15z" />
    <glyph glyph-name="Jcircumflex" unicode="&#x134;" horiz-adv-x="294" 
d="M214 128q0 -62 -10.5 -96.5t-36.5 -60.5q-20 -19 -45.5 -29.5t-54.5 -10.5q-32 0 -60.5 11.5t-59.5 37.5l41 58q25 -22 41 -29.5t36 -7.5q39 0 56.5 30.5t17.5 96.5v539h75v-539zM172 881l141 -119l-53 -41l-88 76l-87 -76l-52 41z" />
    <glyph glyph-name="jcircumflex" unicode="&#x135;" horiz-adv-x="200" 
d="M135 -234h-71v649h71v-649zM99 656l139 -130l-52 -39l-87 83l-88 -83l-50 39z" />
    <glyph glyph-name="Kcommaaccent" unicode="&#x136;" horiz-adv-x="555" 
d="M439 667h100l-313 -311l323 -356h-102l-273 306l-19 -19v-287h-75v667h75v-286zM338 -77l-79 -152l-51 16l54 160z" />
    <glyph glyph-name="kcommaaccent" unicode="&#x137;" horiz-adv-x="410" 
d="M134 262l150 153h95l-177 -177l211 -238h-94l-167 189l-18 -18v-171h-71v729h71v-467zM259 -74l-66 -154l-51 16l47 159z" />
    <glyph glyph-name="kgreenlandic" unicode="&#x138;" horiz-adv-x="417" 
d="M135 262l150 153h95l-177 -177l211 -238h-94l-167 189l-18 -18v-171h-71v415h71v-153z" />
    <glyph glyph-name="Lacute" unicode="&#x139;" horiz-adv-x="345" 
d="M155 69h183v-69h-258v667h75v-598zM114 720l-43 32l119 130l67 -45z" />
    <glyph glyph-name="lacute" unicode="&#x13a;" horiz-adv-x="197" 
d="M134 0h-71v729h71v-729zM98 767l-43 29l99 133l64 -45z" />
    <glyph glyph-name="Lcommaaccent" unicode="&#x13b;" horiz-adv-x="345" 
d="M155 69h183v-69h-258v667h75v-598zM257 -77l-79 -152l-51 16l54 160z" />
    <glyph glyph-name="lcommaaccent" unicode="&#x13c;" horiz-adv-x="197" 
d="M133 0h-71v729h71v-729zM136 -74l-65 -154l-51 16l47 159z" />
    <glyph glyph-name="Lcaron" unicode="&#x13d;" horiz-adv-x="345" 
d="M155 69h183v-69h-258v667h75v-598zM337 646l-78 -152l-51 17l53 159z" />
    <glyph glyph-name="lcaron" unicode="&#x13e;" horiz-adv-x="291" 
d="M134 0h-71v729h71v-729zM297 712l-65 -154l-51 16l47 159z" />
    <glyph glyph-name="Ldot" unicode="&#x13f;" horiz-adv-x="345" 
d="M155 69h183v-69h-258v667h75v-598zM292 404q26 0 45 -18.5t19 -45.5q0 -26 -19 -45t-45 -19q-27 0 -45.5 19t-18.5 46q0 26 19 44.5t45 18.5z" />
    <glyph glyph-name="ldot" unicode="&#x140;" horiz-adv-x="325" 
d="M134 0h-71v729h71v-729zM266 428q26 0 45 -18.5t19 -45.5q0 -26 -19 -45t-45 -19q-27 0 -45.5 19t-18.5 46q0 26 19 44.5t45 18.5z" />
    <glyph glyph-name="Lslash" unicode="&#x141;" horiz-adv-x="345" 
d="M268 474v-76l-113 -80v-249h183v-69h-258v285l-67 -46v75l67 47v306h75v-273z" />
    <glyph glyph-name="lslash" unicode="&#x142;" horiz-adv-x="197" 
d="M197 469v-76l-64 -48v-345h-71v312l-63 -47v76l63 47v341h71v-308z" />
    <glyph glyph-name="Nacute" unicode="&#x143;" horiz-adv-x="754" 
d="M80 695l519 -545v517h75v-697l-519 544v-514h-75v695zM362 720l-43 32l119 130l67 -45z" />
    <glyph glyph-name="nacute" unicode="&#x144;" horiz-adv-x="458" 
d="M134 415v-50q27 33 54 46.5t66 13.5q38 0 70 -15.5t49 -41.5q12 -20 17.5 -45t5.5 -66v-257h-71v245q0 33 -3 50.5t-11 30.5q-21 35 -74 35q-54 0 -78.5 -36.5t-24.5 -117.5v-207h-71v415h71zM214 487l-44 25l105 144l74 -33z" />
    <glyph glyph-name="Ncommaaccent" unicode="&#x145;" horiz-adv-x="754" 
d="M80 695l519 -545v517h75v-697l-519 544v-514h-75v695zM417 -77l-79 -152l-51 16l54 160z" />
    <glyph glyph-name="ncommaaccent" unicode="&#x146;" horiz-adv-x="458" 
d="M134 415v-50q27 33 54 46.5t66 13.5q38 0 70 -15.5t49 -41.5q12 -20 17.5 -45t5.5 -66v-257h-71v245q0 33 -3 50.5t-11 30.5q-21 35 -74 35q-54 0 -78.5 -36.5t-24.5 -117.5v-207h-71v415h71zM266 -74l-65 -154l-51 16l47 159z" />
    <glyph glyph-name="Ncaron" unicode="&#x147;" horiz-adv-x="754" 
d="M80 695l519 -545v517h75v-697l-519 544v-514h-75v695zM378 721l-141 119l53 41l88 -75l87 75l52 -41z" />
    <glyph glyph-name="ncaron" unicode="&#x148;" horiz-adv-x="458" 
d="M134 415v-50q27 33 54 46.5t66 13.5q38 0 70 -15.5t49 -41.5q12 -20 17.5 -45t5.5 -66v-257h-71v245q0 33 -3 50.5t-11 30.5q-21 35 -74 35q-54 0 -78.5 -36.5t-24.5 -117.5v-207h-71v415h71zM223 487l-139 130l52 39l87 -82l88 82l50 -39z" />
    <glyph glyph-name="napostrophe" unicode="&#x149;" horiz-adv-x="580" 
d="M213 632l-100 -226l-48 19l83 231zM254 415v-50q27 33 54 46.5t66 13.5q38 0 70 -15.5t49 -41.5q12 -20 17.5 -45t5.5 -66v-257h-71v245q0 33 -3 50.5t-11 30.5q-21 35 -74 35q-54 0 -78.5 -36.5t-24.5 -117.5v-207h-71v415h71z" />
    <glyph glyph-name="Eng" unicode="&#x14a;" horiz-adv-x="650" 
d="M155 667v-86q43 53 86 75t104 22q60 0 110.5 -24.5t77.5 -66.5q20 -32 28.5 -73t8.5 -105v-239q0 -61 -9 -101.5t-29 -66.5q-26 -35 -66 -53t-90 -18q-22 0 -39 3t-44 11v72q26 -9 42.5 -12.5t37.5 -3.5q32 0 57.5 8.5t39.5 23.5q14 16 19.5 42t5.5 80v268
q0 53 -5.5 81.5t-19.5 48.5q-18 26 -53 40.5t-80 14.5q-54 0 -93 -20.5t-59 -58.5q-16 -30 -23 -68.5t-7 -98.5v-362h-75v667h75z" />
    <glyph glyph-name="eng" unicode="&#x14b;" horiz-adv-x="461" 
d="M135 415v-50q27 33 54 46.5t66 13.5q38 0 70 -15.5t49 -41.5q12 -20 17.5 -45t5.5 -66v-177q0 -74 -24 -105q-33 -44 -99 -44q-14 0 -25 1.5t-28 6.5v72q16 -5 26 -7t22 -2q34 0 45.5 19.5t11.5 74.5v149q0 33 -3 50.5t-11 30.5q-10 17 -29.5 26t-44.5 9
q-54 0 -78.5 -36.5t-24.5 -117.5v-207h-71v415h71z" />
    <glyph glyph-name="Omacron" unicode="&#x14c;" horiz-adv-x="778" 
d="M390 678q71 0 134 -27.5t110 -74.5t74.5 -109.5t27.5 -133.5q0 -72 -27.5 -134.5t-75 -109.5t-111.5 -74t-136 -27t-140 31t-118 86q-42 48 -64 106t-22 126q0 69 28 131t75.5 108.5t111 74t133.5 27.5zM389 608q-56 0 -105.5 -21.5t-86.5 -58.5t-58.5 -86t-21.5 -105
q0 -123 85 -203q38 -36 86.5 -56t98.5 -20q57 0 107 21.5t87 58.5t58.5 87.5t21.5 107.5t-21.5 107t-58 87.5t-86 59t-106.5 21.5zM536 824v-62h-294v62h294z" />
    <glyph glyph-name="omacron" unicode="&#x14d;" horiz-adv-x="509" 
d="M255 424q46 0 86 -17t69.5 -46t46.5 -69t17 -86t-17 -86t-46.5 -69t-70 -46t-87.5 -17q-46 0 -86 17t-69 47t-46 70.5t-17 87.5q0 44 17.5 83t47.5 68t70 46t85 17zM254 359q-31 0 -58 -11.5t-46.5 -31.5t-30.5 -48t-11 -60q0 -34 10.5 -62.5t30 -49t46 -32t58.5 -11.5
t59.5 11.5t47 31.5t30.5 48t11 62q0 33 -11 61.5t-30.5 48.5t-46.5 31.5t-59 11.5zM389 587v-60h-269v60h269z" />
    <glyph glyph-name="Obreve" unicode="&#x14e;" horiz-adv-x="778" 
d="M390 678q71 0 134 -27.5t110 -74.5t74.5 -109.5t27.5 -133.5q0 -72 -27.5 -134.5t-75 -109.5t-111.5 -74t-136 -27t-140 31t-118 86q-42 48 -64 106t-22 126q0 69 28 131t75.5 108.5t111 74t133.5 27.5zM389 608q-56 0 -105.5 -21.5t-86.5 -58.5t-58.5 -86t-21.5 -105
q0 -123 85 -203q38 -36 86.5 -56t98.5 -20q57 0 107 21.5t87 58.5t58.5 87.5t21.5 107.5t-21.5 107t-58 87.5t-86 59t-106.5 21.5zM314 861q9 -35 26.5 -51t47.5 -16q60 0 76 67h64q-8 -62 -44.5 -96t-94.5 -34q-35 0 -63 13t-47 36q-14 17 -20 34.5t-8 46.5h63z" />
    <glyph glyph-name="obreve" unicode="&#x14f;" horiz-adv-x="508" 
d="M255 424q46 0 86 -17t69.5 -46t46.5 -69t17 -86t-17 -86t-46.5 -69t-70 -46t-87.5 -17q-46 0 -86 17t-69 47t-46 70.5t-17 87.5q0 44 17.5 83t47.5 68t70 46t85 17zM254 359q-31 0 -58 -11.5t-46.5 -31.5t-30.5 -48t-11 -60q0 -34 10.5 -62.5t30 -49t46 -32t58.5 -11.5
t59.5 11.5t47 31.5t30.5 48t11 62q0 33 -11 61.5t-30.5 48.5t-46.5 31.5t-59 11.5zM185 633q3 -33 21 -51.5t47 -18.5q59 0 71 70h62q-8 -60 -43 -95t-90 -35q-57 0 -92.5 35.5t-37.5 94.5h62z" />
    <glyph glyph-name="Ohungarumlaut" unicode="&#x150;" horiz-adv-x="778" 
d="M390 678q71 0 134 -27.5t110 -74.5t74.5 -109.5t27.5 -133.5q0 -72 -27.5 -134.5t-75 -109.5t-111.5 -74t-136 -27t-140 31t-118 86q-42 48 -64 106t-22 126q0 69 28 131t75.5 108.5t111 74t133.5 27.5zM389 608q-56 0 -105.5 -21.5t-86.5 -58.5t-58.5 -86t-21.5 -105
q0 -123 85 -203q38 -36 86.5 -56t98.5 -20q57 0 107 21.5t87 58.5t58.5 87.5t21.5 107.5t-21.5 107t-58 87.5t-86 59t-106.5 21.5zM318 724l-36 28l119 130l63 -36zM485 724l-36 28l118 130l64 -36z" />
    <glyph glyph-name="ohungarumlaut" unicode="&#x151;" horiz-adv-x="509" 
d="M255 424q46 0 86 -17t69.5 -46t46.5 -69t17 -86t-17 -86t-46.5 -69t-70 -46t-87.5 -17q-46 0 -86 17t-69 47t-46 70.5t-17 87.5q0 44 17.5 83t47.5 68t70 46t85 17zM254 359q-31 0 -58 -11.5t-46.5 -31.5t-30.5 -48t-11 -60q0 -34 10.5 -62.5t30 -49t46 -32t58.5 -11.5
t59.5 11.5t47 31.5t30.5 48t11 62q0 33 -11 61.5t-30.5 48.5t-46.5 31.5t-59 11.5zM203 487l-37 23l105 146l64 -31zM336 487l-37 23l106 146l64 -31z" />
    <glyph glyph-name="OE" unicode="&#x152;" horiz-adv-x="1041" 
d="M732 598v-199h259v-69h-259v-261h266v-69h-341v128q-101 -140 -266 -140q-72 0 -135.5 27t-111 74t-75 109.5t-27.5 133.5q0 72 27 135t74 110t110 74t135 27q85 0 150 -34.5t119 -107.5v131h341v-69h-266zM387 608q-54 0 -103 -22t-86 -59t-59 -86t-22 -104
q0 -58 21 -108.5t57.5 -88.5t85 -60t103.5 -22q57 0 106.5 21.5t86.5 59t58.5 87t21.5 106.5t-21.5 107t-58 87.5t-85.5 59.5t-105 22z" />
    <glyph glyph-name="oe" unicode="&#x153;" horiz-adv-x="837" 
d="M476 194q3 -63 40.5 -102t95.5 -39q41 0 71 21.5t54 66.5l60 -35q-67 -118 -190 -118q-56 0 -102.5 27t-69.5 72q-29 -47 -77 -73t-106 -26q-45 0 -84.5 17t-69 46.5t-46.5 69t-17 84.5q0 46 17 86t47 69.5t70.5 46.5t86.5 17q57 0 105 -26t74 -72q23 47 67 72.5
t101 25.5q45 0 82 -15.5t63.5 -43.5t40.5 -68t14 -89v-14h-327zM728 254q-11 51 -42.5 78t-80.5 27q-98 0 -123 -105h246zM253 359q-31 0 -57.5 -11.5t-46 -31.5t-30.5 -47.5t-11 -60.5q0 -34 10.5 -62.5t30 -49t46 -32t57.5 -11.5q32 0 59.5 11t47 31.5t30.5 48t11 60.5
q0 34 -10.5 62.5t-30 49t-46.5 32t-60 11.5z" />
    <glyph glyph-name="Racute" unicode="&#x154;" horiz-adv-x="489" 
d="M466 0h-91l-201 292h-19v-292h-75v667h108q57 0 94 -8t66 -28q35 -23 54.5 -63t19.5 -88q0 -76 -45.5 -125.5t-122.5 -56.5zM202 358q71 0 109 31.5t38 90.5q0 31 -13 56.5t-36 39.5q-18 11 -42 16.5t-59 5.5h-44v-240h47zM219 720l-43 32l120 130l67 -45z" />
    <glyph glyph-name="racute" unicode="&#x155;" horiz-adv-x="284" 
d="M134 415v-45q14 17 25 27.5t21.5 16.5t21.5 8.5t26 2.5q17 0 30.5 -3.5t32.5 -14.5l-33 -64q-14 8 -22.5 11t-19.5 3q-20 0 -38.5 -10.5t-27.5 -27.5q-8 -15 -12 -38.5t-4 -61.5v-219h-71v415h71zM154 487l-45 25l106 144l74 -33z" />
    <glyph glyph-name="Rcommaaccent" unicode="&#x156;" horiz-adv-x="489" 
d="M466 0h-91l-201 292h-19v-292h-75v667h108q57 0 94 -8t66 -28q35 -23 54.5 -63t19.5 -88q0 -76 -45.5 -125.5t-122.5 -56.5zM202 358q71 0 109 31.5t38 90.5q0 31 -13 56.5t-36 39.5q-18 11 -42 16.5t-59 5.5h-44v-240h47zM298 -77l-78 -152l-51 16l53 160z" />
    <glyph glyph-name="rcommaaccent" unicode="&#x157;" horiz-adv-x="284" 
d="M134 415v-45q14 17 25 27.5t21.5 16.5t21.5 8.5t26 2.5q17 0 30.5 -3.5t32.5 -14.5l-33 -64q-14 8 -22.5 11t-19.5 3q-20 0 -38.5 -10.5t-27.5 -27.5q-8 -15 -12 -38.5t-4 -61.5v-219h-71v415h71zM139 -74l-65 -154l-51 16l47 159z" />
    <glyph glyph-name="Rcaron" unicode="&#x158;" horiz-adv-x="489" 
d="M466 0h-91l-201 292h-19v-292h-75v667h108q57 0 94 -8t66 -28q35 -23 54.5 -63t19.5 -88q0 -76 -45.5 -125.5t-122.5 -56.5zM202 358q71 0 109 31.5t38 90.5q0 31 -13 56.5t-36 39.5q-18 11 -42 16.5t-59 5.5h-44v-240h47zM232 721l-141 119l53 41l88 -75l87 75l52 -41z
" />
    <glyph glyph-name="rcaron" unicode="&#x159;" horiz-adv-x="284" 
d="M134 415v-45q14 17 25 27.5t21.5 16.5t21.5 8.5t26 2.5q17 0 30.5 -3.5t32.5 -14.5l-33 -64q-14 8 -22.5 11t-19.5 3q-20 0 -38.5 -10.5t-27.5 -27.5q-8 -15 -12 -38.5t-4 -61.5v-219h-71v415h71zM161 487l-139 130l51 39l88 -82l88 82l50 -39z" />
    <glyph glyph-name="Sacute" unicode="&#x15a;" horiz-adv-x="504" 
d="M377 536q-26 41 -51 56.5t-64 15.5q-47 0 -78.5 -29t-31.5 -74q0 -43 42 -72q9 -6 15.5 -10t17 -9t29.5 -13.5t53 -23.5q81 -35 116 -78t35 -106q0 -43 -16 -80.5t-44.5 -65t-67.5 -43.5t-84 -16q-79 0 -132.5 45t-72.5 127l72 20q6 -26 11.5 -40t15.5 -28q18 -26 47 -40
t62 -14q28 0 52.5 10t42.5 28t28.5 42t10.5 51q0 61 -55 95q-9 6 -15.5 10t-18 9.5t-30.5 14t-54 24.5q-72 32 -103.5 70.5t-31.5 93.5q0 37 14 68.5t39 54.5t59.5 36t74.5 13q112 0 172 -104zM253 720l-43 32l120 130l67 -45z" />
    <glyph glyph-name="sacute" unicode="&#x15b;" horiz-adv-x="339" 
d="M232 318q-22 41 -58 41q-20 0 -35 -13.5t-15 -32.5q0 -18 13.5 -30t53.5 -29q18 -7 30 -12.5t20.5 -10t15 -8.5t13.5 -9q46 -34 46 -91q0 -29 -11 -53.5t-30 -42.5t-45 -28.5t-56 -10.5q-104 0 -145 106l63 26q18 -38 36 -52.5t47 -14.5t48.5 18.5t19.5 46.5q0 24 -14 38
t-53 31q-36 16 -59 29t-36.5 26.5t-19 29t-5.5 36.5q0 25 9 46t25.5 36.5t38.5 24.5t48 9q76 0 114 -75zM174 487l-44 25l105 144l74 -33z" />
    <glyph glyph-name="Scircumflex" unicode="&#x15c;" horiz-adv-x="504" 
d="M377 536q-26 41 -51 56.5t-64 15.5q-47 0 -78.5 -29t-31.5 -74q0 -43 42 -72q9 -6 15.5 -10t17 -9t29.5 -13.5t53 -23.5q81 -35 116 -78t35 -106q0 -43 -16 -80.5t-44.5 -65t-67.5 -43.5t-84 -16q-79 0 -132.5 45t-72.5 127l72 20q6 -26 11.5 -40t15.5 -28q18 -26 47 -40
t62 -14q28 0 52.5 10t42.5 28t28.5 42t10.5 51q0 61 -55 95q-9 6 -15.5 10t-18 9.5t-30.5 14t-54 24.5q-72 32 -103.5 70.5t-31.5 93.5q0 37 14 68.5t39 54.5t59.5 36t74.5 13q112 0 172 -104zM264 881l141 -119l-53 -41l-88 76l-87 -76l-52 41z" />
    <glyph glyph-name="scircumflex" unicode="&#x15d;" horiz-adv-x="339" 
d="M232 318q-22 41 -58 41q-20 0 -35 -13.5t-15 -32.5q0 -18 13.5 -30t53.5 -29q18 -7 30 -12.5t20.5 -10t15 -8.5t13.5 -9q46 -34 46 -91q0 -29 -11 -53.5t-30 -42.5t-45 -28.5t-56 -10.5q-104 0 -145 106l63 26q18 -38 36 -52.5t47 -14.5t48.5 18.5t19.5 46.5q0 24 -14 38
t-53 31q-36 16 -59 29t-36.5 26.5t-19 29t-5.5 36.5q0 25 9 46t25.5 36.5t38.5 24.5t48 9q76 0 114 -75zM177 656l139 -130l-51 -39l-88 83l-88 -83l-50 39z" />
    <glyph glyph-name="Scedilla" unicode="&#x15e;" horiz-adv-x="504" 
d="M377 536q-26 41 -51 56.5t-64 15.5q-47 0 -78.5 -29t-31.5 -74q0 -43 42 -72q9 -6 15.5 -10t17 -9t29.5 -13.5t53 -23.5q81 -35 116 -78t35 -106q0 -43 -16 -80.5t-44.5 -65t-67.5 -43.5t-84 -16q-79 0 -132.5 45t-72.5 127l72 20q6 -26 11.5 -40t15.5 -28q18 -26 47 -40
t62 -14q28 0 52.5 10t42.5 28t28.5 42t10.5 51q0 61 -55 95q-9 6 -15.5 10t-18 9.5t-30.5 14t-54 24.5q-72 32 -103.5 70.5t-31.5 93.5q0 37 14 68.5t39 54.5t59.5 36t74.5 13q112 0 172 -104zM195 -209l-50 26l89 136l72 -32z" />
    <glyph glyph-name="scedilla" unicode="&#x15f;" horiz-adv-x="339" 
d="M232 318q-22 41 -58 41q-20 0 -35 -13.5t-15 -32.5q0 -18 13.5 -30t53.5 -29q18 -7 30 -12.5t20.5 -10t15 -8.5t13.5 -9q46 -34 46 -91q0 -29 -11 -53.5t-30 -42.5t-45 -28.5t-56 -10.5q-104 0 -145 106l63 26q18 -38 36 -52.5t47 -14.5t48.5 18.5t19.5 46.5q0 24 -14 38
t-53 31q-36 16 -59 29t-36.5 26.5t-19 29t-5.5 36.5q0 25 9 46t25.5 36.5t38.5 24.5t48 9q76 0 114 -75zM117 -202l-49 25l84 130l66 -27z" />
    <glyph glyph-name="Scaron" unicode="&#x160;" horiz-adv-x="504" 
d="M377 536q-26 41 -51 56.5t-64 15.5q-47 0 -78.5 -29t-31.5 -74q0 -43 42 -72q9 -6 15.5 -10t17 -9t29.5 -13.5t53 -23.5q81 -35 116 -78t35 -106q0 -43 -16 -80.5t-44.5 -65t-67.5 -43.5t-84 -16q-79 0 -132.5 45t-72.5 127l72 20q6 -26 11.5 -40t15.5 -28q18 -26 47 -40
t62 -14q28 0 52.5 10t42.5 28t28.5 42t10.5 51q0 61 -55 95q-9 6 -15.5 10t-18 9.5t-30.5 14t-54 24.5q-72 32 -103.5 70.5t-31.5 93.5q0 37 14 68.5t39 54.5t59.5 36t74.5 13q112 0 172 -104zM266 721l-141 119l53 41l88 -75l87 75l52 -41z" />
    <glyph glyph-name="scaron" unicode="&#x161;" horiz-adv-x="339" 
d="M232 318q-22 41 -58 41q-20 0 -35 -13.5t-15 -32.5q0 -18 13.5 -30t53.5 -29q18 -7 30 -12.5t20.5 -10t15 -8.5t13.5 -9q46 -34 46 -91q0 -29 -11 -53.5t-30 -42.5t-45 -28.5t-56 -10.5q-104 0 -145 106l63 26q18 -38 36 -52.5t47 -14.5t48.5 18.5t19.5 46.5q0 24 -14 38
t-53 31q-36 16 -59 29t-36.5 26.5t-19 29t-5.5 36.5q0 25 9 46t25.5 36.5t38.5 24.5t48 9q76 0 114 -75zM178 487l-139 130l52 39l87 -82l88 82l50 -39z" />
    <glyph glyph-name="Tcommaaccent" unicode="&#x162;" horiz-adv-x="411" 
d="M243 0h-75v598h-161v69h398v-69h-162v-598zM249 -77l-78 -152l-51 16l53 160z" />
    <glyph glyph-name="tcommaaccent" unicode="&#x163;" horiz-adv-x="204" 
d="M134 0h-71v349h-43v66h43v150h71v-150h74v-66h-74v-349zM138 -74l-65 -154l-51 16l47 159z" />
    <glyph glyph-name="Tcaron" unicode="&#x164;" horiz-adv-x="411" 
d="M243 0h-75v598h-161v69h398v-69h-162v-598zM207 721l-141 119l53 41l88 -75l87 75l52 -41z" />
    <glyph glyph-name="tcaron" unicode="&#x165;" horiz-adv-x="299" 
d="M134 0h-71v349h-43v66h43v150h71v-150h74v-66h-74v-349zM304 662l-65 -153l-51 16l47 158z" />
    <glyph glyph-name="Tbar" unicode="&#x166;" horiz-adv-x="425" 
d="M382 408h-133v-408h-75v408h-133v67h133v123h-161v69h398v-69h-162v-123h133v-67z" />
    <glyph glyph-name="tbar" unicode="&#x167;" horiz-adv-x="220" 
d="M216 226h-74v-226h-71v226h-43v63h43v60h-43v66h43v150h71v-150h74v-66h-74v-60h74v-63z" />
    <glyph glyph-name="Utilde" unicode="&#x168;" horiz-adv-x="635" 
d="M155 258q0 -52 4.5 -79t17.5 -49q20 -32 58.5 -52t82.5 -20q43 0 81.5 20t58.5 52q13 22 17.5 49t4.5 79v409h75v-429q0 -54 -10 -90.5t-34 -67.5q-33 -43 -84.5 -67.5t-108.5 -24.5q-58 0 -110 24.5t-84 67.5q-24 31 -34 67t-10 91v429h75v-409zM170 780q36 71 89 71
q14 0 26.5 -4t37.5 -17q39 -20 55 -20q14 0 24 9.5t21 33.5l43 -33q-34 -72 -91 -72q-14 0 -28 4.5t-37 16.5q-24 12 -35 16t-21 4q-12 0 -20 -8.5t-21 -34.5z" />
    <glyph glyph-name="utilde" unicode="&#x169;" horiz-adv-x="455" 
d="M134 173q0 -29 3 -46.5t10 -31.5q11 -20 32.5 -31t48.5 -11q26 0 47.5 11t32.5 31q7 14 10 31.5t3 46.5v242h71v-250q0 -46 -8.5 -74t-29.5 -51q-23 -26 -55.5 -39t-70.5 -13q-39 0 -71.5 13t-55.5 39q-21 23 -29.5 51t-8.5 74v250h71v-242zM86 540q13 34 35 52.5
t51 18.5q14 0 29 -5t33 -16q20 -12 29 -16t18 -4q14 0 24.5 9.5t21.5 33.5l42 -32q-13 -34 -36.5 -53.5t-51.5 -19.5q-12 0 -24.5 4.5t-32.5 16.5q-20 11 -32.5 16t-21.5 5q-29 0 -42 -44z" />
    <glyph glyph-name="Umacron" unicode="&#x16a;" horiz-adv-x="635" 
d="M155 258q0 -52 4.5 -79t17.5 -49q20 -32 58.5 -52t82.5 -20q43 0 81.5 20t58.5 52q13 22 17.5 49t4.5 79v409h75v-429q0 -54 -10 -90.5t-34 -67.5q-33 -43 -84.5 -67.5t-108.5 -24.5q-58 0 -110 24.5t-84 67.5q-24 31 -34 67t-10 91v429h75v-409zM464 824v-62h-293v62
h293z" />
    <glyph glyph-name="umacron" unicode="&#x16b;" horiz-adv-x="455" 
d="M134 173q0 -29 3 -46.5t10 -31.5q11 -20 32.5 -31t48.5 -11q26 0 47.5 11t32.5 31q7 14 10 31.5t3 46.5v242h71v-250q0 -46 -8.5 -74t-29.5 -51q-23 -26 -55.5 -39t-70.5 -13q-39 0 -71.5 13t-55.5 39q-21 23 -29.5 51t-8.5 74v250h71v-242zM362 587v-60h-269v60h269z
" />
    <glyph glyph-name="Ubreve" unicode="&#x16c;" horiz-adv-x="635" 
d="M155 258q0 -52 4.5 -79t17.5 -49q20 -32 58.5 -52t82.5 -20q43 0 81.5 20t58.5 52q13 22 17.5 49t4.5 79v409h75v-429q0 -54 -10 -90.5t-34 -67.5q-33 -43 -84.5 -67.5t-108.5 -24.5q-58 0 -110 24.5t-84 67.5q-24 31 -34 67t-10 91v429h75v-409zM243 861q9 -35 26.5 -51
t47.5 -16q60 0 75 67h64q-7 -62 -43.5 -96t-95.5 -34q-34 0 -62 13t-48 36q-14 17 -19.5 34.5t-8.5 46.5h64z" />
    <glyph glyph-name="ubreve" unicode="&#x16d;" horiz-adv-x="455" 
d="M134 173q0 -29 3 -46.5t10 -31.5q11 -20 32.5 -31t48.5 -11q26 0 47.5 11t32.5 31q7 14 10 31.5t3 46.5v242h71v-250q0 -46 -8.5 -74t-29.5 -51q-23 -26 -55.5 -39t-70.5 -13q-39 0 -71.5 13t-55.5 39q-21 23 -29.5 51t-8.5 74v250h71v-242zM158 633q3 -33 21 -51.5
t47 -18.5q59 0 71 70h62q-7 -60 -42.5 -95t-89.5 -35q-57 0 -92.5 35.5t-37.5 94.5h61z" />
    <glyph glyph-name="Uring" unicode="&#x16e;" horiz-adv-x="635" 
d="M155 258q0 -52 4.5 -79t17.5 -49q20 -32 58.5 -52t82.5 -20q43 0 81.5 20t58.5 52q13 22 17.5 49t4.5 79v409h75v-429q0 -54 -10 -90.5t-34 -67.5q-33 -43 -84.5 -67.5t-108.5 -24.5q-58 0 -110 24.5t-84 67.5q-24 31 -34 67t-10 91v429h75v-409zM317 896q38 0 64.5 -26
t26.5 -64t-26.5 -64.5t-63.5 -26.5q-38 0 -64.5 27t-26.5 65q0 36 26.5 62.5t63.5 26.5zM318 847q-17 0 -29.5 -12t-12.5 -29t12 -29.5t30 -12.5q17 0 29 12.5t12 29.5t-12 29t-29 12z" />
    <glyph glyph-name="uring" unicode="&#x16f;" horiz-adv-x="455" 
d="M134 173q0 -29 3 -46.5t10 -31.5q11 -20 32.5 -31t48.5 -11q26 0 47.5 11t32.5 31q7 14 10 31.5t3 46.5v242h71v-250q0 -46 -8.5 -74t-29.5 -51q-23 -26 -55.5 -39t-70.5 -13q-39 0 -71.5 13t-55.5 39q-21 23 -29.5 51t-8.5 74v250h71v-242zM227 665q38 0 64.5 -26
t26.5 -64t-26.5 -64.5t-63.5 -26.5q-38 0 -64.5 27t-26.5 65q0 36 26.5 62.5t63.5 26.5zM228 616q-17 0 -29.5 -12t-12.5 -29t12 -29.5t30 -12.5q17 0 29 12.5t12 29.5t-12 29t-29 12z" />
    <glyph glyph-name="Uhungarumlaut" unicode="&#x170;" horiz-adv-x="635" 
d="M155 258q0 -52 4.5 -79t17.5 -49q20 -32 58.5 -52t82.5 -20q43 0 81.5 20t58.5 52q13 22 17.5 49t4.5 79v409h75v-429q0 -54 -10 -90.5t-34 -67.5q-33 -43 -84.5 -67.5t-108.5 -24.5q-58 0 -110 24.5t-84 67.5q-24 31 -34 67t-10 91v429h75v-409zM240 724l-36 28l119 130
l63 -36zM407 724l-36 28l118 130l64 -36z" />
    <glyph glyph-name="uhungarumlaut" unicode="&#x171;" horiz-adv-x="455" 
d="M134 173q0 -29 3 -46.5t10 -31.5q11 -20 32.5 -31t48.5 -11q26 0 47.5 11t32.5 31q7 14 10 31.5t3 46.5v242h71v-250q0 -46 -8.5 -74t-29.5 -51q-23 -26 -55.5 -39t-70.5 -13q-39 0 -71.5 13t-55.5 39q-21 23 -29.5 51t-8.5 74v250h71v-242zM169 487l-36 23l105 146
l64 -31zM303 487l-37 23l106 146l63 -31z" />
    <glyph glyph-name="Uogonek" unicode="&#x172;" horiz-adv-x="635" 
d="M484 -166q-14 -9 -26.5 -12.5t-32.5 -3.5q-40 0 -67.5 25t-27.5 62q0 26 14 46.5t50 48.5q-24 -8 -38.5 -10t-34.5 -2q-60 0 -112 24t-85 68q-24 32 -34 67.5t-10 90.5v429h75v-409q0 -52 4.5 -79t17.5 -49q20 -32 58.5 -52t82.5 -20q43 0 81.5 20t58.5 52q13 22 17.5 49
t4.5 79v409h75v-429q0 -37 -4 -64t-13.5 -49.5t-25.5 -43t-41 -44.5q-75 -72 -75 -116q0 -19 11 -30.5t29 -11.5q26 0 55 16z" />
    <glyph glyph-name="uogonek" unicode="&#x173;" horiz-adv-x="455" 
d="M360 -166q-14 -7 -25.5 -10t-27.5 -3q-38 0 -63 23.5t-25 58.5q0 23 13 44t44 47q-20 -4 -31 -5t-22 -1q-35 0 -67.5 14t-54.5 38q-21 23 -29.5 51t-8.5 74v250h71v-242q0 -29 3 -46.5t10 -31.5q11 -20 32.5 -31t48.5 -11q26 0 47.5 11t32.5 31q7 14 10 31.5t3 46.5v242
h71v-250q0 -26 -2.5 -45t-9 -35.5t-18 -33t-30.5 -37.5q-29 -32 -41 -54.5t-12 -42.5q0 -19 11 -30t28 -11q13 0 24 2.5t27 10.5z" />
    <glyph glyph-name="Wcircumflex" unicode="&#x174;" horiz-adv-x="942" 
d="M259 167l209 534l197 -534l196 500h81l-279 -701l-197 533l-210 -533l-256 701h81zM470 881l141 -119l-53 -41l-88 76l-87 -76l-52 41z" />
    <glyph glyph-name="wcircumflex" unicode="&#x175;" horiz-adv-x="668" 
d="M204 134l130 313l129 -313l124 281h80l-206 -444l-128 309l-128 -309l-204 444h80zM334 656l139 -130l-52 -39l-87 83l-88 -83l-50 39z" />
    <glyph glyph-name="Ycircumflex" unicode="&#x176;" horiz-adv-x="514" 
d="M0 667h86l170 -298l172 298h87l-222 -380v-287h-75v287zM257 881l140 -119l-53 -41l-87 76l-88 -76l-52 41z" />
    <glyph glyph-name="ycircumflex" unicode="&#x177;" horiz-adv-x="449" 
d="M3 415h82l147 -297l134 297h81l-307 -649h-80l134 273zM224 656l139 -130l-51 -39l-88 83l-87 -83l-50 39z" />
    <glyph glyph-name="Ydieresis" unicode="&#x178;" horiz-adv-x="514" 
d="M0 667h86l170 -298l172 298h87l-222 -380v-287h-75v287zM162 849q21 0 36 -15t15 -36t-15 -36t-36 -15t-36 15t-15 37q0 20 15 35t36 15zM352 849q21 0 36 -15t15 -36t-15 -36t-36 -15t-36 15t-15 37q0 20 15 35t36 15z" />
    <glyph glyph-name="Zacute" unicode="&#x179;" horiz-adv-x="521" 
d="M495 69v-69h-478l363 598h-316v69h440l-364 -598h355zM265 720l-43 32l120 130l67 -45z" />
    <glyph glyph-name="zacute" unicode="&#x17a;" horiz-adv-x="449" 
d="M433 66v-66h-430l300 349h-244v66h387l-299 -349h286zM236 487l-44 25l105 144l74 -33z" />
    <glyph glyph-name="Zdotaccent" unicode="&#x17b;" horiz-adv-x="521" 
d="M495 69v-69h-478l363 598h-316v69h440l-364 -598h355zM277 850q23 0 38.5 -15.5t15.5 -37.5q0 -23 -15.5 -38.5t-38.5 -15.5q-22 0 -37.5 15.5t-15.5 38.5q0 22 15.5 37.5t37.5 15.5z" />
    <glyph glyph-name="zdotaccent" unicode="&#x17c;" horiz-adv-x="449" 
d="M433 66v-66h-430l300 349h-244v66h387l-299 -349h286zM244 610q21 0 36 -15t15 -36t-15 -36t-36 -15t-36 15t-15 37q0 20 15 35t36 15z" />
    <glyph glyph-name="Zcaron" unicode="&#x17d;" horiz-adv-x="521" 
d="M495 69v-69h-478l363 598h-316v69h440l-364 -598h355zM278 721l-141 119l53 41l88 -75l87 75l52 -41z" />
    <glyph glyph-name="zcaron" unicode="&#x17e;" horiz-adv-x="449" 
d="M433 66v-66h-430l300 349h-244v66h387l-299 -349h286zM241 487l-139 130l52 39l87 -82l88 82l50 -39z" />
    <glyph glyph-name="longs" unicode="&#x17f;" horiz-adv-x="241" 
d="M70 0v349h-39v66h39v177q0 74 24 105q33 44 100 44q14 0 24.5 -2t27.5 -7v-72q-16 6 -26 8t-22 2q-34 0 -45.5 -19.5t-11.5 -75.5v-575h-71z" />
    <glyph glyph-name="uni018F" unicode="&#x18f;" horiz-adv-x="794" 
d="M668 350q-5 57 -27.5 104t-58.5 81.5t-83 53.5t-101 19q-76 0 -136 -35.5t-102 -104.5l-67 29q50 87 129.5 134t175.5 47q71 0 134 -27.5t110 -74.5t74.5 -110t27.5 -134q0 -70 -27.5 -133t-74.5 -109.5t-110.5 -74t-134.5 -27.5t-134 27t-110.5 73.5t-75 108
t-27.5 131.5v9.5t1 12.5h617zM130 281q9 -48 33.5 -89t60 -71t80 -46.5t93.5 -16.5t93.5 16.5t80 46t60 70.5t33.5 90h-534z" />
    <glyph glyph-name="florin" unicode="&#x192;" horiz-adv-x="553" 
d="M431 403l-10 -60h-108l-52 -288q-7 -39 -14 -66.5t-15 -47.5t-18 -34t-23 -26q-51 -45 -133 -45q-10 0 -19.5 0.5t-26.5 2.5l14 67q9 -1 16.5 -1h13.5q64 0 95 40q10 12 20 43t17 70l52 285h-72l9 60h74l27 150q14 77 48.5 112t97.5 35q15 0 27.5 -2t32.5 -9l-14 -67
q-14 7 -23.5 9t-22.5 2q-17 0 -29 -4.5t-20.5 -16t-14.5 -30.5t-11 -49l-25 -130h107z" />
    <glyph glyph-name="uni01C4" unicode="&#x1c4;" horiz-adv-x="1139" 
d="M80 667h137q81 0 139 -18t106 -59q57 -47 86 -112.5t29 -143.5q0 -79 -29.5 -144t-87.5 -113q-50 -42 -106.5 -59.5t-137.5 -17.5h-136v667zM220 69q62 0 107.5 14.5t83.5 46.5q45 37 68 89.5t23 113.5q0 62 -23.5 115t-66.5 89q-38 32 -84 46.5t-108 14.5h-65v-529h65z
M1113 69v-69h-478l364 598h-317v69h440l-363 -598h354zM896 721l-140 119l53 41l87 -75l88 75l52 -41z" />
    <glyph glyph-name="uni01C5" unicode="&#x1c5;" horiz-adv-x="1068" 
d="M80 667h137q81 0 139 -18t106 -59q57 -47 86 -112.5t29 -143.5q0 -79 -29.5 -144t-87.5 -113q-50 -42 -106.5 -59.5t-137.5 -17.5h-136v667zM220 69q62 0 107.5 14.5t83.5 46.5q45 37 68 89.5t23 113.5q0 62 -23.5 115t-66.5 89q-38 32 -84 46.5t-108 14.5h-65v-529h65z
M1051 66v-66h-430l301 349h-245v66h387l-299 -349h286zM860 487l-139 130l51 39l88 -82l88 82l50 -39z" />
    <glyph glyph-name="uni01C6" unicode="&#x1c6;" horiz-adv-x="963" 
d="M449 729v-729h-71v57q-56 -69 -143 -69q-43 0 -79.5 16.5t-63.5 46t-42 69.5t-15 88q0 47 15 86.5t41.5 68.5t62.5 45t79 16q45 0 79.5 -16.5t65.5 -51.5v373h71zM245 359q-29 0 -54 -11.5t-43.5 -31.5t-29 -47t-10.5 -59q0 -34 10 -63t28 -50t43 -32.5t55 -11.5
q31 0 56.5 11.5t44 32t28.5 49t10 62.5q0 67 -38.5 109t-99.5 42zM946 66v-66h-430l301 349h-245v66h387l-299 -349h286zM755 487l-139 130l51 39l88 -82l88 82l50 -39z" />
    <glyph glyph-name="uni01C7" unicode="&#x1c7;" horiz-adv-x="638" 
d="M155 69h183v-69h-258v667h75v-598zM625 128q0 -62 -10.5 -96.5t-36.5 -60.5q-20 -19 -45.5 -29.5t-54.5 -10.5q-32 0 -60 11.5t-60 37.5l41 58q25 -22 41 -29.5t36 -7.5q39 0 56.5 30.5t17.5 96.5v539h75v-539z" />
    <glyph glyph-name="uni01C8" unicode="&#x1c8;" horiz-adv-x="544" 
d="M155 69h183v-69h-258v667h75v-598zM480 -234h-71v649h71v-649zM445 623q21 0 36 -15t15 -36t-15 -36t-36 -15t-36 15t-15 37q0 20 15 35t36 15z" />
    <glyph glyph-name="uni01C9" unicode="&#x1c9;" horiz-adv-x="399" 
d="M135 0h-71v729h71v-729zM335 -234h-71v649h71v-649zM299 623q21 0 36 -15t15 -36t-15 -36t-36 -15t-36 15t-15 37q0 20 15 35t36 15z" />
    <glyph glyph-name="uni01CA" unicode="&#x1ca;" horiz-adv-x="1048" 
d="M80 695l519 -545v517h75v-697l-519 544v-514h-75v695zM968 128q0 -62 -10.5 -96.5t-36.5 -60.5q-20 -19 -45.5 -29.5t-54.5 -10.5q-32 0 -60 11.5t-60 37.5l41 58q25 -22 41 -29.5t36 -7.5q39 0 56.5 30.5t17.5 96.5v539h75v-539z" />
    <glyph glyph-name="uni01CB" unicode="&#x1cb;" horiz-adv-x="954" 
d="M80 695l519 -545v517h75v-697l-519 544v-514h-75v695zM890 -234h-71v649h71v-649zM854 623q21 0 36 -15t15 -36t-15 -36t-36 -15t-36 15t-15 37q0 20 15 35t36 15z" />
    <glyph glyph-name="uni01CC" unicode="&#x1cc;" horiz-adv-x="660" 
d="M135 415v-50q27 33 54 46.5t65 13.5t70 -15.5t49 -41.5q12 -20 17.5 -45t5.5 -66v-257h-71v245q0 33 -3 50.5t-11 30.5q-21 35 -73 35q-54 0 -78.5 -36.5t-24.5 -117.5v-207h-71v415h71zM596 -234h-71v649h71v-649zM561 623q21 0 36 -15t15 -36t-15 -36t-36 -15t-36 15
t-15 37q0 20 15 35t36 15z" />
    <glyph glyph-name="uni01CD" unicode="&#x1cd;" horiz-adv-x="607" 
d="M161 189l-80 -189h-81l307 699l300 -699h-82l-79 189h-285zM306 525l-114 -267h225zM309 721l-141 119l53 41l88 -75l87 75l52 -41z" />
    <glyph glyph-name="uni01CE" unicode="&#x1ce;" 
d="M450 415v-415h-71v58q-30 -36 -64 -53t-79 -17q-43 0 -80 16.5t-63.5 46t-41.5 70t-15 88.5q0 47 15 86.5t41.5 68.5t62.5 45t79 16q45 0 79.5 -16.5t65.5 -52.5v59h71zM246 360q-29 0 -54 -11.5t-43.5 -31.5t-29 -47.5t-10.5 -59.5q0 -34 10 -63t28 -50t43 -32.5
t55 -11.5q31 0 56.5 11.5t44 32t28.5 49t10 62.5q0 68 -38.5 110t-99.5 42zM260 487l-139 130l51 39l88 -82l87 82l50 -39z" />
    <glyph glyph-name="uni01CF" unicode="&#x1cf;" horiz-adv-x="235" 
d="M155 0h-75v667h75v-667zM118 721l-141 119l53 41l88 -75l87 75l52 -41z" />
    <glyph glyph-name="uni01D0" unicode="&#x1d0;" horiz-adv-x="200" 
d="M135 0h-71v415h71v-415zM100 487l-139 130l51 39l88 -82l88 82l50 -39z" />
    <glyph glyph-name="uni01D1" unicode="&#x1d1;" horiz-adv-x="778" 
d="M390 678q71 0 134 -27.5t110 -74.5t74.5 -109.5t27.5 -133.5q0 -72 -27.5 -134.5t-75 -109.5t-111.5 -74t-136 -27t-140 31t-118 86q-42 48 -64 106t-22 126q0 69 28 131t75.5 108.5t111 74t133.5 27.5zM389 608q-56 0 -105.5 -21.5t-86.5 -58.5t-58.5 -86t-21.5 -105
q0 -123 85 -203q38 -36 86.5 -56t98.5 -20q57 0 107 21.5t87 58.5t58.5 87.5t21.5 107.5t-21.5 107t-58 87.5t-86 59t-106.5 21.5zM390 721l-141 119l53 41l88 -75l87 75l52 -41z" />
    <glyph glyph-name="uni01D2" unicode="&#x1d2;" horiz-adv-x="508" 
d="M255 424q46 0 86 -17t69.5 -46t46.5 -69t17 -86t-17 -86t-46.5 -69t-70 -46t-87.5 -17q-46 0 -86 17t-69 47t-46 70.5t-17 87.5q0 44 17.5 83t47.5 68t70 46t85 17zM254 359q-31 0 -58 -11.5t-46.5 -31.5t-30.5 -48t-11 -60q0 -34 10.5 -62.5t30 -49t46 -32t58.5 -11.5
t59.5 11.5t47 31.5t30.5 48t11 62q0 33 -11 61.5t-30.5 48.5t-46.5 31.5t-59 11.5zM255 487l-139 130l51 39l88 -82l88 82l50 -39z" />
    <glyph glyph-name="uni01D3" unicode="&#x1d3;" horiz-adv-x="635" 
d="M155 258q0 -52 4.5 -79t17.5 -49q20 -32 58.5 -52t82.5 -20q43 0 81.5 20t58.5 52q13 22 17.5 49t4.5 79v409h75v-429q0 -54 -10 -90.5t-34 -67.5q-33 -43 -84.5 -67.5t-108.5 -24.5q-58 0 -110 24.5t-84 67.5q-24 31 -34 67t-10 91v429h75v-409zM318 721l-140 119l53 41
l87 -75l88 75l52 -41z" />
    <glyph glyph-name="uni01D4" unicode="&#x1d4;" horiz-adv-x="457" 
d="M135 173q0 -29 3 -46.5t10 -31.5q11 -20 32.5 -31t48.5 -11q26 0 47.5 11t32.5 31q7 14 10 31.5t3 46.5v242h71v-250q0 -46 -8.5 -74t-29.5 -51q-23 -26 -55.5 -39t-70.5 -13q-39 0 -71.5 13t-55.5 39q-21 23 -29.5 51t-8.5 74v250h71v-242zM229 487l-139 130l52 39
l87 -82l88 82l50 -39z" />
    <glyph glyph-name="uni01DD" unicode="&#x1dd;" horiz-adv-x="500" 
d="M385 219q-1 28 -5 45.5t-14 34.5q-18 32 -50 50.5t-69 18.5q-43 0 -73.5 -19t-55.5 -61l-68 15q28 59 79 90.5t117 31.5q47 0 86.5 -16t68 -44.5t44.5 -68t16 -86.5q0 -48 -16 -88.5t-44.5 -70t-67.5 -46t-85 -16.5q-47 0 -85.5 16.5t-66 46.5t-43 72.5t-15.5 94.5h347z
M115 168q11 -56 46.5 -89t86.5 -33q52 0 89 34t45 88h-267z" />
    <glyph glyph-name="Gcaron" unicode="&#x1e6;" horiz-adv-x="742" 
d="M700 335v-17q0 -56 -8 -95.5t-27 -73.5q-20 -37 -50 -66.5t-67 -50.5t-78.5 -32.5t-85.5 -11.5q-70 0 -132.5 27.5t-109 74t-73.5 109.5t-27 133q0 72 27.5 135t74.5 110t110.5 74t135.5 27q57 0 109 -17.5t95 -50.5q20 -14 36.5 -31t40.5 -46l-55 -50q-50 66 -103 95.5
t-122 29.5q-57 0 -107 -22t-87 -59.5t-58.5 -88t-21.5 -107.5q0 -55 21.5 -105t58 -87t85.5 -59t103 -22q31 0 61.5 8.5t58 23.5t50.5 36t38 46q13 20 19 41.5t8 52.5h-198v69h278zM395 721l-141 119l53 41l88 -75l88 75l51 -41z" />
    <glyph glyph-name="gcaron" unicode="&#x1e7;" 
d="M450 9q0 -62 -8.5 -97t-31.5 -66q-27 -37 -70 -57t-95 -20q-91 0 -145 51t-57 139h70q2 -26 6.5 -41t13.5 -29q17 -26 47 -40.5t66 -14.5q133 0 133 163v61q-60 -69 -147 -69q-42 0 -78 16.5t-62.5 46t-41.5 69t-15 85.5q0 47 15 87.5t42 69.5t64 45.5t80 16.5
q84 0 143 -69v59h71v-406zM244 360q-30 0 -55 -11.5t-43 -31.5t-28 -48.5t-10 -61.5q0 -34 10 -62t28 -48t42.5 -31.5t54.5 -11.5t55.5 11t44 31.5t29 48.5t10.5 61q0 34 -10 62.5t-28.5 48.5t-44 31.5t-55.5 11.5zM260 487l-139 130l51 39l88 -82l88 82l50 -39z" />
    <glyph glyph-name="uni01F4" unicode="&#x1f4;" horiz-adv-x="742" 
d="M700 335v-17q0 -56 -8 -95.5t-27 -73.5q-20 -37 -50 -66.5t-67 -50.5t-78.5 -32.5t-85.5 -11.5q-70 0 -132.5 27.5t-109 74t-73.5 109.5t-27 133q0 72 27.5 135t74.5 110t110.5 74t135.5 27q57 0 109 -17.5t95 -50.5q20 -14 36.5 -31t40.5 -46l-55 -50q-50 66 -103 95.5
t-122 29.5q-57 0 -107 -22t-87 -59.5t-58.5 -88t-21.5 -107.5q0 -55 21.5 -105t58 -87t85.5 -59t103 -22q31 0 61.5 8.5t58 23.5t50.5 36t38 46q13 20 19 41.5t8 52.5h-198v69h278zM379 720l-43 32l119 130l68 -45z" />
    <glyph glyph-name="uni01F5" unicode="&#x1f5;" horiz-adv-x="514" 
d="M450 9q0 -62 -8.5 -97.5t-31.5 -65.5q-28 -37 -71 -57t-95 -20q-90 0 -144 51t-57 139h70q2 -26 6.5 -41t13.5 -29q16 -26 46.5 -40.5t66.5 -14.5q34 0 61.5 13.5t44.5 37.5q27 37 27 112v60q-62 -68 -146 -68q-42 0 -78.5 16.5t-63 45.5t-41.5 69t-15 86q0 47 15 87.5
t42 69.5t64 45.5t80 16.5q87 0 143 -69v59h71v-406zM244 361q-30 0 -55 -11.5t-43 -32t-28 -49t-10 -61.5q0 -34 10 -62.5t28 -48.5t42.5 -31.5t54.5 -11.5t55.5 11.5t44 31.5t29 48t10.5 62q0 78 -45 119q-41 36 -93 36zM220 487l-44 25l105 144l74 -33z" />
    <glyph glyph-name="Aringacute" unicode="&#x1fa;" horiz-adv-x="607" 
d="M161 189l-80 -189h-81l307 699l300 -699h-82l-79 189h-285zM306 525l-114 -267h225zM306 896q38 0 64.5 -26t26.5 -64t-26.5 -64.5t-63.5 -26.5q-38 0 -64.5 27t-26.5 65q0 36 26.5 62.5t63.5 26.5zM307 847q-17 0 -29.5 -12t-12.5 -29t12 -29.5t30 -12.5q17 0 29 12.5
t12 29.5t-12 29t-29 12zM207 859l-43 32l120 130l67 -45z" />
    <glyph glyph-name="aringacute" unicode="&#x1fb;" 
d="M450 415v-415h-71v58q-30 -36 -64 -53t-79 -17q-43 0 -80 16.5t-63.5 46t-41.5 70t-15 88.5q0 47 15 86.5t41.5 68.5t62.5 45t79 16q45 0 79.5 -16.5t65.5 -52.5v59h71zM246 360q-29 0 -54 -11.5t-43.5 -31.5t-29 -47.5t-10.5 -59.5q0 -34 10 -63t28 -50t43 -32.5
t55 -11.5q31 0 56.5 11.5t44 32t28.5 49t10 62.5q0 68 -38.5 110t-99.5 42zM259 665q38 0 64.5 -26t26.5 -64t-26.5 -64.5t-64.5 -26.5t-64.5 27t-26.5 65q0 36 26.5 62.5t64.5 26.5zM259 616q-17 0 -29.5 -12t-12.5 -29t12.5 -29.5t29.5 -12.5t29.5 12.5t12.5 29.5
t-12.5 29t-29.5 12zM185 644l-44 25l105 145l74 -34z" />
    <glyph glyph-name="AEacute" unicode="&#x1fc;" horiz-adv-x="872" 
d="M161 187l-79 -187h-82l297 667h293l29 -69h-269l83 -200h263l30 -69h-263l108 -260h271l30 -69h-349l-78 187h-284zM305 519l-112 -263h223zM386 720l-43 32l119 130l67 -45z" />
    <glyph glyph-name="aeacute" unicode="&#x1fd;" horiz-adv-x="758" 
d="M399 193q5 -63 40.5 -101.5t91.5 -38.5q42 0 71.5 20.5t56.5 66.5l60 -35q-37 -62 -81.5 -89.5t-106.5 -27.5q-52 0 -93.5 21t-68.5 62q-26 -44 -62.5 -63.5t-93.5 -19.5q-81 0 -129.5 37t-48.5 97q0 29 14 57t39 48q43 34 118 34q38 0 63 -7.5t57 -28.5
q-1 71 -29.5 103.5t-88.5 32.5q-29 0 -57.5 -5.5t-70.5 -19.5v66q24 7 42 11.5t33 7t29 3.5t29 1q54 0 94.5 -22t58.5 -62q23 39 66 61.5t94 22.5q59 0 106 -29t70 -80q13 -27 18 -54.5t4 -68.5h-325zM648 254q-9 51 -41 79t-80 28q-98 0 -122 -107h243zM214 196
q-48 0 -78.5 -19.5t-30.5 -51.5t29 -52t77 -20q49 0 80 21t31 53q0 30 -30.5 49.5t-77.5 19.5zM351 487l-45 25l105 144l74 -33z" />
    <glyph glyph-name="Oslashacute" unicode="&#x1fe;" horiz-adv-x="781" 
d="M120 114q-42 58 -59.5 107.5t-17.5 110.5q0 71 27.5 134t75 110t110.5 74.5t135 27.5q101 0 189 -57q6 -4 11.5 -8t17.5 -12l77 77l43 -44l-75 -76q23 -30 39 -57t25.5 -54t14 -54.5t4.5 -59.5q0 -71 -27.5 -133.5t-74.5 -109.5t-110.5 -74.5t-134.5 -27.5q-31 0 -58.5 4
t-54.5 14t-54 25.5t-59 38.5l-77 -77l-45 44zM556 551q-38 29 -78 43t-88 14q-57 0 -106.5 -21.5t-86 -59t-58 -88t-21.5 -107.5q0 -47 12 -83.5t43 -82.5zM217 123q32 -29 79.5 -47t95.5 -18q56 0 105 21.5t85.5 59t58 87.5t21.5 106q0 50 -14 90.5t-46 84.5zM373 720
l-43 32l119 130l67 -45z" />
    <glyph glyph-name="oslashacute" unicode="&#x1ff;" horiz-adv-x="509" 
d="M79 74q-44 59 -44 134q0 45 17 84.5t47 68.5t70 46t86 17q39 0 70 -10.5t62 -33.5l59 60l40 -40l-59 -59q20 -20 33.5 -58t13.5 -78q0 -45 -17 -85t-46.5 -69t-69.5 -46t-85 -17q-38 0 -70 11t-66 34l-60 -59l-40 41zM337 333q-33 26 -83 26q-32 0 -58.5 -11.5t-46 -32
t-30.5 -49t-11 -62.5q0 -24 5 -43t17 -38zM168 80q33 -27 86 -27q32 0 59 11.5t46.5 32t30.5 48.5t11 61q0 28 -5.5 48t-18.5 40zM238 487l-45 25l106 144l73 -33z" />
    <glyph glyph-name="uni0200" unicode="&#x200;" horiz-adv-x="607" 
d="M161 189l-80 -189h-81l307 699l300 -699h-82l-79 189h-285zM306 525l-114 -267h225zM321 882l118 -130l-36 -28l-146 122zM154 882l118 -130l-35 -28l-147 122z" />
    <glyph glyph-name="uni0201" unicode="&#x201;" 
d="M450 415v-415h-71v58q-30 -36 -64 -53t-79 -17q-43 0 -80 16.5t-63.5 46t-41.5 70t-15 88.5q0 47 15 86.5t41.5 68.5t62.5 45t79 16q45 0 79.5 -16.5t65.5 -52.5v59h71zM246 360q-29 0 -54 -11.5t-43.5 -31.5t-29 -47.5t-10.5 -59.5q0 -34 10 -63t28 -50t43 -32.5
t55 -11.5q31 0 56.5 11.5t44 32t28.5 49t10 62.5q0 68 -38.5 110t-99.5 42zM267 656l105 -146l-36 -23l-133 138zM134 656l105 -146l-36 -23l-133 138z" />
    <glyph glyph-name="Scommaaccent" unicode="&#x218;" horiz-adv-x="504" 
d="M377 536q-26 41 -51 56.5t-64 15.5q-47 0 -78.5 -29t-31.5 -74q0 -43 42 -72q9 -6 15.5 -10t17 -9t29.5 -13.5t53 -23.5q81 -35 116 -78t35 -106q0 -43 -16 -80.5t-44.5 -65t-67.5 -43.5t-84 -16q-79 0 -132.5 45t-72.5 127l72 20q6 -26 11.5 -40t15.5 -28q18 -26 47 -40
t62 -14q28 0 52.5 10t42.5 28t28.5 42t10.5 51q0 61 -55 95q-9 6 -15.5 10t-18 9.5t-30.5 14t-54 24.5q-72 32 -103.5 70.5t-31.5 93.5q0 37 14 68.5t39 54.5t59.5 36t74.5 13q112 0 172 -104zM298 -77l-78 -152l-51 16l53 160z" />
    <glyph glyph-name="scommaaccent" unicode="&#x219;" horiz-adv-x="339" 
d="M232 318q-22 41 -58 41q-20 0 -35 -13.5t-15 -32.5q0 -18 13.5 -30t53.5 -29q18 -7 30 -12.5t20.5 -10t15 -8.5t13.5 -9q46 -34 46 -91q0 -29 -11 -53.5t-30 -42.5t-45 -28.5t-56 -10.5q-104 0 -145 106l63 26q18 -38 36 -52.5t47 -14.5t48.5 18.5t19.5 46.5q0 24 -14 38
t-53 31q-36 16 -59 29t-36.5 26.5t-19 29t-5.5 36.5q0 25 9 46t25.5 36.5t38.5 24.5t48 9q76 0 114 -75zM212 -74l-65 -154l-51 16l47 159z" />
    <glyph glyph-name="uni021A" unicode="&#x21a;" horiz-adv-x="411" 
d="M243 0h-75v598h-161v69h398v-69h-162v-598zM249 -77l-78 -152l-51 16l53 160z" />
    <glyph glyph-name="uni021B" unicode="&#x21b;" horiz-adv-x="204" 
d="M134 0h-71v349h-43v66h43v150h71v-150h74v-66h-74v-349zM138 -74l-65 -154l-51 16l47 159z" />
    <glyph glyph-name="uni0226" unicode="&#x226;" horiz-adv-x="607" 
d="M161 189l-80 -189h-81l307 699l300 -699h-82l-79 189h-285zM306 525l-114 -267h225zM306 850q23 0 38.5 -15.5t15.5 -37.5q0 -23 -15.5 -38.5t-37.5 -15.5q-23 0 -38.5 15.5t-15.5 38.5q0 22 15.5 37.5t37.5 15.5z" />
    <glyph glyph-name="uni0227" unicode="&#x227;" 
d="M450 415v-415h-71v58q-30 -36 -64 -53t-79 -17q-43 0 -80 16.5t-63.5 46t-41.5 70t-15 88.5q0 47 15 86.5t41.5 68.5t62.5 45t79 16q45 0 79.5 -16.5t65.5 -52.5v59h71zM246 360q-29 0 -54 -11.5t-43.5 -31.5t-29 -47.5t-10.5 -59.5q0 -34 10 -63t28 -50t43 -32.5
t55 -11.5q31 0 56.5 11.5t44 32t28.5 49t10 62.5q0 68 -38.5 110t-99.5 42zM259 610q21 0 36 -15t15 -36t-15 -36t-36 -15t-36 15t-15 37q0 20 15 35t36 15z" />
    <glyph glyph-name="uni0237" unicode="&#x237;" horiz-adv-x="200" 
d="M135 -234h-71v649h71v-649z" />
    <glyph glyph-name="uni02BB" unicode="&#x2bb;" horiz-adv-x="261" 
d="M57 475l100 225l48 -19l-83 -230z" />
    <glyph glyph-name="afii57929" unicode="&#x2bc;" horiz-adv-x="262" 
d="M205 676l-100 -225l-48 19l83 230z" />
    <glyph glyph-name="circumflex" unicode="&#x2c6;" horiz-adv-x="476" 
d="M238 656l139 -130l-52 -39l-87 83l-88 -83l-50 39z" />
    <glyph glyph-name="caron" unicode="&#x2c7;" horiz-adv-x="476" 
d="M239 487l-139 130l51 39l88 -82l88 82l50 -39z" />
    <glyph glyph-name="uni02C9" unicode="&#x2c9;" horiz-adv-x="476" 
d="M373 587v-60h-269v60h269z" />
    <glyph glyph-name="breve" unicode="&#x2d8;" horiz-adv-x="476" 
d="M169 633q3 -33 21 -51.5t47 -18.5q59 0 71 70h61q-7 -60 -42.5 -95t-89.5 -35q-57 0 -92.5 35.5t-37.5 94.5h62z" />
    <glyph glyph-name="dotaccent" unicode="&#x2d9;" horiz-adv-x="476" 
d="M238 610q21 0 36 -15t15 -36t-15 -36t-36 -15t-36 15t-15 37q0 20 15 35t36 15z" />
    <glyph glyph-name="ring" unicode="&#x2da;" horiz-adv-x="476" 
d="M237 665q38 0 64.5 -26t26.5 -64t-26.5 -64.5t-63.5 -26.5q-38 0 -64.5 27t-26.5 65q0 36 26.5 62.5t63.5 26.5zM238 616q-17 0 -29.5 -12t-12.5 -29t12 -29.5t30 -12.5q17 0 29 12.5t12 29.5t-12 29t-29 12z" />
    <glyph glyph-name="ogonek" unicode="&#x2db;" horiz-adv-x="476" 
d="M427 0q-35 -23 -53.5 -45.5t-18.5 -41.5q0 -15 11 -26t28 -11q13 0 24 2.5t27 10.5l-9 -55q-14 -7 -26 -10t-27 -3q-37 0 -62 22.5t-25 55.5q0 53 75 101h56z" />
    <glyph glyph-name="tilde" unicode="&#x2dc;" horiz-adv-x="476" 
d="M97 540q12 34 34.5 52.5t51.5 18.5q14 0 28.5 -5t33.5 -16q20 -12 29 -16t17 -4q15 0 25 9.5t22 33.5l42 -32q-13 -34 -36.5 -53.5t-51.5 -19.5q-13 0 -25 4.5t-32 16.5q-20 11 -32.5 16t-21.5 5q-29 0 -42 -44z" />
    <glyph glyph-name="hungarumlaut" unicode="&#x2dd;" horiz-adv-x="476" 
d="M169 487l-36 23l105 146l64 -31zM303 487l-37 23l106 146l64 -31z" />
    <glyph glyph-name="pi" unicode="&#x3c0;" horiz-adv-x="514" 
d="M102 348h-76v67h462v-67h-76v-348h-72v348h-166v-348h-72v348z" />
    <glyph glyph-name="uni1E1E" unicode="&#x1e1e;" horiz-adv-x="420" 
d="M155 598v-199h221v-69h-221v-330h-75v667h303v-69h-228zM231 850q23 0 38.5 -15.5t15.5 -37.5q0 -23 -15.5 -38.5t-37.5 -15.5q-23 0 -38.5 15.5t-15.5 38.5q0 22 15.5 37.5t37.5 15.5z" />
    <glyph glyph-name="Wgrave" unicode="&#x1e80;" horiz-adv-x="942" 
d="M259 167l209 534l197 -534l196 500h81l-279 -701l-197 533l-210 -533l-256 701h81zM445 882l119 -130l-43 -32l-143 117z" />
    <glyph glyph-name="wgrave" unicode="&#x1e81;" horiz-adv-x="668" 
d="M204 134l130 313l129 -313l124 281h80l-206 -444l-128 309l-128 -309l-204 444h80zM318 656l106 -144l-45 -25l-134 136z" />
    <glyph glyph-name="Wacute" unicode="&#x1e82;" horiz-adv-x="942" 
d="M259 167l209 534l197 -534l196 500h81l-279 -701l-197 533l-210 -533l-256 701h81zM421 720l-43 32l119 130l67 -45z" />
    <glyph glyph-name="wacute" unicode="&#x1e83;" horiz-adv-x="668" 
d="M204 134l130 313l129 -313l124 281h80l-206 -444l-128 309l-128 -309l-204 444h80zM289 487l-44 25l105 144l74 -33z" />
    <glyph glyph-name="Wdieresis" unicode="&#x1e84;" horiz-adv-x="942" 
d="M259 167l209 534l197 -534l196 500h81l-279 -701l-197 533l-210 -533l-256 701h81zM376 849q21 0 36 -15t15 -36t-15 -36t-36 -15t-36 15t-15 37q0 20 15 35t36 15zM566 849q21 0 36 -15t15 -36t-15 -36t-36 -15t-36 15t-15 37q0 20 15 35t36 15z" />
    <glyph glyph-name="wdieresis" unicode="&#x1e85;" horiz-adv-x="668" 
d="M204 134l130 313l129 -313l124 281h80l-206 -444l-128 309l-128 -309l-204 444h80zM248 610q21 0 35.5 -14.5t14.5 -35.5q0 -20 -15 -35t-35 -15q-21 0 -35.5 14.5t-14.5 36.5q0 20 15 34.5t35 14.5zM421 610q21 0 35.5 -14.5t14.5 -35.5t-14.5 -35.5t-35.5 -14.5
t-35.5 15t-14.5 36q0 20 15 34.5t35 14.5z" />
    <glyph glyph-name="Ygrave" unicode="&#x1ef2;" horiz-adv-x="514" 
d="M0 667h86l170 -298l172 298h87l-222 -380v-287h-75v287zM231 882l119 -130l-43 -32l-143 117z" />
    <glyph glyph-name="ygrave" unicode="&#x1ef3;" horiz-adv-x="445" 
d="M1 415h82l147 -297l134 297h81l-307 -649h-80l134 273zM207 656l106 -144l-45 -25l-135 136z" />
    <glyph glyph-name="uni2011" unicode="&#x2011;" horiz-adv-x="181" 
d="M181 245v-64h-181v64h181z" />
    <glyph glyph-name="figuredash" unicode="&#x2012;" horiz-adv-x="567" 
d="M450 245v-64h-333v64h333z" />
    <glyph glyph-name="endash" unicode="&#x2013;" horiz-adv-x="567" 
d="M450 245v-64h-333v64h333z" />
    <glyph glyph-name="emdash" unicode="&#x2014;" horiz-adv-x="544" 
d="M544 245v-64h-544v64h544z" />
    <glyph glyph-name="afii00208" unicode="&#x2015;" horiz-adv-x="544" 
d="M544 245v-64h-544v64h544z" />
    <glyph glyph-name="underscoredbl" unicode="&#x2017;" horiz-adv-x="500" 
d="M500 -58v-47h-500v47h500zM500 -174v-48h-500v48h500z" />
    <glyph glyph-name="quoteleft" unicode="&#x2018;" horiz-adv-x="261" 
d="M57 475l100 225l48 -19l-83 -230z" />
    <glyph glyph-name="quoteright" unicode="&#x2019;" horiz-adv-x="228" 
d="M182 676l-100 -225l-48 19l83 230z" />
    <glyph glyph-name="quotesinglbase" unicode="&#x201a;" horiz-adv-x="228" 
d="M182 76l-100 -225l-48 19l83 230z" />
    <glyph glyph-name="quotereversed" unicode="&#x201b;" horiz-adv-x="476" 
d="M180 647l51 16l65 -153l-69 -21z" />
    <glyph glyph-name="quotedblleft" unicode="&#x201c;" horiz-adv-x="408" 
d="M203 475l101 225l48 -19l-83 -230zM57 475l100 225l48 -19l-83 -230z" />
    <glyph glyph-name="quotedblright" unicode="&#x201d;" horiz-adv-x="408" 
d="M205 676l-100 -225l-48 19l83 230zM352 676l-101 -225l-48 19l83 230z" />
    <glyph glyph-name="quotedblbase" unicode="&#x201e;" horiz-adv-x="408" 
d="M205 74l-100 -226l-48 19l83 231zM352 74l-101 -226l-48 19l83 231z" />
    <glyph glyph-name="dagger" unicode="&#x2020;" horiz-adv-x="543" 
d="M307 729v-164h148v-69h-148v-672h-72v672h-147v69h147v164h72z" />
    <glyph glyph-name="daggerdbl" unicode="&#x2021;" horiz-adv-x="543" 
d="M308 729v-164h147v-69h-147v-302h147v-69h-147v-301h-73v301h-147v69h147v302h-147v69h147v164h73z" />
    <glyph glyph-name="bullet" unicode="&#x2022;" horiz-adv-x="667" 
d="M336 480q28 0 52.5 -11t43 -30t29 -44.5t10.5 -54.5t-10.5 -54.5t-29.5 -44.5t-43.5 -30t-53.5 -11q-28 0 -53.5 11t-44 30t-29.5 44.5t-11 54.5t11 54.5t30 44.5t44.5 30t54.5 11z" />
    <glyph glyph-name="ellipsis" unicode="&#x2026;" horiz-adv-x="746" 
d="M124 89q20 0 34.5 -14.5t14.5 -34.5q0 -21 -14.5 -35.5t-34.5 -14.5t-34.5 14.5t-14.5 35.5q0 20 14.5 34.5t34.5 14.5zM373 89q20 0 34.5 -14.5t14.5 -34.5q0 -21 -14.5 -35.5t-34.5 -14.5t-34.5 14.5t-14.5 35.5q0 20 14.5 34.5t34.5 14.5zM621 89q20 0 34.5 -14.5
t14.5 -34.5q0 -21 -14.5 -35.5t-34.5 -14.5t-34.5 14.5t-14.5 35.5q0 20 14.5 34.5t34.5 14.5z" />
    <glyph glyph-name="perthousand" unicode="&#x2030;" horiz-adv-x="1067" 
d="M176 674q31 0 58 -11.5t47.5 -31t32 -46.5t11.5 -57t-11.5 -56.5t-32 -46t-47.5 -31t-59 -11.5q-31 0 -57.5 11.5t-46.5 31.5t-31.5 47t-11.5 58q0 29 12 55t32 45.5t47 31t57 11.5zM177 619q-38 0 -64 -26t-26 -63q0 -38 26 -64.5t64 -26.5q37 0 63 26t26 64t-26 64
t-63 26zM566 658l-389 -671l-38 23l388 670zM528 284q31 0 58 -11.5t47.5 -31t32 -46.5t11.5 -57t-11.5 -56.5t-32 -46t-47.5 -31t-59 -11.5q-31 0 -57.5 11.5t-46.5 31.5t-31.5 47t-11.5 58q0 29 11.5 55t32 45.5t47.5 31t57 11.5zM528 229q-36 0 -62.5 -26t-26.5 -63
q0 -38 26 -64.5t64 -26.5q37 0 63 26t26 64t-26 64t-64 26zM890 284q31 0 58 -11.5t47.5 -31t32 -46.5t11.5 -57t-11.5 -56.5t-32 -46t-47.5 -31t-59 -11.5q-31 0 -57.5 11.5t-46.5 31.5t-31.5 47t-11.5 58q0 29 12 55t32 45.5t47 31t57 11.5zM890 229q-36 0 -62.5 -26
t-26.5 -63q0 -38 26 -64.5t64 -26.5q37 0 63 26t26 64t-26 64t-64 26z" />
    <glyph glyph-name="guilsinglleft" unicode="&#x2039;" horiz-adv-x="282" 
d="M233 66l-47 -37l-149 184l149 187l47 -36l-119 -151z" />
    <glyph glyph-name="guilsinglright" unicode="&#x203a;" horiz-adv-x="282" 
d="M50 364l47 36l149 -187l-150 -184l-46 37l119 147z" />
    <glyph glyph-name="uni203E" unicode="&#x203e;" horiz-adv-x="500" 
d="M500 864v-68h-500v68h500z" />
    <glyph glyph-name="fraction" unicode="&#x2044;" horiz-adv-x="129" 
d="M278 659l-388 -672l-39 23l388 670z" />
    <glyph glyph-name="franc" unicode="&#x20a3;" horiz-adv-x="553" 
d="M170 598v-199h221v-69h-221v-330h-75v667h303v-69h-228zM422 294v-35q20 28 32.5 36.5t34.5 8.5q14 0 24 -3.5t26 -11.5l-31 -52q-8 6 -14 8t-14 2q-14 0 -27 -7.5t-20 -18.5q-11 -21 -11 -71v-150h-60v294h60z" />
    <glyph glyph-name="lira" unicode="&#x20a4;" horiz-adv-x="553" 
d="M85 230h114q-2 8 -4 14.5t-5.5 14t-8.5 18t-13 26.5h-83v57h54q-12 24 -20 41t-12 31t-5.5 27.5t-1.5 29.5q0 40 15 74t42 59t63 39.5t78 14.5q85 0 137 -53.5t56 -144.5l-73 -19q-2 28 -4 42t-7 29q-11 35 -40.5 54.5t-68.5 19.5q-26 0 -48.5 -9t-39 -25t-26 -37.5
t-9.5 -47.5q0 -23 7 -44.5t25 -56.5q6 -11 7.5 -13.5t5.5 -10.5h160v-57h-131q11 -21 16.5 -37t10.5 -36h104v-57h-103q-4 -20 -9.5 -36t-16.5 -35q23 -8 36.5 -12.5t21.5 -8.5q33 -11 47.5 -15t27.5 -4q23 0 41 14.5t39 51.5l60 -36q-27 -54 -60 -78.5t-77 -24.5
q-20 0 -45 6t-66 20q-42 16 -60 20.5t-33 4.5q-24 0 -42 -12t-38 -41l-57 39q25 40 58 62t71 23q12 20 17.5 32.5t8.5 29.5h-116v57z" />
    <glyph glyph-name="peseta" unicode="&#x20a7;" horiz-adv-x="830" 
d="M155 0h-75v667h121q62 0 100.5 -10.5t67.5 -36.5q29 -25 45.5 -61.5t16.5 -78.5q0 -88 -56 -138t-155 -50h-65v-292zM215 360q69 0 106 31.5t37 88.5q0 27 -9.5 50t-27.5 38q-19 16 -44.5 23t-66.5 7h-55v-238h60zM508 0h-60v241h-37v53h37v103h60v-103h58v-53h-58v-241z
M750 222q-15 28 -40 28q-13 0 -22 -8t-9 -19q0 -12 10 -20t38 -19q52 -20 71.5 -39.5t19.5 -53.5q0 -42 -31 -70.5t-78 -28.5q-78 0 -110 77l51 23q14 -26 26.5 -36t33.5 -10q19 0 31.5 11.5t12.5 29.5q0 16 -10 25t-39 20q-51 20 -69 38t-18 49q0 37 26.5 61t67.5 24
q61 0 90 -56z" />
    <glyph glyph-name="Euro" unicode="&#x20ac;" horiz-adv-x="553" 
d="M69 420q15 57 47.5 104t77.5 81t99.5 53t113.5 19q35 0 62 -5.5t67 -21.5v-79q-43 21 -70.5 28.5t-62.5 7.5q-88 0 -156 -50t-100 -137h334l-37 -57h-310q-1 -11 -1.5 -18.5t-0.5 -15.5q0 -17 3 -40h261l-36 -57h-210q16 -39 42 -71.5t59 -55t72 -35t80 -12.5
q35 0 63 7.5t70 28.5v-79q-40 -15 -68.5 -21t-63.5 -6q-57 0 -109.5 17.5t-96.5 50t-76.5 77.5t-49.5 99h-95l36 57h47q-2 12 -2.5 21t-0.5 19v13.5t2 20.5h-82l36 57h56z" />
    <glyph glyph-name="uni2101" unicode="&#x2101;" horiz-adv-x="900" 
d="M118 378l-49 -111h-58l196 423l190 -423h-58l-48 111h-173zM206 571l-66 -146h130zM730 659l-388 -672l-38 23l388 670zM815 314q-16 26 -31 35t-38 9q-28 0 -46.5 -16.5t-18.5 -40.5q0 -23 24 -40q6 -3 10 -5.5t10.5 -5.5t18.5 -8t33 -14q51 -21 73 -47t22 -64
q0 -26 -10.5 -49t-28.5 -39.5t-42.5 -26t-53.5 -9.5q-51 0 -85 27.5t-47 79.5l52 14q16 -73 82 -73q34 0 57 21.5t23 52.5q0 34 -33 53q-6 3 -10 5.5t-11 5.5t-18.5 8.5t-32.5 14.5q-46 19 -66 42.5t-20 56.5q0 45 34 75t85 30q72 0 110 -65z" />
    <glyph glyph-name="afii61248" unicode="&#x2105;" horiz-adv-x="543" 
d="M271 392q22 0 37 -15t15 -37t-15 -37t-37 -15t-37 15t-15 38q0 21 15.5 36t36.5 15z" />
    <glyph glyph-name="afii61289" unicode="&#x2113;" horiz-adv-x="500" 
d="M246 256q-9 -49 -15 -80.5t-9.5 -53t-4.5 -35t-1 -26.5q0 -25 18 -25q26 0 51 55q5 11 9 14.5t10 3.5q13 0 13 -15q0 -11 -7 -27t-19 -33q-36 -48 -76 -48q-32 0 -49.5 23t-17.5 65q0 11 0.5 20.5t1.5 23t3 33t5 50.5q-23 -22 -33.5 -30t-15.5 -8t-9.5 5t-4.5 11
q0 5 4.5 11t15.5 16q4 3 11 10l14.5 14.5t14 15.5t10.5 12q18 94 38 168t44 133q47 120 115 120q29 0 46 -22t17 -59q0 -40 -16 -89.5t-45 -97.5q-18 -31 -45 -64t-70 -78zM260 334q60 65 92.5 133t32.5 126q0 20 -6 32.5t-17 12.5t-22.5 -12t-18.5 -32
q-14 -40 -29.5 -106.5t-31.5 -153.5z" />
    <glyph glyph-name="afii61352" unicode="&#x2116;" horiz-adv-x="1104" 
d="M87 672h38l498 -541v536h72v-679h-38l-498 536v-524h-72v672zM950 456q33 0 61 -11t48.5 -31t32 -47t11.5 -59t-11.5 -59.5t-32 -47.5t-48.5 -31t-61 -11q-34 0 -62 11t-48.5 31t-32 48t-11.5 61q0 31 11.5 58t32.5 46.5t49 30.5t61 11zM950 400q-42 0 -67.5 -25.5
t-25.5 -65.5q0 -42 25 -68t66 -26q42 0 68 25.5t26 67.5q0 41 -25.5 66.5t-66.5 25.5zM795 110h308v-59h-308v59z" />
    <glyph glyph-name="uni2117" unicode="&#x2117;" horiz-adv-x="149" 
d="M104 267h-58v254h58v-254zM74 641q17 0 28 -10.5t11 -25.5t-11 -25.5t-27 -10.5q-17 0 -28 10.5t-11 26.5q0 14 11 24.5t27 10.5z" />
    <glyph glyph-name="trademark" unicode="&#x2122;" horiz-adv-x="710" 
d="M137 287h-48v335h-90v45h230v-45h-92v-335zM330 692l143 -316l147 316l61 -405h-47l-34 258l-127 -277l-125 277l-37 -258h-46z" />
    <glyph glyph-name="uni2126" unicode="&#x2126;" horiz-adv-x="667" 
d="M28 66h178q-91 54 -134.5 126.5t-43.5 171.5q0 68 23.5 126.5t64.5 101.5t97 67.5t120 24.5q65 0 120.5 -24.5t96.5 -67.5t64.5 -101.5t23.5 -126.5q0 -194 -178 -298h178v-66h-261v60q40 23 63 40.5t44 41.5q78 90 78 213q0 118 -78 197q-65 65 -150 65q-49 0 -91 -20
t-73 -55t-48.5 -83t-17.5 -104q0 -192 185 -295v-60h-261v66z" />
    <glyph glyph-name="estimated" unicode="&#x212e;" horiz-adv-x="597" 
d="M158 250l-1 -105q9 -29 17.5 -44.5t22.5 -27.5q38 -35 107 -35q120 0 168 104h44q-23 -73 -77 -110.5t-136 -37.5q-109 0 -170.5 69t-61.5 191q0 62 16.5 111.5t46.5 84t73 53.5t97 19q72 0 126.5 -34t79.5 -94q11 -27 15.5 -58t5.5 -86h-373zM458 378q-5 15 -9.5 22.5
t-13.5 18.5q-26 31 -57 45t-74 14q-54 0 -86 -22t-58 -78v-93h298v93z" />
    <glyph glyph-name="partialdiff" unicode="&#x2202;" horiz-adv-x="510" 
d="M99 670q86 -11 143 -35.5t105 -70.5q62 -57 95 -140t33 -178q0 -98 -41 -160q-30 -46 -77 -71.5t-101 -25.5q-45 0 -85.5 18t-70.5 48.5t-47.5 71.5t-17.5 87t16 86t44.5 70t66.5 47t82 17q47 0 79.5 -16t65.5 -56l-6 16q-23 61 -54 99.5t-81 69.5q-22 14 -41 23
t-37 15.5t-37.5 11t-43.5 7.5zM260 377q-31 0 -58.5 -13t-47.5 -35.5t-31.5 -52.5t-11.5 -65q0 -34 11.5 -63.5t31 -52t45.5 -35.5t56 -13q31 0 57 13t45.5 36t30.5 54t11 67q0 35 -10.5 64t-29 50.5t-44 33.5t-55.5 12z" />
    <glyph glyph-name="emptyset" unicode="&#x2205;" horiz-adv-x="618" 
d="M487 642l-48 -88q113 -80 113 -204q0 -51 -19 -95.5t-52.5 -77t-79 -51.5t-97.5 -19q-25 0 -43.5 4t-35.5 12l-63 -123l-48 25l61 122q-108 80 -108 202q0 51 19 95.5t52 77t77.5 51.5t95.5 19q22 0 40 -3t41 -11l47 89zM251 172q18 -5 31 -6.5t27 -1.5q39 0 73 14.5
t59.5 39.5t40 59t14.5 72q0 48 -21.5 89t-58.5 64zM366 527q-16 5 -27.5 6.5t-26.5 1.5q-39 0 -73.5 -14.5t-60 -39.5t-40.5 -59t-15 -72q0 -90 77 -152z" />
    <glyph glyph-name="Delta" unicode="&#x2206;" horiz-adv-x="667" 
d="M292 667h80l268 -667h-613zM531 70l-198 506l-198 -506h396z" />
    <glyph glyph-name="product" unicode="&#x220f;" horiz-adv-x="700" 
d="M664 750v-70h-80v-860h80v-70h-237v70h82v860h-318v-860h82v-70h-236v70h79v860h-79v70h627z" />
    <glyph glyph-name="summation" unicode="&#x2211;" horiz-adv-x="667" 
d="M599 521h-68l-7 158h-412l252 -409l-252 -450h421l4 158h72v-228h-581v79l248 441l-248 402v78h571v-229z" />
    <glyph glyph-name="minus" unicode="&#x2212;" horiz-adv-x="556" 
d="M43 371h471v-61h-471v61z" />
    <glyph glyph-name="uni2215" unicode="&#x2215;" horiz-adv-x="129" 
d="M278 659l-388 -672l-39 23l388 670z" />
    <glyph glyph-name="uni2218" unicode="&#x2218;" horiz-adv-x="500" 
d="M253 480q28 0 52.5 -11t43 -30t29 -44.5t10.5 -54.5t-10.5 -54.5t-29.5 -44.5t-43.5 -30t-53.5 -11q-28 0 -53.5 11t-44 30t-29.5 44.5t-11 54.5t11 54.5t30 44.5t44.5 30t54.5 11zM252 433q-39 0 -65.5 -27t-26.5 -66q0 -38 26.5 -65.5t64.5 -27.5t64 27.5t26 65.5
t-26 65.5t-63 27.5z" />
    <glyph glyph-name="uni2219" unicode="&#x2219;" horiz-adv-x="225" 
d="M112 263q21 0 35.5 -14.5t14.5 -34.5q0 -21 -14.5 -35.5t-34.5 -14.5q-21 0 -35.5 14.5t-14.5 35.5q0 20 14.5 34.5t34.5 14.5z" />
    <glyph glyph-name="radical" unicode="&#x221a;" horiz-adv-x="667" 
d="M667 759h-196l-213 -759h-93l-81 298h-84v70h145l36 -127q3 -10 4.5 -17t5.5 -29q4 -20 7.5 -39t7.5 -39l3 -15h6q2 8 2.5 13.5t1.5 6.5q4 17 7.5 32.5t6.5 32.5l25 107l41 149l108 386h260v-70z" />
    <glyph glyph-name="infinity" unicode="&#x221e;" horiz-adv-x="667" 
d="M335 290q-38 -54 -78 -79t-87 -25q-34 0 -62 11.5t-48 32t-31 49t-11 62.5q0 33 11.5 61.5t31.5 48.5t48.5 31.5t61.5 11.5q90 0 161 -103q36 54 76 78.5t89 24.5q33 0 61 -11.5t48 -32t31 -49t11 -62.5q0 -33 -11 -61.5t-31 -48.5t-47.5 -31.5t-60.5 -11.5
q-48 0 -87.5 25t-75.5 79zM371 340q31 -49 58 -69.5t60 -20.5q37 0 61 25.5t24 64.5t-24.5 64.5t-61.5 25.5q-32 0 -58.5 -20.5t-58.5 -69.5zM295 340q-29 48 -57 69t-61 21q-37 0 -61 -25.5t-24 -64.5t24.5 -64.5t61.5 -25.5q32 0 58.5 20t58.5 70z" />
    <glyph glyph-name="integral" unicode="&#x222b;" horiz-adv-x="500" 
d="M110 -172q15 -7 25 -9t21 -2q47 0 54 46q2 10 2.5 25t0.5 51v609q0 29 0.5 49.5t1.5 34.5t2.5 24t4.5 19q10 35 41 55t76 20q17 0 31 -2t37 -8l-17 -67q-15 5 -24.5 7t-20.5 2q-48 0 -54 -45q-1 -4 -1.5 -8.5t-1 -15t-0.5 -30.5v-55v-576q0 -38 -0.5 -63t-3 -41.5
t-6.5 -27t-11 -20.5q-32 -49 -114 -49q-19 0 -31.5 2t-27.5 8z" />
    <glyph glyph-name="similar" unicode="&#x223c;" horiz-adv-x="566" 
d="M43 292q27 60 60 88t77 28q21 0 46 -7.5t66 -26.5q22 -10 36.5 -16.5t25 -10t18.5 -4.5t17 -1q28 0 47.5 14.5t42.5 53.5l45 -27q-29 -60 -63.5 -86.5t-81.5 -26.5q-10 0 -21 2t-26 7t-37 14.5t-56 24.5q-37 18 -64 18q-26 0 -46 -16.5t-42 -56.5z" />
    <glyph glyph-name="uni2243" unicode="&#x2243;" horiz-adv-x="566" 
d="M43 376q29 61 61 88.5t76 27.5q21 0 45.5 -7.5t66.5 -26.5q22 -10 36.5 -16.5t25 -10t18 -4.5t16.5 -1q29 0 48.5 15t42.5 53l45 -27q-29 -60 -63.5 -86.5t-81.5 -26.5q-10 0 -20.5 1.5t-25.5 7t-37.5 15t-56.5 24.5q-39 18 -64 18q-26 0 -46.5 -17t-41.5 -56zM524 238
h-481v59h481v-59z" />
    <glyph glyph-name="approxequal" unicode="&#x2248;" horiz-adv-x="566" 
d="M43 376q29 61 61 88.5t76 27.5q21 0 45.5 -7.5t66.5 -26.5q22 -10 36.5 -16.5t25 -10t18 -4.5t16.5 -1q29 0 48.5 15t42.5 53l45 -27q-29 -60 -63.5 -86.5t-81.5 -26.5q-10 0 -20.5 1.5t-25.5 7t-37.5 15t-56.5 24.5q-39 18 -64 18q-26 0 -46.5 -17t-41.5 -56zM43 208
q28 61 60.5 88.5t77.5 27.5q20 0 45 -7.5t66 -26.5q22 -10 36.5 -16.5t25 -10t18.5 -4.5t17 -1q28 0 47.5 15t42.5 53l45 -27q-29 -60 -63.5 -86.5t-81.5 -26.5q-10 0 -21 2t-26 7t-37 14.5t-56 24.5q-37 18 -64 18q-26 0 -46.5 -17t-41.5 -56z" />
    <glyph glyph-name="notequal" unicode="&#x2260;" horiz-adv-x="556" 
d="M355 561l51 -21l-52 -109h160v-58h-187l-32 -66h219v-58h-247l-65 -138l-52 21l56 117h-163v58h190l32 66h-222v58h250z" />
    <glyph glyph-name="lessequal" unicode="&#x2264;" horiz-adv-x="500" 
d="M466 540l-353 -156l353 -157v-71l-433 194v65l433 197v-72zM466 56h-433v70h433v-70z" />
    <glyph glyph-name="greaterequal" unicode="&#x2265;" horiz-adv-x="500" 
d="M33 227l353 157l-353 156v72l433 -197v-65l-433 -194v71zM33 126h433v-70h-433v70z" />
    <glyph glyph-name="lozenge" unicode="&#x25ca;" horiz-adv-x="667" 
d="M593 334l-259 -360l-260 360l260 359zM173 334l161 -220l160 220l-160 220z" />
    <glyph glyph-name="ffl" unicode="&#xfb04;" horiz-adv-x="684" 
d="M141 0h-71v349h-39v66h39v177q0 74 24 105q33 44 99 44q14 0 25 -2t28 -7v-72q-17 6 -27 8t-21 2q-34 0 -45.5 -19.5t-11.5 -75.5v-160h91v-66h-91v-349zM381 0h-71v349h-40v66h40v177q0 74 24 105q35 44 99 44q14 0 24.5 -2t27.5 -7v-72q-16 6 -26 8t-21 2
q-34 0 -45.5 -19.5t-11.5 -75.5v-160h104v-66h-104v-349zM620 0h-71v729h71v-729z" />
    </font>
</defs>
</svg>
